G04*
G04 #@! TF.GenerationSoftware,Altium Limited,Altium Designer,19.1.6 (110)*
G04*
G04 Layer_Color=16711935*
%FSLAX44Y44*%
%MOMM*%
G71*
G01*
G75*
%ADD57C,3.2032*%
%ADD58R,3.2032X3.2032*%
%ADD59C,2.7032*%
%ADD60C,1.7032*%
%ADD61C,5.2032*%
%ADD62C,0.8032*%
D57*
X43500Y-272000D02*
D03*
Y-222000D02*
D03*
X354250Y-143250D02*
D03*
Y-193250D02*
D03*
Y-293250D02*
D03*
X154250Y-193250D02*
D03*
Y-293250D02*
D03*
X354580Y-243250D02*
D03*
X354250Y-343250D02*
D03*
X154250Y-143250D02*
D03*
Y-243250D02*
D03*
Y-343250D02*
D03*
X910000Y-77500D02*
D03*
X860000D02*
D03*
X810000D02*
D03*
X861000Y-447250D02*
D03*
X911000D02*
D03*
Y-501250D02*
D03*
X861000D02*
D03*
X811000D02*
D03*
Y-447250D02*
D03*
X463250Y-223750D02*
D03*
Y-274750D02*
D03*
Y-325750D02*
D03*
X667250Y-65000D02*
D03*
D58*
X463250Y-172750D02*
D03*
D59*
X1006200Y-289250D02*
D03*
X1031600Y-263850D02*
D03*
X1006200Y-238450D02*
D03*
X1057000Y-289250D02*
D03*
Y-238450D02*
D03*
D60*
X700500Y-437500D02*
D03*
X656250Y-189500D02*
D03*
X781500Y-364000D02*
D03*
X497000Y-448250D02*
D03*
D61*
X1015000Y-465000D02*
D03*
Y-65000D02*
D03*
X65000Y-465000D02*
D03*
Y-65000D02*
D03*
D62*
X655500Y-498000D02*
D03*
X661000Y-387500D02*
D03*
X668500D02*
D03*
X705250Y-224750D02*
D03*
X927500Y-257250D02*
D03*
X971500Y-257500D02*
D03*
X915000Y-264750D02*
D03*
X630750Y-244500D02*
D03*
X703250Y-422000D02*
D03*
X592500Y-357000D02*
D03*
X950500Y-387000D02*
D03*
Y-374750D02*
D03*
X533250Y-355750D02*
D03*
X746250Y-277500D02*
D03*
X834250Y-236750D02*
D03*
X565000Y-60000D02*
D03*
X556500D02*
D03*
X524500Y-384250D02*
D03*
X569250Y-206750D02*
D03*
X559750D02*
D03*
X901750Y-259500D02*
D03*
X739000Y-277500D02*
D03*
X524500Y-392500D02*
D03*
X865000Y-289250D02*
D03*
X640500Y-167500D02*
D03*
X840250Y-196000D02*
D03*
X981000Y-360000D02*
D03*
X853250Y-272500D02*
D03*
X550250Y-206750D02*
D03*
X867750Y-116750D02*
D03*
X548250Y-60000D02*
D03*
X620500Y-140250D02*
D03*
X840500Y-145250D02*
D03*
X920750Y-406500D02*
D03*
M02*
