G04*
G04 #@! TF.GenerationSoftware,Altium Limited,Altium Designer,19.1.6 (110)*
G04*
G04 Layer_Color=65535*
%FSLAX44Y44*%
%MOMM*%
G71*
G01*
G75*
%ADD10C,0.8000*%
%ADD11C,2.5000*%
%ADD12C,0.7000*%
%ADD13C,0.1500*%
%ADD14C,0.2540*%
%ADD15C,0.2500*%
%ADD16C,0.5000*%
%ADD17C,0.2000*%
%ADD18C,0.3000*%
%ADD19C,0.1200*%
%ADD20C,0.1270*%
%ADD21C,0.1016*%
%ADD22C,0.1540*%
%ADD23R,0.1082X0.0618*%
%ADD24R,0.0773X0.0927*%
%ADD25R,0.0927X0.0927*%
%ADD26R,0.0309X0.1700*%
%ADD27R,0.0773X0.1082*%
%ADD28R,0.0927X0.0773*%
G36*
X1021472Y626381D02*
Y625815D01*
X1013473Y625815D01*
Y626381D01*
X1021472Y626381D01*
D02*
G37*
G36*
X702494Y-109918D02*
X702648Y-110845D01*
X702339Y-111277D01*
Y-111309D01*
X702317D01*
X701100Y-113009D01*
X701103D01*
Y-113163D01*
X700990D01*
X700948Y-113221D01*
Y-113318D01*
X700879D01*
X700794Y-113437D01*
Y-113472D01*
X700769D01*
X700485Y-113869D01*
Y-113936D01*
X700437D01*
X699866Y-114733D01*
Y-114863D01*
X699773D01*
X699557Y-115165D01*
Y-115173D01*
X699552D01*
X699403Y-115381D01*
Y-115482D01*
X699331D01*
X699248Y-115597D01*
Y-115636D01*
X699220D01*
X698939Y-116029D01*
Y-116100D01*
X698888D01*
X698166Y-117109D01*
Y-117182D01*
X698114D01*
X698012Y-117325D01*
Y-117336D01*
X698004D01*
X697239Y-118405D01*
Y-118418D01*
X697230D01*
X696157Y-119917D01*
Y-119964D01*
X696124D01*
X695694Y-120565D01*
Y-120582D01*
X695682D01*
X689820Y-128773D01*
X683793D01*
X683793Y-128468D01*
X689395Y-127344D01*
X694612Y-119959D01*
Y-119809D01*
X694718D01*
X694766Y-119741D01*
Y-119655D01*
X694827D01*
X695230Y-119084D01*
Y-119036D01*
X695264D01*
X695694Y-118428D01*
Y-118418D01*
X695700D01*
X695848Y-118209D01*
Y-118109D01*
X695919D01*
X696157Y-117771D01*
Y-117645D01*
X696246D01*
X696775Y-116896D01*
Y-116873D01*
X696792D01*
X697394Y-116021D01*
Y-115945D01*
X697447D01*
X697548Y-115802D01*
Y-115791D01*
X697556D01*
X697857Y-115365D01*
Y-115327D01*
X697884D01*
X699403Y-113177D01*
Y-113163D01*
X699412D01*
X700176Y-112083D01*
Y-112081D01*
X700177D01*
X702305Y-109068D01*
X702494Y-109918D01*
D02*
G37*
G36*
X731000Y-127214D02*
X736317Y-128021D01*
Y-128250D01*
X720750D01*
X709961Y-108725D01*
X717900D01*
X731000Y-127214D01*
D02*
G37*
G36*
X700878Y-145512D02*
X702708Y-147837D01*
X701805Y-149350D01*
X700791Y-147058D01*
X701032D01*
X701012Y-146860D01*
X701028Y-146863D01*
X700946Y-146130D01*
X701032D01*
X700933Y-146009D01*
X700878Y-145512D01*
X700926Y-146002D01*
X688585Y-130956D01*
X699899Y-145821D01*
X699796D01*
Y-145976D01*
X700017D01*
X700105Y-146091D01*
Y-146130D01*
X699950D01*
Y-146285D01*
X700252D01*
X700105Y-146091D01*
Y-145976D01*
X700017D01*
X699899Y-145821D01*
X700105D01*
Y-145976D01*
X700259D01*
Y-146130D01*
X700414D01*
Y-146285D01*
X700252D01*
X700414Y-146497D01*
Y-146594D01*
X700488D01*
X700414Y-146497D01*
Y-146440D01*
X700568D01*
Y-146594D01*
X700488D01*
X700614Y-146760D01*
X700723Y-146787D01*
Y-146903D01*
X700791Y-147058D01*
X700723D01*
Y-146903D01*
X700614Y-146760D01*
X699950Y-146594D01*
X701803Y-149348D01*
X701805Y-149350D01*
Y-149350D01*
X701803Y-149348D01*
X699177Y-145512D01*
X697477Y-143194D01*
X695916Y-141046D01*
X688584Y-130955D01*
X688585Y-130956D01*
X688584Y-130954D01*
X683567Y-130264D01*
Y-130024D01*
X689747D01*
X700878Y-145512D01*
D02*
G37*
G36*
X700933Y-146009D02*
X700946Y-146130D01*
X700939D01*
X700926Y-146002D01*
X700933Y-146009D01*
D02*
G37*
G36*
X701012Y-146860D02*
X700723Y-146787D01*
Y-146749D01*
Y-146594D01*
Y-146440D01*
X700568D01*
Y-146285D01*
Y-146130D01*
X700939D01*
X701012Y-146860D01*
D02*
G37*
G36*
X701805Y-149350D02*
X701805Y-149350D01*
X701805D01*
Y-149350D01*
D02*
G37*
G36*
X736250Y-130500D02*
X730750Y-131250D01*
X717756Y-149508D01*
X710107Y-149508D01*
X721000Y-130250D01*
X736250D01*
Y-130500D01*
D02*
G37*
G36*
X757536Y-122441D02*
X757213D01*
Y-122423D01*
X757194Y-122386D01*
X757167Y-122312D01*
X757130Y-122229D01*
X757083Y-122127D01*
X757019Y-122007D01*
X756935Y-121877D01*
X756834Y-121739D01*
X756824Y-121720D01*
X756787Y-121683D01*
X756732Y-121618D01*
X756658Y-121545D01*
X756575Y-121480D01*
X756482Y-121415D01*
X756390Y-121360D01*
X756297Y-121332D01*
X756279D01*
X756251Y-121323D01*
X756214D01*
X756113Y-121313D01*
X755983Y-121304D01*
X755909D01*
X755863Y-121295D01*
X754679D01*
Y-123541D01*
X754753D01*
X754809Y-123532D01*
X755170D01*
X755225Y-123523D01*
X755678D01*
X755798Y-123532D01*
X755937Y-123541D01*
X756094Y-123560D01*
X756418Y-123616D01*
X756436D01*
X756492Y-123634D01*
X756575Y-123652D01*
X756676Y-123689D01*
X756797Y-123726D01*
X756926Y-123782D01*
X757065Y-123837D01*
X757194Y-123911D01*
X757213Y-123921D01*
X757250Y-123948D01*
X757305Y-123995D01*
X757379Y-124050D01*
X757462Y-124133D01*
X757546Y-124226D01*
X757638Y-124327D01*
X757712Y-124448D01*
X757721Y-124466D01*
X757740Y-124503D01*
X757777Y-124577D01*
X757814Y-124670D01*
X757841Y-124790D01*
X757878Y-124928D01*
X757897Y-125085D01*
X757906Y-125252D01*
Y-125261D01*
Y-125270D01*
Y-125326D01*
X757897Y-125409D01*
X757888Y-125520D01*
X757860Y-125649D01*
X757832Y-125779D01*
X757786Y-125918D01*
X757721Y-126056D01*
X757712Y-126075D01*
X757684Y-126112D01*
X757647Y-126177D01*
X757592Y-126250D01*
X757518Y-126343D01*
X757435Y-126435D01*
X757342Y-126528D01*
X757231Y-126620D01*
X757222Y-126629D01*
X757176Y-126657D01*
X757120Y-126694D01*
X757037Y-126741D01*
X756935Y-126787D01*
X756824Y-126842D01*
X756704Y-126888D01*
X756565Y-126935D01*
X756547D01*
X756501Y-126953D01*
X756427Y-126962D01*
X756334Y-126981D01*
X756224Y-126999D01*
X756094Y-127018D01*
X755955Y-127027D01*
X755807Y-127036D01*
X752932D01*
Y-126731D01*
X753006D01*
X753098Y-126722D01*
X753228Y-126704D01*
X753237D01*
X753265Y-126694D01*
X753293D01*
X753339Y-126685D01*
X753431Y-126657D01*
X753477Y-126648D01*
X753514Y-126629D01*
X753524D01*
X753533Y-126620D01*
X753588Y-126593D01*
X753644Y-126537D01*
X753699Y-126472D01*
Y-126463D01*
X753709Y-126454D01*
X753736Y-126398D01*
X753755Y-126324D01*
X753764Y-126214D01*
Y-121840D01*
Y-121831D01*
Y-121813D01*
Y-121785D01*
X753755Y-121748D01*
X753746Y-121665D01*
X753709Y-121581D01*
Y-121572D01*
X753699Y-121563D01*
X753672Y-121517D01*
X753607Y-121461D01*
X753570Y-121433D01*
X753514Y-121406D01*
X753505D01*
X753496Y-121397D01*
X753468Y-121387D01*
X753431Y-121369D01*
X753339Y-121332D01*
X753219Y-121304D01*
X753209D01*
X753191Y-121295D01*
X753163D01*
X753126Y-121286D01*
X753043Y-121267D01*
X752960Y-121258D01*
Y-120953D01*
X757536D01*
Y-122441D01*
D02*
G37*
G36*
X751712Y-120906D02*
X751813Y-120916D01*
X751924Y-120943D01*
X751934D01*
X751952Y-120953D01*
X752008Y-120981D01*
X752081Y-121018D01*
X752155Y-121073D01*
X752174Y-121082D01*
X752202Y-121119D01*
X752248Y-121175D01*
X752285Y-121249D01*
X752294Y-121267D01*
X752313Y-121313D01*
X752322Y-121378D01*
X752331Y-121461D01*
Y-121480D01*
Y-121517D01*
X752322Y-121581D01*
X752303Y-121646D01*
X752294Y-121655D01*
X752285Y-121692D01*
X752257Y-121748D01*
X752220Y-121794D01*
X752211Y-121803D01*
X752183Y-121831D01*
X752137Y-121868D01*
X752081Y-121905D01*
X752072Y-121914D01*
X752035Y-121924D01*
X751971Y-121933D01*
X751878Y-121942D01*
X751860D01*
X751795Y-121933D01*
X751721Y-121924D01*
X751638Y-121896D01*
X751619Y-121887D01*
X751573Y-121859D01*
X751517Y-121822D01*
X751453Y-121776D01*
X751443Y-121757D01*
X751406Y-121720D01*
X751360Y-121655D01*
X751314Y-121581D01*
Y-121572D01*
X751305Y-121563D01*
X751277Y-121508D01*
X751240Y-121443D01*
X751203Y-121360D01*
X751194D01*
X751185Y-121378D01*
X751129Y-121415D01*
X751064Y-121480D01*
X751000Y-121563D01*
Y-121572D01*
X750990Y-121581D01*
X750954Y-121637D01*
X750898Y-121720D01*
X750852Y-121822D01*
Y-121831D01*
X750843Y-121840D01*
X750833Y-121868D01*
X750815Y-121905D01*
X750778Y-121997D01*
X750732Y-122108D01*
Y-122118D01*
X750722Y-122136D01*
X750713Y-122164D01*
X750704Y-122210D01*
X750667Y-122321D01*
X750621Y-122451D01*
Y-122460D01*
X750611Y-122478D01*
X750602Y-122515D01*
X750593Y-122552D01*
X750574Y-122608D01*
X750547Y-122672D01*
X750500Y-122811D01*
Y-122820D01*
X750491Y-122848D01*
X750473Y-122885D01*
X750454Y-122931D01*
X750408Y-123042D01*
X750343Y-123172D01*
Y-123181D01*
X750325Y-123199D01*
X750306Y-123236D01*
X750278Y-123283D01*
X750214Y-123394D01*
X750121Y-123532D01*
X750112Y-123541D01*
X750103Y-123560D01*
X750075Y-123597D01*
X750038Y-123643D01*
X749936Y-123745D01*
X749816Y-123865D01*
Y-123930D01*
X749826D01*
X749835Y-123939D01*
X749863D01*
X749900Y-123958D01*
X749983Y-123985D01*
X750094Y-124031D01*
X750223Y-124087D01*
X750352Y-124161D01*
X750491Y-124253D01*
X750611Y-124355D01*
X750630Y-124364D01*
X750667Y-124411D01*
X750722Y-124466D01*
X750796Y-124558D01*
X750880Y-124660D01*
X750963Y-124790D01*
X751055Y-124928D01*
X751138Y-125095D01*
X751148Y-125104D01*
X751157Y-125141D01*
X751185Y-125197D01*
X751212Y-125270D01*
X751259Y-125354D01*
X751296Y-125446D01*
X751397Y-125668D01*
X751406Y-125677D01*
X751425Y-125714D01*
X751453Y-125770D01*
X751480Y-125844D01*
X751517Y-125918D01*
X751564Y-126010D01*
X751638Y-126177D01*
X751647Y-126186D01*
X751665Y-126223D01*
X751684Y-126269D01*
X751721Y-126334D01*
X751804Y-126463D01*
X751850Y-126519D01*
X751897Y-126565D01*
X751906D01*
X751915Y-126583D01*
X751980Y-126611D01*
X752054Y-126648D01*
X752146Y-126676D01*
X752165D01*
X752220Y-126685D01*
X752294Y-126694D01*
X752386Y-126713D01*
X752405D01*
X752460Y-126722D01*
X752534Y-126731D01*
X752618D01*
Y-127036D01*
X750944D01*
Y-127027D01*
X750935Y-127018D01*
X750926Y-126990D01*
X750917Y-126953D01*
X750880Y-126861D01*
X750833Y-126741D01*
X750778Y-126602D01*
X750722Y-126454D01*
X750593Y-126139D01*
Y-126130D01*
X750584Y-126121D01*
X750565Y-126066D01*
X750528Y-125992D01*
X750491Y-125881D01*
X750436Y-125760D01*
X750380Y-125622D01*
X750251Y-125335D01*
Y-125326D01*
X750242Y-125307D01*
X750223Y-125270D01*
X750205Y-125233D01*
X750149Y-125122D01*
X750075Y-124984D01*
X749983Y-124836D01*
X749881Y-124688D01*
X749779Y-124558D01*
X749724Y-124503D01*
X749668Y-124457D01*
X749659Y-124448D01*
X749613Y-124420D01*
X749548Y-124383D01*
X749465Y-124337D01*
X749354Y-124300D01*
X749215Y-124263D01*
X749058Y-124235D01*
X748882Y-124226D01*
X748577D01*
Y-126186D01*
Y-126195D01*
Y-126204D01*
X748587Y-126269D01*
X748596Y-126352D01*
X748624Y-126435D01*
X748633Y-126454D01*
X748670Y-126500D01*
X748725Y-126556D01*
X748818Y-126611D01*
X748827Y-126620D01*
X748873Y-126639D01*
X748910Y-126648D01*
X748947Y-126657D01*
X749003Y-126676D01*
X749067Y-126694D01*
X749077D01*
X749095Y-126704D01*
X749132D01*
X749178Y-126713D01*
X749280Y-126722D01*
X749382Y-126731D01*
Y-127036D01*
X746858D01*
Y-126731D01*
X746932D01*
X747015Y-126722D01*
X747135Y-126713D01*
X747163D01*
X747200Y-126704D01*
X747246Y-126694D01*
X747338Y-126685D01*
X747375Y-126666D01*
X747412Y-126657D01*
X747422D01*
X747431Y-126648D01*
X747486Y-126611D01*
X747542Y-126565D01*
X747597Y-126491D01*
Y-126482D01*
X747607Y-126472D01*
X747634Y-126417D01*
X747653Y-126334D01*
X747662Y-126232D01*
Y-121840D01*
Y-121831D01*
Y-121813D01*
Y-121785D01*
X747653Y-121757D01*
X747644Y-121674D01*
X747607Y-121591D01*
Y-121581D01*
X747597Y-121572D01*
X747570Y-121526D01*
X747505Y-121470D01*
X747468Y-121443D01*
X747412Y-121415D01*
X747403D01*
X747394Y-121406D01*
X747366Y-121397D01*
X747329Y-121378D01*
X747246Y-121350D01*
X747135Y-121313D01*
X747126D01*
X747107Y-121304D01*
X747080Y-121295D01*
X747043Y-121286D01*
X746950Y-121267D01*
X746858Y-121258D01*
Y-120953D01*
X749382D01*
Y-121258D01*
X749335D01*
X749298Y-121267D01*
X749206Y-121276D01*
X749077Y-121304D01*
X749049D01*
X749021Y-121313D01*
X748975Y-121323D01*
X748892Y-121341D01*
X748818Y-121369D01*
X748809D01*
X748790Y-121378D01*
X748735Y-121406D01*
X748670Y-121461D01*
X748642Y-121489D01*
X748624Y-121535D01*
Y-121545D01*
X748614Y-121554D01*
X748605Y-121609D01*
X748587Y-121692D01*
X748577Y-121794D01*
Y-123874D01*
X749021D01*
X749067Y-123865D01*
X749160Y-123847D01*
X749271Y-123810D01*
X749280D01*
X749298Y-123800D01*
X749326Y-123782D01*
X749363Y-123763D01*
X749456Y-123699D01*
X749557Y-123606D01*
X749567Y-123597D01*
X749585Y-123569D01*
X749622Y-123532D01*
X749668Y-123477D01*
X749715Y-123412D01*
X749761Y-123338D01*
X749807Y-123246D01*
X749853Y-123153D01*
X749863Y-123144D01*
X749872Y-123107D01*
X749900Y-123042D01*
X749927Y-122968D01*
X749964Y-122867D01*
X750001Y-122756D01*
X750047Y-122626D01*
X750094Y-122487D01*
X750103Y-122469D01*
X750112Y-122432D01*
X750140Y-122358D01*
X750168Y-122275D01*
X750205Y-122173D01*
X750242Y-122062D01*
X750334Y-121831D01*
X750343Y-121813D01*
X750362Y-121776D01*
X750389Y-121720D01*
X750426Y-121646D01*
X750482Y-121563D01*
X750547Y-121461D01*
X750630Y-121369D01*
X750713Y-121267D01*
X750722Y-121258D01*
X750741Y-121239D01*
X750778Y-121212D01*
X750824Y-121175D01*
X750880Y-121128D01*
X750944Y-121082D01*
X751101Y-120999D01*
X751111Y-120990D01*
X751138Y-120981D01*
X751185Y-120962D01*
X751249Y-120943D01*
X751323Y-120925D01*
X751406Y-120916D01*
X751499Y-120897D01*
X751665D01*
X751712Y-120906D01*
D02*
G37*
G36*
X745989Y-121258D02*
X745942D01*
X745905Y-121267D01*
X745804Y-121276D01*
X745684Y-121304D01*
X745656D01*
X745628Y-121313D01*
X745591Y-121323D01*
X745508Y-121341D01*
X745425Y-121369D01*
X745415D01*
X745397Y-121378D01*
X745341Y-121406D01*
X745277Y-121461D01*
X745249Y-121489D01*
X745230Y-121535D01*
Y-121545D01*
X745221Y-121554D01*
X745212Y-121609D01*
X745193Y-121692D01*
X745184Y-121794D01*
Y-126186D01*
Y-126195D01*
Y-126214D01*
Y-126241D01*
X745193Y-126269D01*
X745203Y-126352D01*
X745230Y-126435D01*
X745240Y-126454D01*
X745277Y-126500D01*
X745332Y-126556D01*
X745378Y-126593D01*
X745425Y-126620D01*
X745443Y-126629D01*
X745489Y-126639D01*
X745517Y-126657D01*
X745563Y-126666D01*
X745619Y-126676D01*
X745684Y-126694D01*
X745693D01*
X745721Y-126704D01*
X745748D01*
X745794Y-126713D01*
X745896Y-126722D01*
X745989Y-126731D01*
Y-127036D01*
X743465D01*
Y-126731D01*
X743539D01*
X743576Y-126722D01*
X743686D01*
X743751Y-126713D01*
X743779D01*
X743816Y-126704D01*
X743862Y-126694D01*
X743945Y-126685D01*
X743982Y-126666D01*
X744019Y-126657D01*
X744028D01*
X744038Y-126648D01*
X744093Y-126620D01*
X744149Y-126574D01*
X744204Y-126509D01*
Y-126500D01*
X744213Y-126491D01*
X744241Y-126435D01*
X744260Y-126343D01*
X744269Y-126232D01*
Y-121332D01*
X741477D01*
Y-126186D01*
Y-126195D01*
Y-126214D01*
Y-126241D01*
X741486Y-126269D01*
X741495Y-126352D01*
X741523Y-126435D01*
X741532Y-126454D01*
X741569Y-126491D01*
X741625Y-126556D01*
X741671Y-126583D01*
X741717Y-126611D01*
X741736Y-126620D01*
X741782Y-126639D01*
X741810Y-126648D01*
X741856Y-126666D01*
X741911Y-126676D01*
X741976Y-126694D01*
X741985D01*
X742013Y-126704D01*
X742041D01*
X742087Y-126713D01*
X742189Y-126722D01*
X742281Y-126731D01*
Y-127036D01*
X739757D01*
Y-126731D01*
X739831D01*
X739868Y-126722D01*
X739979D01*
X740044Y-126713D01*
X740071D01*
X740108Y-126704D01*
X740155Y-126694D01*
X740238Y-126685D01*
X740275Y-126666D01*
X740312Y-126657D01*
X740321D01*
X740330Y-126648D01*
X740386Y-126620D01*
X740441Y-126574D01*
X740497Y-126509D01*
Y-126500D01*
X740506Y-126491D01*
X740534Y-126435D01*
X740552Y-126343D01*
X740561Y-126232D01*
Y-121840D01*
Y-121831D01*
Y-121813D01*
X740552Y-121757D01*
X740543Y-121674D01*
X740506Y-121591D01*
Y-121581D01*
X740497Y-121572D01*
X740460Y-121526D01*
X740404Y-121470D01*
X740312Y-121415D01*
X740303D01*
X740293Y-121406D01*
X740238Y-121378D01*
X740145Y-121350D01*
X740034Y-121313D01*
X740025D01*
X740007Y-121304D01*
X739979Y-121295D01*
X739942Y-121286D01*
X739849Y-121267D01*
X739757Y-121258D01*
Y-120953D01*
X745989D01*
Y-121258D01*
D02*
G37*
G36*
X798266Y-130444D02*
X798260Y-131360D01*
X798121Y-131359D01*
X798010Y-131386D01*
X797705Y-131412D01*
X797343Y-131493D01*
X797260Y-131492D01*
X797177Y-131520D01*
X797065Y-131547D01*
X796815Y-131601D01*
X796565Y-131682D01*
X796537Y-131682D01*
X796481Y-131709D01*
X796314Y-131792D01*
X796119Y-131957D01*
X796035Y-132040D01*
X795978Y-132178D01*
X795978Y-132206D01*
X795950Y-132233D01*
X795921Y-132400D01*
X795864Y-132649D01*
X795835Y-132955D01*
X795798Y-138618D01*
X804348Y-138674D01*
X804384Y-133149D01*
X804384Y-133122D01*
X804385Y-133066D01*
X804358Y-132899D01*
X804332Y-132649D01*
X804222Y-132399D01*
X804223Y-132371D01*
X804195Y-132343D01*
X804085Y-132203D01*
X803920Y-132036D01*
X803643Y-131867D01*
X803615Y-131867D01*
X803588Y-131839D01*
X803422Y-131755D01*
X803145Y-131670D01*
X802812Y-131557D01*
X802784Y-131556D01*
X802729Y-131528D01*
X802646Y-131500D01*
X802535Y-131471D01*
X802258Y-131414D01*
X801980Y-131384D01*
X801986Y-130468D01*
X809565Y-130518D01*
X809559Y-131434D01*
X809420Y-131433D01*
X809309Y-131460D01*
X809004Y-131486D01*
X808642Y-131567D01*
X808559Y-131566D01*
X808475Y-131594D01*
X808364Y-131621D01*
X808114Y-131674D01*
X807864Y-131756D01*
X807836Y-131756D01*
X807780Y-131783D01*
X807613Y-131866D01*
X807418Y-132031D01*
X807334Y-132114D01*
X807277Y-132252D01*
X807277Y-132280D01*
X807249Y-132307D01*
X807220Y-132474D01*
X807163Y-132723D01*
X807133Y-133028D01*
X807047Y-146215D01*
X807047Y-146243D01*
X807047Y-146299D01*
X807046Y-146382D01*
X807073Y-146465D01*
X807100Y-146715D01*
X807181Y-146966D01*
X807208Y-147021D01*
X807319Y-147161D01*
X807484Y-147329D01*
X807622Y-147441D01*
X807760Y-147525D01*
X807816Y-147553D01*
X807954Y-147582D01*
X808037Y-147638D01*
X808176Y-147666D01*
X808342Y-147695D01*
X808536Y-147752D01*
X808564Y-147752D01*
X808647Y-147780D01*
X808730Y-147781D01*
X808869Y-147810D01*
X809174Y-147839D01*
X809452Y-147869D01*
X809446Y-148785D01*
X801867Y-148736D01*
X801873Y-147819D01*
X802095Y-147821D01*
X802206Y-147794D01*
X802539Y-147796D01*
X802734Y-147769D01*
X802817Y-147770D01*
X802928Y-147743D01*
X803067Y-147716D01*
X803317Y-147690D01*
X803429Y-147635D01*
X803540Y-147608D01*
X803568Y-147608D01*
X803596Y-147581D01*
X803763Y-147499D01*
X803930Y-147361D01*
X804098Y-147168D01*
X804098Y-147140D01*
X804126Y-147112D01*
X804211Y-146946D01*
X804268Y-146669D01*
X804298Y-146336D01*
X804341Y-139812D01*
X795790Y-139756D01*
X795748Y-146141D01*
X795748Y-146169D01*
X795748Y-146224D01*
X795747Y-146308D01*
X795774Y-146391D01*
X795800Y-146641D01*
X795882Y-146892D01*
X795910Y-146947D01*
X796020Y-147087D01*
X796185Y-147255D01*
X796323Y-147367D01*
X796461Y-147451D01*
X796517Y-147479D01*
X796656Y-147508D01*
X796738Y-147564D01*
X796877Y-147592D01*
X797043Y-147621D01*
X797237Y-147678D01*
X797265Y-147678D01*
X797348Y-147706D01*
X797431Y-147707D01*
X797570Y-147736D01*
X797875Y-147765D01*
X798153Y-147795D01*
X798147Y-148711D01*
X790568Y-148661D01*
X790574Y-147745D01*
X790796Y-147747D01*
X790907Y-147720D01*
X791240Y-147722D01*
X791435Y-147696D01*
X791518Y-147696D01*
X791629Y-147669D01*
X791768Y-147642D01*
X792018Y-147616D01*
X792130Y-147561D01*
X792241Y-147534D01*
X792269Y-147534D01*
X792297Y-147507D01*
X792464Y-147425D01*
X792631Y-147287D01*
X792799Y-147094D01*
X792799Y-147066D01*
X792827Y-147038D01*
X792912Y-146872D01*
X792969Y-146595D01*
X792999Y-146262D01*
X793085Y-133075D01*
X793085Y-133048D01*
X793086Y-132992D01*
X793059Y-132825D01*
X793033Y-132575D01*
X792924Y-132325D01*
X792924Y-132297D01*
X792896Y-132269D01*
X792786Y-132129D01*
X792621Y-131962D01*
X792344Y-131793D01*
X792316Y-131793D01*
X792289Y-131765D01*
X792123Y-131681D01*
X791846Y-131596D01*
X791513Y-131482D01*
X791485Y-131482D01*
X791430Y-131454D01*
X791347Y-131426D01*
X791236Y-131397D01*
X790959Y-131340D01*
X790681Y-131311D01*
X790687Y-130394D01*
X798266Y-130444D01*
D02*
G37*
G36*
X828610Y-130643D02*
X828604Y-131559D01*
X828465Y-131558D01*
X828354Y-131585D01*
X828048Y-131611D01*
X827687Y-131692D01*
X827604Y-131691D01*
X827520Y-131718D01*
X827409Y-131745D01*
X827159Y-131799D01*
X826908Y-131881D01*
X826880Y-131881D01*
X826825Y-131908D01*
X826658Y-131990D01*
X826462Y-132156D01*
X826378Y-132238D01*
X826322Y-132377D01*
X826322Y-132404D01*
X826294Y-132432D01*
X826265Y-132598D01*
X826208Y-132876D01*
X826178Y-133181D01*
X826090Y-146562D01*
X826090Y-146590D01*
X826089Y-146673D01*
X826116Y-146812D01*
X826143Y-146951D01*
X826252Y-147285D01*
X826334Y-147452D01*
X826444Y-147564D01*
X826472Y-147564D01*
X826527Y-147620D01*
X826611Y-147648D01*
X826721Y-147704D01*
X826888Y-147761D01*
X827082Y-147790D01*
X827303Y-147847D01*
X828691Y-147856D01*
X828656Y-153186D01*
X827685Y-153180D01*
X827685Y-153152D01*
X827658Y-153097D01*
X827631Y-152985D01*
X827604Y-152846D01*
X827549Y-152679D01*
X827467Y-152485D01*
X827331Y-152039D01*
X827332Y-152012D01*
X827304Y-151928D01*
X827250Y-151817D01*
X827195Y-151650D01*
X827085Y-151455D01*
X826976Y-151204D01*
X826867Y-150926D01*
X826702Y-150647D01*
X826674Y-150619D01*
X826647Y-150536D01*
X826565Y-150396D01*
X826455Y-150229D01*
X826208Y-149811D01*
X825905Y-149420D01*
X825877Y-149392D01*
X825822Y-149337D01*
X825739Y-149253D01*
X825629Y-149169D01*
X825325Y-148972D01*
X825131Y-148888D01*
X824909Y-148859D01*
X814582Y-148791D01*
X814526Y-148818D01*
X814415Y-148845D01*
X814304Y-148872D01*
X814137Y-148955D01*
X813969Y-149037D01*
X813802Y-149174D01*
X813606Y-149340D01*
X813579Y-149367D01*
X813523Y-149423D01*
X813439Y-149533D01*
X813326Y-149699D01*
X813187Y-149865D01*
X813046Y-150086D01*
X812738Y-150556D01*
X812710Y-150583D01*
X812682Y-150666D01*
X812598Y-150777D01*
X812513Y-150943D01*
X812429Y-151165D01*
X812316Y-151386D01*
X812091Y-151912D01*
X812090Y-151940D01*
X812034Y-152022D01*
X812006Y-152161D01*
X811949Y-152327D01*
X811808Y-152715D01*
X811751Y-152909D01*
X811694Y-153075D01*
X810723Y-153069D01*
X810758Y-147711D01*
X812507Y-147722D01*
X812534Y-147695D01*
X812591Y-147612D01*
X812675Y-147474D01*
X812787Y-147308D01*
X812900Y-147059D01*
X813068Y-146782D01*
X813264Y-146450D01*
X813461Y-146063D01*
X813659Y-145620D01*
X813912Y-145150D01*
X814137Y-144624D01*
X814391Y-144042D01*
X814645Y-143433D01*
X814871Y-142796D01*
X815125Y-142104D01*
X815380Y-141356D01*
X815408Y-141300D01*
X815437Y-141162D01*
X815494Y-140968D01*
X815579Y-140663D01*
X815692Y-140331D01*
X815806Y-139915D01*
X815920Y-139444D01*
X816062Y-138945D01*
X816177Y-138390D01*
X816292Y-137808D01*
X816522Y-136616D01*
X816669Y-135367D01*
X816728Y-134757D01*
X816732Y-134146D01*
X816732Y-134091D01*
X816733Y-133980D01*
X816734Y-133813D01*
X816708Y-133591D01*
X816656Y-133119D01*
X816602Y-132868D01*
X816547Y-132674D01*
X816548Y-132646D01*
X816520Y-132590D01*
X816465Y-132507D01*
X816411Y-132395D01*
X816190Y-132144D01*
X816052Y-132032D01*
X815886Y-131920D01*
X815831Y-131892D01*
X815748Y-131863D01*
X815637Y-131835D01*
X815498Y-131806D01*
X815332Y-131749D01*
X815138Y-131721D01*
X814888Y-131663D01*
X814861Y-131663D01*
X814777Y-131635D01*
X814667Y-131606D01*
X814500Y-131578D01*
X814167Y-131520D01*
X814029Y-131491D01*
X813890Y-131462D01*
X813896Y-130546D01*
X828610Y-130643D01*
D02*
G37*
G36*
X787384Y-130373D02*
X787355Y-134787D01*
X786383Y-134781D01*
X786384Y-134725D01*
X786329Y-134614D01*
X786247Y-134419D01*
X786137Y-134168D01*
X786001Y-133862D01*
X785809Y-133500D01*
X785561Y-133109D01*
X785258Y-132719D01*
X785231Y-132663D01*
X785121Y-132551D01*
X784956Y-132356D01*
X784763Y-132132D01*
X784514Y-131936D01*
X784238Y-131740D01*
X783961Y-131572D01*
X783656Y-131487D01*
X783601Y-131486D01*
X783518Y-131458D01*
X783407Y-131457D01*
X783101Y-131427D01*
X782713Y-131397D01*
X782491Y-131396D01*
X782352Y-131367D01*
X778604Y-131342D01*
X778557Y-138588D01*
X780945Y-138604D01*
X781167Y-138578D01*
X781611Y-138525D01*
X781834Y-138499D01*
X782028Y-138444D01*
X782056Y-138445D01*
X782112Y-138417D01*
X782195Y-138362D01*
X782307Y-138280D01*
X782586Y-138087D01*
X782865Y-137811D01*
X782866Y-137784D01*
X782921Y-137756D01*
X782977Y-137673D01*
X783034Y-137563D01*
X783118Y-137424D01*
X783174Y-137258D01*
X783344Y-136843D01*
X783344Y-136815D01*
X783372Y-136732D01*
X783401Y-136621D01*
X783457Y-136455D01*
X783543Y-136067D01*
X783629Y-135623D01*
X784601Y-135629D01*
X784554Y-142792D01*
X783582Y-142786D01*
X783583Y-142758D01*
X783583Y-142675D01*
X783556Y-142563D01*
X783529Y-142397D01*
X783475Y-142202D01*
X783449Y-141980D01*
X783285Y-141507D01*
X783286Y-141479D01*
X783258Y-141395D01*
X783204Y-141256D01*
X783149Y-141117D01*
X783012Y-140783D01*
X782930Y-140644D01*
X782848Y-140504D01*
X782820Y-140476D01*
X782765Y-140420D01*
X782682Y-140337D01*
X782572Y-140225D01*
X782296Y-140001D01*
X782130Y-139916D01*
X781936Y-139832D01*
X781908Y-139832D01*
X781853Y-139804D01*
X781742Y-139775D01*
X781575Y-139746D01*
X781381Y-139717D01*
X781160Y-139688D01*
X780910Y-139659D01*
X778550Y-139643D01*
X778514Y-145140D01*
X778514Y-145168D01*
X778513Y-145279D01*
X778512Y-145418D01*
X778539Y-145612D01*
X778564Y-146029D01*
X778590Y-146251D01*
X778617Y-146446D01*
X778616Y-146473D01*
X778644Y-146529D01*
X778671Y-146613D01*
X778726Y-146724D01*
X778835Y-146947D01*
X779056Y-147170D01*
X779084Y-147170D01*
X779111Y-147198D01*
X779194Y-147254D01*
X779305Y-147283D01*
X779582Y-147396D01*
X779970Y-147482D01*
X780081Y-147482D01*
X780220Y-147511D01*
X780636Y-147514D01*
X780914Y-147543D01*
X783523Y-147560D01*
X783912Y-147535D01*
X783995Y-147536D01*
X784079Y-147508D01*
X784218Y-147482D01*
X784524Y-147428D01*
X784913Y-147347D01*
X784941Y-147348D01*
X784996Y-147320D01*
X785080Y-147293D01*
X785219Y-147238D01*
X785442Y-147129D01*
X785581Y-147074D01*
X785665Y-146991D01*
X785693Y-146964D01*
X785777Y-146881D01*
X785889Y-146715D01*
X786029Y-146522D01*
X786225Y-146245D01*
X786421Y-145941D01*
X786674Y-145554D01*
X786899Y-145112D01*
X786899Y-145084D01*
X786927Y-145056D01*
X787011Y-144918D01*
X787123Y-144697D01*
X787264Y-144420D01*
X787405Y-144115D01*
X787546Y-143811D01*
X787686Y-143506D01*
X787771Y-143257D01*
X788688Y-143263D01*
X788291Y-148647D01*
X773134Y-148547D01*
X773140Y-147631D01*
X773389Y-147633D01*
X773556Y-147606D01*
X773723Y-147607D01*
X773917Y-147581D01*
X774139Y-147555D01*
X774167Y-147555D01*
X774251Y-147528D01*
X774362Y-147528D01*
X774501Y-147501D01*
X774779Y-147448D01*
X774918Y-147393D01*
X775001Y-147366D01*
X775029Y-147366D01*
X775057Y-147338D01*
X775224Y-147228D01*
X775420Y-147063D01*
X775588Y-146870D01*
X775588Y-146842D01*
X775616Y-146815D01*
X775672Y-146648D01*
X775729Y-146427D01*
X775759Y-146094D01*
X775845Y-132962D01*
X775845Y-132935D01*
X775846Y-132879D01*
X775819Y-132712D01*
X775793Y-132462D01*
X775684Y-132212D01*
X775684Y-132184D01*
X775656Y-132156D01*
X775574Y-132017D01*
X775381Y-131849D01*
X775270Y-131765D01*
X775104Y-131680D01*
X775076Y-131680D01*
X775049Y-131652D01*
X774966Y-131624D01*
X774855Y-131568D01*
X774550Y-131482D01*
X774162Y-131369D01*
X774134Y-131369D01*
X774079Y-131341D01*
X773968Y-131312D01*
X773830Y-131284D01*
X773525Y-131226D01*
X773247Y-131196D01*
X773253Y-130280D01*
X787384Y-130373D01*
D02*
G37*
G36*
X755902Y-130167D02*
X755870Y-135136D01*
X754981Y-135130D01*
X754981Y-135102D01*
X754954Y-135047D01*
X754927Y-134963D01*
X754872Y-134824D01*
X754818Y-134657D01*
X754736Y-134490D01*
X754544Y-134045D01*
X754544Y-134017D01*
X754489Y-133933D01*
X754435Y-133822D01*
X754352Y-133655D01*
X754133Y-133265D01*
X753886Y-132819D01*
X753858Y-132791D01*
X753831Y-132707D01*
X753748Y-132596D01*
X753638Y-132456D01*
X753363Y-132121D01*
X753032Y-131786D01*
X753004Y-131758D01*
X752949Y-131702D01*
X752866Y-131646D01*
X752756Y-131562D01*
X752479Y-131366D01*
X752313Y-131309D01*
X752147Y-131253D01*
X752092Y-131252D01*
X751981Y-131224D01*
X751870Y-131223D01*
X751731Y-131194D01*
X751564Y-131193D01*
X751148Y-131163D01*
X750926Y-131161D01*
X750788Y-131133D01*
X749288Y-131123D01*
X749193Y-145753D01*
X749192Y-145781D01*
X749192Y-145836D01*
X749192Y-145892D01*
X749219Y-146003D01*
X749273Y-146253D01*
X749354Y-146532D01*
X749354Y-146559D01*
X749381Y-146587D01*
X749519Y-146727D01*
X749712Y-146923D01*
X749989Y-147091D01*
X750044Y-147119D01*
X750100Y-147120D01*
X750183Y-147148D01*
X750322Y-147177D01*
X750488Y-147233D01*
X750709Y-147290D01*
X750959Y-147347D01*
X750987Y-147347D01*
X751070Y-147376D01*
X751208Y-147404D01*
X751375Y-147406D01*
X751763Y-147464D01*
X751957Y-147493D01*
X752124Y-147494D01*
X752118Y-148410D01*
X743484Y-148353D01*
X743490Y-147437D01*
X743740Y-147439D01*
X743907Y-147412D01*
X744101Y-147413D01*
X744323Y-147387D01*
X744573Y-147361D01*
X744601Y-147361D01*
X744685Y-147334D01*
X744824Y-147335D01*
X744990Y-147308D01*
X745324Y-147255D01*
X745491Y-147200D01*
X745602Y-147173D01*
X745630Y-147174D01*
X745658Y-147146D01*
X745825Y-147064D01*
X746048Y-146899D01*
X746216Y-146705D01*
X746216Y-146678D01*
X746244Y-146650D01*
X746300Y-146567D01*
X746328Y-146484D01*
X746413Y-146207D01*
X746443Y-145846D01*
X746540Y-131105D01*
X745180Y-131096D01*
X744763Y-131121D01*
X744541Y-131119D01*
X744402Y-131146D01*
X744041Y-131172D01*
X743652Y-131197D01*
X743624Y-131197D01*
X743568Y-131224D01*
X743485Y-131224D01*
X743374Y-131278D01*
X743235Y-131333D01*
X743067Y-131443D01*
X742900Y-131553D01*
X742732Y-131718D01*
X742704Y-131746D01*
X742649Y-131801D01*
X742565Y-131884D01*
X742453Y-132022D01*
X742201Y-132326D01*
X741893Y-132740D01*
X741865Y-132768D01*
X741837Y-132851D01*
X741753Y-132961D01*
X741668Y-133100D01*
X741556Y-133293D01*
X741444Y-133515D01*
X741191Y-133985D01*
X741190Y-134013D01*
X741134Y-134096D01*
X741106Y-134206D01*
X741049Y-134345D01*
X740908Y-134705D01*
X740795Y-135037D01*
X739907Y-135031D01*
X739939Y-130062D01*
X755902Y-130167D01*
D02*
G37*
G36*
X765813Y-130232D02*
X765979Y-130260D01*
X766201Y-130262D01*
X766451Y-130291D01*
X766728Y-130349D01*
X767033Y-130406D01*
X767699Y-130549D01*
X768391Y-130776D01*
X769056Y-131086D01*
X769388Y-131282D01*
X769691Y-131506D01*
X769719Y-131506D01*
X769774Y-131562D01*
X769829Y-131646D01*
X769940Y-131730D01*
X770188Y-132009D01*
X770491Y-132372D01*
X770793Y-132846D01*
X771040Y-133403D01*
X771148Y-133737D01*
X771229Y-134071D01*
X771255Y-134404D01*
X771280Y-134793D01*
X771280Y-134820D01*
X771280Y-134848D01*
X771279Y-134931D01*
X771279Y-135042D01*
X771249Y-135292D01*
X771191Y-135625D01*
X771133Y-136041D01*
X771019Y-136457D01*
X770878Y-136900D01*
X770681Y-137315D01*
X770653Y-137371D01*
X770568Y-137481D01*
X770456Y-137702D01*
X770288Y-137951D01*
X770064Y-138227D01*
X769784Y-138531D01*
X769477Y-138834D01*
X769142Y-139110D01*
X769086Y-139137D01*
X768975Y-139220D01*
X768752Y-139357D01*
X768501Y-139494D01*
X768167Y-139686D01*
X767804Y-139851D01*
X767387Y-140014D01*
X766970Y-140150D01*
X766914Y-140150D01*
X766775Y-140205D01*
X766525Y-140259D01*
X766219Y-140312D01*
X765858Y-140365D01*
X765441Y-140418D01*
X764969Y-140443D01*
X764497Y-140467D01*
X762470Y-140454D01*
X762434Y-146006D01*
X762434Y-146034D01*
X762433Y-146090D01*
X762433Y-146173D01*
X762460Y-146284D01*
X762486Y-146534D01*
X762567Y-146812D01*
X762595Y-146868D01*
X762705Y-147008D01*
X762870Y-147175D01*
X763009Y-147232D01*
X763175Y-147316D01*
X763230Y-147317D01*
X763369Y-147373D01*
X763480Y-147401D01*
X763618Y-147430D01*
X763785Y-147459D01*
X763979Y-147488D01*
X764090Y-147489D01*
X764201Y-147517D01*
X764340Y-147518D01*
X764700Y-147548D01*
X765089Y-147578D01*
X765083Y-148495D01*
X757254Y-148443D01*
X757260Y-147527D01*
X757482Y-147529D01*
X757593Y-147502D01*
X757926Y-147504D01*
X758121Y-147477D01*
X758149Y-147478D01*
X758204Y-147450D01*
X758315Y-147451D01*
X758454Y-147424D01*
X758705Y-147370D01*
X758816Y-147315D01*
X758927Y-147288D01*
X758955Y-147289D01*
X758983Y-147261D01*
X759150Y-147179D01*
X759318Y-147013D01*
X759486Y-146820D01*
X759486Y-146792D01*
X759514Y-146765D01*
X759598Y-146599D01*
X759655Y-146321D01*
X759685Y-145988D01*
X759772Y-132802D01*
X759772Y-132774D01*
X759772Y-132718D01*
X759773Y-132635D01*
X759746Y-132524D01*
X759720Y-132274D01*
X759638Y-131996D01*
X759638Y-131968D01*
X759611Y-131940D01*
X759501Y-131800D01*
X759335Y-131605D01*
X759197Y-131549D01*
X759031Y-131464D01*
X759003Y-131464D01*
X758948Y-131436D01*
X758865Y-131408D01*
X758726Y-131379D01*
X758421Y-131294D01*
X758061Y-131208D01*
X758033Y-131208D01*
X757978Y-131180D01*
X757894Y-131179D01*
X757784Y-131151D01*
X757534Y-131121D01*
X757256Y-131092D01*
X757262Y-130176D01*
X765813Y-130232D01*
D02*
G37*
%LPC*%
G36*
X701028Y-146863D02*
X701032Y-146903D01*
Y-147058D01*
X701187Y-146903D01*
X701028Y-146863D01*
D02*
G37*
G36*
X755410Y-123902D02*
X755086D01*
X755012Y-123911D01*
X754837D01*
X754753Y-123921D01*
X754679D01*
Y-126149D01*
Y-126158D01*
Y-126195D01*
X754689Y-126241D01*
X754698Y-126306D01*
X754716Y-126371D01*
X754753Y-126445D01*
X754790Y-126509D01*
X754846Y-126565D01*
X754855Y-126574D01*
X754883Y-126583D01*
X754929Y-126602D01*
X754994Y-126629D01*
X755077Y-126657D01*
X755197Y-126676D01*
X755336Y-126685D01*
X755502Y-126694D01*
X755567D01*
X755613Y-126685D01*
X755659D01*
X755724Y-126676D01*
X755872Y-126648D01*
X756029Y-126602D01*
X756196Y-126528D01*
X756353Y-126435D01*
X756492Y-126306D01*
X756510Y-126287D01*
X756547Y-126232D01*
X756602Y-126139D01*
X756667Y-126019D01*
X756732Y-125862D01*
X756787Y-125668D01*
X756824Y-125437D01*
X756843Y-125178D01*
Y-125169D01*
Y-125150D01*
Y-125122D01*
X756834Y-125085D01*
X756824Y-124975D01*
X756797Y-124845D01*
X756750Y-124697D01*
X756676Y-124540D01*
X756575Y-124392D01*
X756519Y-124318D01*
X756445Y-124253D01*
X756427Y-124235D01*
X756371Y-124198D01*
X756288Y-124143D01*
X756168Y-124078D01*
X756020Y-124013D01*
X755844Y-123958D01*
X755641Y-123921D01*
X755410Y-123902D01*
D02*
G37*
G36*
X818331Y-131630D02*
X818331Y-131686D01*
X818330Y-131825D01*
X818328Y-132074D01*
X818298Y-132408D01*
X818296Y-132824D01*
X818264Y-133323D01*
X818233Y-133878D01*
X818174Y-134489D01*
X818114Y-135155D01*
X818026Y-135848D01*
X817910Y-136597D01*
X817794Y-137346D01*
X817506Y-138954D01*
X817107Y-140562D01*
X817106Y-140618D01*
X817050Y-140756D01*
X816993Y-140978D01*
X816880Y-141282D01*
X816766Y-141643D01*
X816625Y-142058D01*
X816483Y-142557D01*
X816285Y-143055D01*
X816087Y-143609D01*
X815861Y-144191D01*
X815353Y-145409D01*
X814790Y-146599D01*
X814481Y-147180D01*
X814145Y-147733D01*
X822251Y-147786D01*
X822362Y-147759D01*
X822473Y-147760D01*
X822779Y-147679D01*
X822918Y-147596D01*
X823030Y-147514D01*
X823058Y-147486D01*
X823086Y-147458D01*
X823198Y-147293D01*
X823254Y-147182D01*
X823283Y-147043D01*
X823340Y-146849D01*
X823341Y-146655D01*
X823439Y-131664D01*
X818331Y-131630D01*
D02*
G37*
G36*
X762530Y-131265D02*
X762477Y-139316D01*
X764004Y-139326D01*
X764255Y-139300D01*
X764588Y-139274D01*
X764949Y-139221D01*
X765310Y-139168D01*
X765700Y-139059D01*
X766034Y-138923D01*
X766062Y-138895D01*
X766173Y-138840D01*
X766340Y-138758D01*
X766535Y-138621D01*
X766731Y-138483D01*
X766954Y-138290D01*
X767150Y-138097D01*
X767346Y-137849D01*
X767374Y-137821D01*
X767402Y-137738D01*
X767486Y-137627D01*
X767570Y-137461D01*
X767683Y-137268D01*
X767767Y-137074D01*
X767909Y-136603D01*
X767909Y-136575D01*
X767938Y-136492D01*
X767966Y-136353D01*
X767995Y-136215D01*
X768053Y-135827D01*
X768083Y-135410D01*
X768084Y-135382D01*
X768084Y-135272D01*
X768085Y-135133D01*
X768059Y-134938D01*
X768033Y-134716D01*
X768006Y-134466D01*
X767899Y-133910D01*
X767899Y-133882D01*
X767872Y-133771D01*
X767818Y-133632D01*
X767763Y-133465D01*
X767599Y-133020D01*
X767325Y-132573D01*
X767297Y-132546D01*
X767242Y-132462D01*
X767159Y-132378D01*
X767021Y-132238D01*
X766856Y-132099D01*
X766635Y-131930D01*
X766414Y-131790D01*
X766137Y-131650D01*
X766109Y-131622D01*
X765999Y-131593D01*
X765860Y-131537D01*
X765639Y-131452D01*
X765389Y-131395D01*
X765084Y-131337D01*
X764723Y-131307D01*
X764335Y-131277D01*
X762530Y-131265D01*
D02*
G37*
%LPD*%
D10*
X23500Y-204000D02*
G03*
X23500Y-204000I-2000J0D01*
G01*
D11*
X141140Y-99740D02*
G03*
X141140Y-99740I-5000J0D01*
G01*
D12*
X786000Y-519250D02*
G03*
X786000Y-519250I-2000J0D01*
G01*
D13*
X895850Y-359540D02*
G03*
X895850Y-359540I-750J0D01*
G01*
X651500Y-468000D02*
X659500D01*
X651500Y-494500D02*
X659500D01*
X667750Y-445250D02*
X675750D01*
X667750Y-471750D02*
X675750D01*
X701250Y-255750D02*
X709250D01*
X701250Y-229250D02*
X709250D01*
X775250Y-327000D02*
X783250D01*
X775250Y-300500D02*
X783250D01*
X955000Y-277750D02*
X963000D01*
X955000Y-251250D02*
X963000D01*
X935500Y-251500D02*
X943500D01*
X935500Y-278000D02*
X943500D01*
X861499Y-326001D02*
Y-318001D01*
X887999Y-326001D02*
Y-318001D01*
X973749Y-364251D02*
Y-356251D01*
X947249Y-364251D02*
Y-356251D01*
X921499Y-281251D02*
Y-273251D01*
X894999Y-281251D02*
Y-273251D01*
X539249Y-359501D02*
Y-351501D01*
X565749Y-359501D02*
Y-351501D01*
X616501Y-173501D02*
X624501D01*
X616501Y-147001D02*
X624501D01*
X818999Y-228499D02*
X826999D01*
X818999Y-201999D02*
X826999D01*
X883750Y-382250D02*
Y-374250D01*
X857250Y-382250D02*
Y-374250D01*
X897000Y-399750D02*
X905000D01*
X897000Y-373250D02*
X905000D01*
X847251Y-136749D02*
Y-128749D01*
X873751Y-136749D02*
Y-128749D01*
X860750Y-278250D02*
X868750D01*
X860750Y-251750D02*
X868750D01*
X879001Y-252251D02*
X887001D01*
X879001Y-278751D02*
X887001D01*
X916751Y-373251D02*
X924751D01*
X916751Y-399751D02*
X924751D01*
X836501Y-202001D02*
X844501D01*
X836501Y-228501D02*
X844501D01*
X662249Y-248251D02*
Y-240251D01*
X635749Y-248251D02*
Y-240251D01*
D14*
X666377Y-189500D02*
G03*
X666377Y-189500I-10127J0D01*
G01*
X791627Y-364000D02*
G03*
X791627Y-364000I-10127J0D01*
G01*
X710627Y-437500D02*
G03*
X710627Y-437500I-10127J0D01*
G01*
X507127Y-448250D02*
G03*
X507127Y-448250I-10127J0D01*
G01*
X686424Y-65000D02*
G03*
X686422Y-65240I-19174J0D01*
G01*
X795000Y-59500D02*
Y-41500D01*
Y-59500D02*
X925000D01*
Y-41500D01*
X795000D02*
X925000D01*
X796000Y-483250D02*
Y-465250D01*
Y-483250D02*
X926000D01*
Y-465250D01*
X796000D02*
X926000D01*
X1072600Y-304850D02*
Y-221850D01*
X990600Y-304850D02*
X1072600D01*
X990600D02*
Y-221850D01*
X1072600D01*
X504500Y-161250D02*
Y-73250D01*
X607500Y-161250D02*
Y-73250D01*
X504500D02*
X539500D01*
X573500D02*
X607500D01*
X504500Y-161250D02*
X523500Y-180250D01*
X539500D01*
X588500D02*
X607500Y-161250D01*
X573500Y-180250D02*
X588500D01*
X611250Y-331000D02*
Y-243000D01*
X508250Y-331000D02*
Y-243000D01*
X576250Y-331000D02*
X611250D01*
X508250D02*
X542250D01*
X592250Y-224000D02*
X611250Y-243000D01*
X576250Y-224000D02*
X592250D01*
X508250Y-243000D02*
X527250Y-224000D01*
X542250D01*
X134500Y-2515D02*
Y-17750D01*
Y-10132D01*
X137039Y-7593D01*
X142118D01*
X144657Y-10132D01*
Y-17750D01*
X152274Y-5054D02*
Y-7593D01*
X149735D01*
X154813D01*
X152274D01*
Y-15211D01*
X154813Y-17750D01*
X164970Y-5054D02*
Y-7593D01*
X162431D01*
X167509D01*
X164970D01*
Y-15211D01*
X167509Y-17750D01*
X175127Y-22828D02*
Y-7593D01*
X182744D01*
X185284Y-10132D01*
Y-15211D01*
X182744Y-17750D01*
X175127D01*
X190362D02*
X197980D01*
X200519Y-15211D01*
X197980Y-12672D01*
X192901D01*
X190362Y-10132D01*
X192901Y-7593D01*
X200519D01*
X205597D02*
X208136D01*
Y-10132D01*
X205597D01*
Y-7593D01*
Y-15211D02*
X208136D01*
Y-17750D01*
X205597D01*
Y-15211D01*
X218293Y-17750D02*
X228450Y-7593D01*
X233528Y-17750D02*
X243685Y-7593D01*
X248763Y-22828D02*
Y-7593D01*
X256381D01*
X258920Y-10132D01*
Y-15211D01*
X256381Y-17750D01*
X248763D01*
X263998D02*
Y-2515D01*
Y-12672D02*
X271616Y-7593D01*
X263998Y-12672D02*
X271616Y-17750D01*
X279233Y-2515D02*
Y-17750D01*
X286851D01*
X289390Y-15211D01*
Y-12672D01*
Y-10132D01*
X286851Y-7593D01*
X279233D01*
X297007Y-5054D02*
Y-7593D01*
X294468D01*
X299547D01*
X297007D01*
Y-15211D01*
X299547Y-17750D01*
X307164Y-7593D02*
Y-17750D01*
Y-12672D01*
X309703Y-10132D01*
X312243Y-7593D01*
X314782D01*
X330017Y-17750D02*
X324938D01*
X322399Y-15211D01*
Y-10132D01*
X324938Y-7593D01*
X330017D01*
X332556Y-10132D01*
Y-12672D01*
X322399D01*
X337634Y-17750D02*
Y-7593D01*
X345252D01*
X347791Y-10132D01*
Y-17750D01*
X363026Y-2515D02*
Y-17750D01*
X355409D01*
X352869Y-15211D01*
Y-10132D01*
X355409Y-7593D01*
X363026D01*
X368104Y-17750D02*
Y-15211D01*
X370644D01*
Y-17750D01*
X368104D01*
X380800Y-7593D02*
Y-17750D01*
Y-12672D01*
X383340Y-10132D01*
X385879Y-7593D01*
X388418D01*
X396035D02*
Y-15211D01*
X398575Y-17750D01*
X406192D01*
Y-7593D01*
X196750Y-69750D02*
X201828D01*
X199289D01*
Y-54515D01*
X196750Y-57054D01*
X209446Y-67211D02*
X211985Y-69750D01*
X217063D01*
X219603Y-67211D01*
Y-57054D01*
X217063Y-54515D01*
X211985D01*
X209446Y-57054D01*
Y-59593D01*
X211985Y-62133D01*
X219603D01*
X224681Y-69750D02*
X234838Y-59593D01*
X239916Y-57054D02*
X242455Y-54515D01*
X247534D01*
X250073Y-57054D01*
Y-67211D01*
X247534Y-69750D01*
X242455D01*
X239916Y-67211D01*
Y-57054D01*
X265308Y-54515D02*
X255151D01*
Y-62133D01*
X260229Y-59593D01*
X262769D01*
X265308Y-62133D01*
Y-67211D01*
X262769Y-69750D01*
X257690D01*
X255151Y-67211D01*
X270386Y-69750D02*
X280543Y-59593D01*
X295778Y-69750D02*
X285621D01*
X295778Y-59593D01*
Y-57054D01*
X293239Y-54515D01*
X288160D01*
X285621Y-57054D01*
X300856D02*
X303396Y-54515D01*
X308474D01*
X311013Y-57054D01*
Y-67211D01*
X308474Y-69750D01*
X303396D01*
X300856Y-67211D01*
Y-57054D01*
X326248Y-69750D02*
X316091D01*
X326248Y-59593D01*
Y-57054D01*
X323709Y-54515D01*
X318631D01*
X316091Y-57054D01*
X331326D02*
X333866Y-54515D01*
X338944D01*
X341483Y-57054D01*
Y-67211D01*
X338944Y-69750D01*
X333866D01*
X331326Y-67211D01*
Y-57054D01*
X715000Y-445132D02*
X725157D01*
X740392Y-437515D02*
X730235D01*
Y-445132D01*
X735313Y-442593D01*
X737853D01*
X740392Y-445132D01*
Y-450211D01*
X737853Y-452750D01*
X732774D01*
X730235Y-450211D01*
X745470Y-437515D02*
Y-447672D01*
X750548Y-452750D01*
X755627Y-447672D01*
Y-437515D01*
X739500Y-387632D02*
X749657D01*
X744578Y-382554D02*
Y-392711D01*
X764892Y-380015D02*
X754735D01*
Y-387632D01*
X759813Y-385093D01*
X762353D01*
X764892Y-387632D01*
Y-392711D01*
X762353Y-395250D01*
X757274D01*
X754735Y-392711D01*
X769970Y-380015D02*
Y-390172D01*
X775049Y-395250D01*
X780127Y-390172D01*
Y-380015D01*
X676250Y-186383D02*
X686407D01*
X681328Y-181304D02*
Y-191461D01*
X701642Y-194000D02*
X691485D01*
X701642Y-183843D01*
Y-181304D01*
X699103Y-178765D01*
X694024D01*
X691485Y-181304D01*
X706720D02*
X709259Y-178765D01*
X714338D01*
X716877Y-181304D01*
Y-183843D01*
X714338Y-186383D01*
X716877Y-188922D01*
Y-191461D01*
X714338Y-194000D01*
X709259D01*
X706720Y-191461D01*
Y-188922D01*
X709259Y-186383D01*
X706720Y-183843D01*
Y-181304D01*
X709259Y-186383D02*
X714338D01*
X721955Y-178765D02*
Y-188922D01*
X727034Y-194000D01*
X732112Y-188922D01*
Y-178765D01*
X443250Y-422632D02*
X453407D01*
X468642Y-430250D02*
X458485D01*
X468642Y-420093D01*
Y-417554D01*
X466103Y-415015D01*
X461024D01*
X458485Y-417554D01*
X473720D02*
X476259Y-415015D01*
X481338D01*
X483877Y-417554D01*
Y-420093D01*
X481338Y-422632D01*
X483877Y-425172D01*
Y-427711D01*
X481338Y-430250D01*
X476259D01*
X473720Y-427711D01*
Y-425172D01*
X476259Y-422632D01*
X473720Y-420093D01*
Y-417554D01*
X476259Y-422632D02*
X481338D01*
X488955Y-415015D02*
Y-425172D01*
X494034Y-430250D01*
X499112Y-425172D01*
Y-415015D01*
X657157Y-24804D02*
X654617Y-22265D01*
X649539D01*
X647000Y-24804D01*
Y-34961D01*
X649539Y-37500D01*
X654617D01*
X657157Y-34961D01*
Y-29883D01*
X652078D01*
X662235Y-37500D02*
Y-22265D01*
X672392Y-37500D01*
Y-22265D01*
X677470D02*
Y-37500D01*
X685088D01*
X687627Y-34961D01*
Y-24804D01*
X685088Y-22265D01*
X677470D01*
X114370Y-53793D02*
X124527D01*
X119448D01*
Y-69028D01*
X129605D02*
X134683D01*
X132144D01*
Y-53793D01*
X129605Y-56332D01*
X3518Y-186862D02*
Y-171627D01*
X11135D01*
X13675Y-174166D01*
Y-179244D01*
X11135Y-181784D01*
X3518D01*
X28910Y-186862D02*
X18753D01*
X28910Y-176705D01*
Y-174166D01*
X26371Y-171627D01*
X21292D01*
X18753Y-174166D01*
X667500Y-505000D02*
Y-489765D01*
X675117D01*
X677657Y-492304D01*
Y-497383D01*
X675117Y-499922D01*
X667500D01*
X672578D02*
X677657Y-505000D01*
X682735Y-489765D02*
X692892D01*
Y-492304D01*
X682735Y-502461D01*
Y-505000D01*
X687000Y-475750D02*
Y-460515D01*
X694617D01*
X697157Y-463054D01*
Y-468133D01*
X694617Y-470672D01*
X687000D01*
X692078D02*
X697157Y-475750D01*
X712392Y-460515D02*
X707313Y-463054D01*
X702235Y-468133D01*
Y-473211D01*
X704774Y-475750D01*
X709853D01*
X712392Y-473211D01*
Y-470672D01*
X709853Y-468133D01*
X702235D01*
X716000Y-235000D02*
Y-219765D01*
X723617D01*
X726157Y-222304D01*
Y-227383D01*
X723617Y-229922D01*
X716000D01*
X721078D02*
X726157Y-235000D01*
X738853D02*
Y-219765D01*
X731235Y-227383D01*
X741392D01*
X790500Y-320750D02*
Y-305515D01*
X798118D01*
X800657Y-308054D01*
Y-313132D01*
X798118Y-315672D01*
X790500D01*
X795578D02*
X800657Y-320750D01*
X815892D02*
X805735D01*
X815892Y-310593D01*
Y-308054D01*
X813353Y-305515D01*
X808274D01*
X805735Y-308054D01*
X950750Y-300500D02*
Y-285265D01*
X958367D01*
X960907Y-287804D01*
Y-292882D01*
X958367Y-295422D01*
X950750D01*
X955828D02*
X960907Y-300500D01*
X965985D02*
X971063D01*
X968524D01*
Y-285265D01*
X965985Y-287804D01*
X978681Y-300500D02*
X983759D01*
X981220D01*
Y-285265D01*
X978681Y-287804D01*
X520000Y-487015D02*
Y-499711D01*
X522539Y-502250D01*
X527617D01*
X530157Y-499711D01*
Y-487015D01*
X535235Y-489554D02*
X537774Y-487015D01*
X542853D01*
X545392Y-489554D01*
Y-492093D01*
X542853Y-494632D01*
X540313D01*
X542853D01*
X545392Y-497172D01*
Y-499711D01*
X542853Y-502250D01*
X537774D01*
X535235Y-499711D01*
X671250Y-234015D02*
Y-246711D01*
X673789Y-249250D01*
X678867D01*
X681407Y-246711D01*
Y-234015D01*
X686485Y-249250D02*
X691563D01*
X689024D01*
Y-234015D01*
X686485Y-236554D01*
X415371Y-109474D02*
Y-124709D01*
X422989D01*
X425528Y-122170D01*
Y-112013D01*
X422989Y-109474D01*
X415371D01*
X430606Y-112013D02*
X433145Y-109474D01*
X438224D01*
X440763Y-112013D01*
Y-114552D01*
X438224Y-117092D01*
X435684D01*
X438224D01*
X440763Y-119631D01*
Y-122170D01*
X438224Y-124709D01*
X433145D01*
X430606Y-122170D01*
X737000Y-514000D02*
Y-498765D01*
X744617D01*
X747157Y-501304D01*
Y-506382D01*
X744617Y-508922D01*
X737000D01*
X742078D02*
X747157Y-514000D01*
X762392Y-498765D02*
X752235D01*
Y-506382D01*
X757313Y-503843D01*
X759853D01*
X762392Y-506382D01*
Y-511461D01*
X759853Y-514000D01*
X754774D01*
X752235Y-511461D01*
X627157Y-381304D02*
X624618Y-378765D01*
X619539D01*
X617000Y-381304D01*
Y-391461D01*
X619539Y-394000D01*
X624618D01*
X627157Y-391461D01*
X632235Y-381304D02*
X634774Y-378765D01*
X639853D01*
X642392Y-381304D01*
Y-383843D01*
X639853Y-386382D01*
X642392Y-388922D01*
Y-391461D01*
X639853Y-394000D01*
X634774D01*
X632235Y-391461D01*
Y-388922D01*
X634774Y-386382D01*
X632235Y-383843D01*
Y-381304D01*
X634774Y-386382D02*
X639853D01*
X496907Y-384804D02*
X494367Y-382265D01*
X489289D01*
X486750Y-384804D01*
Y-394961D01*
X489289Y-397500D01*
X494367D01*
X496907Y-394961D01*
X501985Y-382265D02*
X512142D01*
Y-384804D01*
X501985Y-394961D01*
Y-397500D01*
X739907Y-255054D02*
X737367Y-252515D01*
X732289D01*
X729750Y-255054D01*
Y-265211D01*
X732289Y-267750D01*
X737367D01*
X739907Y-265211D01*
X755142Y-267750D02*
X744985D01*
X755142Y-257593D01*
Y-255054D01*
X752603Y-252515D01*
X747524D01*
X744985Y-255054D01*
X742500Y-25500D02*
Y-10265D01*
X750117D01*
X752657Y-12804D01*
Y-17882D01*
X750117Y-20422D01*
X742500D01*
X747578D02*
X752657Y-25500D01*
X757735Y-12804D02*
X760274Y-10265D01*
X765353D01*
X767892Y-12804D01*
Y-15343D01*
X765353Y-17882D01*
X767892Y-20422D01*
Y-22961D01*
X765353Y-25500D01*
X760274D01*
X757735Y-22961D01*
Y-20422D01*
X760274Y-17882D01*
X757735Y-15343D01*
Y-12804D01*
X760274Y-17882D02*
X765353D01*
X931750Y-242000D02*
Y-226765D01*
X939368D01*
X941907Y-229304D01*
Y-234382D01*
X939368Y-236922D01*
X931750D01*
X936828D02*
X941907Y-242000D01*
X946985D02*
X952063D01*
X949524D01*
Y-226765D01*
X946985Y-229304D01*
X959681D02*
X962220Y-226765D01*
X967299D01*
X969838Y-229304D01*
Y-239461D01*
X967299Y-242000D01*
X962220D01*
X959681Y-239461D01*
Y-229304D01*
X829500Y-339515D02*
Y-354750D01*
X837117D01*
X839657Y-352211D01*
Y-342054D01*
X837117Y-339515D01*
X829500D01*
X844735Y-354750D02*
X849813D01*
X847274D01*
Y-339515D01*
X844735Y-342054D01*
X983157Y-373804D02*
X980618Y-371265D01*
X975539D01*
X973000Y-373804D01*
Y-383961D01*
X975539Y-386500D01*
X980618D01*
X983157Y-383961D01*
X995853Y-386500D02*
Y-371265D01*
X988235Y-378882D01*
X998392D01*
X906907Y-236804D02*
X904368Y-234265D01*
X899289D01*
X896750Y-236804D01*
Y-246961D01*
X899289Y-249500D01*
X904368D01*
X906907Y-246961D01*
X911985Y-249500D02*
X917063D01*
X914524D01*
Y-234265D01*
X911985Y-236804D01*
X504407Y-204304D02*
X501867Y-201765D01*
X496789D01*
X494250Y-204304D01*
Y-214461D01*
X496789Y-217000D01*
X501867D01*
X504407Y-214461D01*
X509485Y-217000D02*
X514563D01*
X512024D01*
Y-201765D01*
X509485Y-204304D01*
X529799Y-217000D02*
Y-201765D01*
X522181Y-209382D01*
X532338D01*
X492657Y-52804D02*
X490117Y-50265D01*
X485039D01*
X482500Y-52804D01*
Y-62961D01*
X485039Y-65500D01*
X490117D01*
X492657Y-62961D01*
X497735Y-65500D02*
X502813D01*
X500274D01*
Y-50265D01*
X497735Y-52804D01*
X510431D02*
X512970Y-50265D01*
X518049D01*
X520588Y-52804D01*
Y-55343D01*
X518049Y-57882D01*
X515509D01*
X518049D01*
X520588Y-60422D01*
Y-62961D01*
X518049Y-65500D01*
X512970D01*
X510431Y-62961D01*
X1022350Y-202600D02*
Y-187365D01*
X1029967D01*
X1032507Y-189904D01*
Y-194982D01*
X1029967Y-197522D01*
X1022350D01*
X1037585Y-202600D02*
X1042663D01*
X1040124D01*
Y-187365D01*
X1037585Y-189904D01*
X951000Y-319765D02*
Y-332461D01*
X953539Y-335000D01*
X958617D01*
X961157Y-332461D01*
Y-319765D01*
X976392Y-335000D02*
X966235D01*
X976392Y-324843D01*
Y-322304D01*
X973853Y-319765D01*
X968774D01*
X966235Y-322304D01*
X786000Y-265750D02*
Y-250515D01*
X793617D01*
X796157Y-253054D01*
Y-258132D01*
X793617Y-260672D01*
X786000D01*
X791078D02*
X796157Y-265750D01*
X801235Y-263211D02*
X803774Y-265750D01*
X808853D01*
X811392Y-263211D01*
Y-253054D01*
X808853Y-250515D01*
X803774D01*
X801235Y-253054D01*
Y-255593D01*
X803774Y-258132D01*
X811392D01*
X863500Y-410000D02*
Y-394765D01*
X871117D01*
X873657Y-397304D01*
Y-402383D01*
X871117Y-404922D01*
X863500D01*
X868578D02*
X873657Y-410000D01*
X878735Y-397304D02*
X881274Y-394765D01*
X886353D01*
X888892Y-397304D01*
Y-399843D01*
X886353Y-402383D01*
X883813D01*
X886353D01*
X888892Y-404922D01*
Y-407461D01*
X886353Y-410000D01*
X881274D01*
X878735Y-407461D01*
X831750Y-384750D02*
Y-369515D01*
X839368D01*
X841907Y-372054D01*
Y-377132D01*
X839368Y-379672D01*
X831750D01*
X836828D02*
X841907Y-384750D01*
X846985D02*
X852063D01*
X849524D01*
Y-369515D01*
X846985Y-372054D01*
X914750Y-183515D02*
Y-198750D01*
X922367D01*
X924907Y-196211D01*
Y-186054D01*
X922367Y-183515D01*
X914750D01*
X940142Y-198750D02*
X929985D01*
X940142Y-188593D01*
Y-186054D01*
X937603Y-183515D01*
X932524D01*
X929985Y-186054D01*
X499657Y-350804D02*
X497118Y-348265D01*
X492039D01*
X489500Y-350804D01*
Y-360961D01*
X492039Y-363500D01*
X497118D01*
X499657Y-360961D01*
X504735Y-363500D02*
X509813D01*
X507274D01*
Y-348265D01*
X504735Y-350804D01*
X527588Y-348265D02*
X522509Y-350804D01*
X517431Y-355882D01*
Y-360961D01*
X519970Y-363500D01*
X525048D01*
X527588Y-360961D01*
Y-358422D01*
X525048Y-355882D01*
X517431D01*
X642907Y-140304D02*
X640368Y-137765D01*
X635289D01*
X632750Y-140304D01*
Y-150461D01*
X635289Y-153000D01*
X640368D01*
X642907Y-150461D01*
X647985Y-153000D02*
X653063D01*
X650524D01*
Y-137765D01*
X647985Y-140304D01*
X670838Y-137765D02*
X660681D01*
Y-145382D01*
X665759Y-142843D01*
X668298D01*
X670838Y-145382D01*
Y-150461D01*
X668298Y-153000D01*
X663220D01*
X660681Y-150461D01*
X825407Y-175054D02*
X822868Y-172515D01*
X817789D01*
X815250Y-175054D01*
Y-185211D01*
X817789Y-187750D01*
X822868D01*
X825407Y-185211D01*
X830485Y-187750D02*
X835563D01*
X833024D01*
Y-172515D01*
X830485Y-175054D01*
X853338Y-187750D02*
X843181D01*
X853338Y-177593D01*
Y-175054D01*
X850798Y-172515D01*
X845720D01*
X843181Y-175054D01*
X831157Y-253054D02*
X828617Y-250515D01*
X823539D01*
X821000Y-253054D01*
Y-263211D01*
X823539Y-265750D01*
X828617D01*
X831157Y-263211D01*
X836235Y-265750D02*
X841313D01*
X838774D01*
Y-250515D01*
X836235Y-253054D01*
X848931Y-265750D02*
X854009D01*
X851470D01*
Y-250515D01*
X848931Y-253054D01*
X895407Y-126054D02*
X892868Y-123515D01*
X887789D01*
X885250Y-126054D01*
Y-136211D01*
X887789Y-138750D01*
X892868D01*
X895407Y-136211D01*
X900485Y-138750D02*
X905563D01*
X903024D01*
Y-123515D01*
X900485Y-126054D01*
X913181D02*
X915720Y-123515D01*
X920798D01*
X923338Y-126054D01*
Y-136211D01*
X920798Y-138750D01*
X915720D01*
X913181Y-136211D01*
Y-126054D01*
X796157Y-209804D02*
X793617Y-207265D01*
X788539D01*
X786000Y-209804D01*
Y-219961D01*
X788539Y-222500D01*
X793617D01*
X796157Y-219961D01*
X801235D02*
X803774Y-222500D01*
X808853D01*
X811392Y-219961D01*
Y-209804D01*
X808853Y-207265D01*
X803774D01*
X801235Y-209804D01*
Y-212343D01*
X803774Y-214883D01*
X811392D01*
X943907Y-398554D02*
X941367Y-396015D01*
X936289D01*
X933750Y-398554D01*
Y-408711D01*
X936289Y-411250D01*
X941367D01*
X943907Y-408711D01*
X959142Y-396015D02*
X954063Y-398554D01*
X948985Y-403633D01*
Y-408711D01*
X951524Y-411250D01*
X956603D01*
X959142Y-408711D01*
Y-406172D01*
X956603Y-403633D01*
X948985D01*
X872157Y-298054D02*
X869617Y-295515D01*
X864539D01*
X862000Y-298054D01*
Y-308211D01*
X864539Y-310750D01*
X869617D01*
X872157Y-308211D01*
X887392Y-295515D02*
X877235D01*
Y-303132D01*
X882313Y-300593D01*
X884853D01*
X887392Y-303132D01*
Y-308211D01*
X884853Y-310750D01*
X879774D01*
X877235Y-308211D01*
X647607Y-216990D02*
X645068Y-214451D01*
X639989D01*
X637450Y-216990D01*
Y-227147D01*
X639989Y-229686D01*
X645068D01*
X647607Y-227147D01*
X652685Y-216990D02*
X655224Y-214451D01*
X660303D01*
X662842Y-216990D01*
Y-219529D01*
X660303Y-222069D01*
X657763D01*
X660303D01*
X662842Y-224608D01*
Y-227147D01*
X660303Y-229686D01*
X655224D01*
X652685Y-227147D01*
D15*
X866250Y-332750D02*
G03*
X866250Y-332750I-1250J0D01*
G01*
D16*
X862450Y-237250D02*
G03*
X862450Y-237250I-1000J0D01*
G01*
D17*
X649500Y-468250D02*
X651500D01*
X649500Y-479250D02*
Y-468250D01*
X661500Y-479250D02*
Y-468250D01*
X659500D02*
X661500D01*
X659500Y-494250D02*
X661500D01*
Y-483250D01*
X649500Y-494250D02*
Y-483250D01*
Y-494250D02*
X651500D01*
X665750Y-445500D02*
X667750D01*
X665750Y-456500D02*
Y-445500D01*
X677750Y-456500D02*
Y-445500D01*
X675750D02*
X677750D01*
X675750Y-471500D02*
X677750D01*
Y-460500D01*
X665750Y-471500D02*
Y-460500D01*
Y-471500D02*
X667750D01*
X709250Y-255500D02*
X711250D01*
Y-244500D01*
X699250Y-255500D02*
Y-244500D01*
Y-255500D02*
X701250D01*
X699250Y-229500D02*
X701250D01*
X699250Y-240500D02*
Y-229500D01*
X711250Y-240500D02*
Y-229500D01*
X709250D02*
X711250D01*
X783250Y-326750D02*
X785250D01*
Y-315750D01*
X773250Y-326750D02*
Y-315750D01*
Y-326750D02*
X775250D01*
X773250Y-300750D02*
X775250D01*
X773250Y-311750D02*
Y-300750D01*
X785250Y-311750D02*
Y-300750D01*
X783250D02*
X785250D01*
X531400Y-484610D02*
Y-481610D01*
Y-419610D02*
Y-416610D01*
X592400D01*
Y-417610D02*
Y-416610D01*
X531400Y-484610D02*
X592400D01*
Y-416610D01*
X648195Y-298300D02*
X716195D01*
Y-359300D02*
Y-298300D01*
X648195D02*
X649195D01*
X648195Y-359300D02*
Y-298300D01*
Y-359300D02*
X651195D01*
X713195D02*
X716195D01*
X953000Y-277500D02*
X955000D01*
X953000D02*
Y-266500D01*
X965000Y-277500D02*
Y-266500D01*
X963000Y-277500D02*
X965000D01*
X963000Y-251500D02*
X965000D01*
Y-262500D02*
Y-251500D01*
X953000Y-262500D02*
Y-251500D01*
X955000D01*
X413750Y-133250D02*
X482250D01*
X413750Y-138250D02*
X482250D01*
X413750Y-137250D02*
X482250D01*
X413750Y-136250D02*
X482250D01*
X413750Y-135250D02*
X482250D01*
X413750Y-134250D02*
X482250D01*
X413750Y-365250D02*
Y-133250D01*
Y-365250D02*
X482250D01*
Y-133250D01*
X756250Y-327250D02*
X762250Y-321250D01*
Y-284250D01*
X750250Y-327250D02*
X756250D01*
X749250Y-284250D02*
X762250D01*
X722250D02*
X735250D01*
X722250Y-321250D02*
Y-284250D01*
Y-321250D02*
X728250Y-327250D01*
X734250D01*
X533000Y-402000D02*
X539000Y-408000D01*
X576000D01*
X533000Y-402000D02*
Y-396000D01*
X576000Y-408000D02*
Y-395000D01*
Y-381000D02*
Y-368000D01*
X539000D02*
X576000D01*
X533000Y-374000D02*
X539000Y-368000D01*
X533000Y-380000D02*
Y-374000D01*
X645000Y-400250D02*
X651000Y-394250D01*
X645000Y-437250D02*
Y-400250D01*
X651000Y-394250D02*
X657000D01*
X645000Y-437250D02*
X658000D01*
X672000D02*
X685000D01*
Y-400250D01*
X679000Y-394250D02*
X685000Y-400250D01*
X673000Y-394250D02*
X679000D01*
X933500Y-251750D02*
X935500D01*
X933500Y-262750D02*
Y-251750D01*
X945500Y-262750D02*
Y-251750D01*
X943500D02*
X945500D01*
X943500Y-277750D02*
X945500D01*
Y-266750D01*
X933500Y-277750D02*
Y-266750D01*
Y-277750D02*
X935500D01*
X875000Y-335750D02*
X881000D01*
Y-343750D02*
Y-335750D01*
X875000Y-365750D02*
X881000D01*
Y-357750D01*
X861749Y-318001D02*
Y-316001D01*
X872749D01*
X861749Y-328001D02*
X872749D01*
X861749D02*
Y-326001D01*
X887749Y-328001D02*
Y-326001D01*
X876749Y-328001D02*
X887749D01*
X876749Y-316001D02*
X887749D01*
Y-318001D02*
Y-316001D01*
X973499Y-356251D02*
Y-354251D01*
X962499D02*
X973499D01*
X962499Y-366251D02*
X973499D01*
Y-364251D01*
X947499Y-366251D02*
Y-364251D01*
Y-366251D02*
X958499D01*
X947499Y-354251D02*
X958499D01*
X947499Y-356251D02*
Y-354251D01*
X921249Y-273251D02*
Y-271251D01*
X910249D02*
X921249D01*
X910249Y-283251D02*
X921249D01*
Y-281251D01*
X895249Y-283251D02*
Y-281251D01*
Y-283251D02*
X906249D01*
X895249Y-271251D02*
X906249D01*
X895249Y-273251D02*
Y-271251D01*
X539499Y-351501D02*
Y-349501D01*
X550499D01*
X539499Y-361501D02*
X550499D01*
X539499D02*
Y-359501D01*
X565499Y-361501D02*
Y-359501D01*
X554499Y-361501D02*
X565499D01*
X554499Y-349501D02*
X565499D01*
Y-351501D02*
Y-349501D01*
X614501Y-173251D02*
X616501D01*
X614501D02*
Y-162251D01*
X626501Y-173251D02*
Y-162251D01*
X624501Y-173251D02*
X626501D01*
X624501Y-147251D02*
X626501D01*
Y-158251D02*
Y-147251D01*
X614501Y-158251D02*
Y-147251D01*
X616501D01*
X826999Y-228249D02*
X828999D01*
Y-217249D01*
X816999Y-228249D02*
Y-217249D01*
Y-228249D02*
X818999D01*
X816999Y-202249D02*
X818999D01*
X816999Y-213249D02*
Y-202249D01*
X828999Y-213249D02*
Y-202249D01*
X826999D02*
X828999D01*
X883500Y-384250D02*
Y-382250D01*
X872500Y-384250D02*
X883500D01*
X872500Y-372250D02*
X883500D01*
Y-374250D02*
Y-372250D01*
X857500Y-374250D02*
Y-372250D01*
X868500D01*
X857500Y-384250D02*
X868500D01*
X857500D02*
Y-382250D01*
X895000Y-399500D02*
X897000D01*
X895000D02*
Y-388500D01*
X907000Y-399500D02*
Y-388500D01*
X905000Y-399500D02*
X907000D01*
X905000Y-373500D02*
X907000D01*
Y-384500D02*
Y-373500D01*
X895000Y-384500D02*
Y-373500D01*
X897000D01*
X847501Y-138749D02*
Y-136749D01*
Y-138749D02*
X858501D01*
X847501Y-126749D02*
X858501D01*
X847501Y-128749D02*
Y-126749D01*
X873501Y-128749D02*
Y-126749D01*
X862501D02*
X873501D01*
X862501Y-138749D02*
X873501D01*
Y-136749D01*
X858750Y-278000D02*
X860750D01*
X858750D02*
Y-267000D01*
X870750Y-278000D02*
Y-267000D01*
X868750Y-278000D02*
X870750D01*
X868750Y-252000D02*
X870750D01*
Y-263000D02*
Y-252000D01*
X858750Y-263000D02*
Y-252000D01*
X860750D01*
X877001Y-252501D02*
X879001D01*
X877001Y-263501D02*
Y-252501D01*
X889001Y-263501D02*
Y-252501D01*
X887001D02*
X889001D01*
X887001Y-278501D02*
X889001D01*
Y-267501D01*
X877001Y-278501D02*
Y-267501D01*
Y-278501D02*
X879001D01*
X914751Y-373501D02*
X916751D01*
X914751Y-384501D02*
Y-373501D01*
X926751Y-384501D02*
Y-373501D01*
X924751D02*
X926751D01*
X924751Y-399501D02*
X926751D01*
Y-388501D01*
X914751Y-399501D02*
Y-388501D01*
Y-399501D02*
X916751D01*
X834501Y-202251D02*
X836501D01*
X834501Y-213251D02*
Y-202251D01*
X846501Y-213251D02*
Y-202251D01*
X844501D02*
X846501D01*
X844501Y-228251D02*
X846501D01*
Y-217251D01*
X834501Y-228251D02*
Y-217251D01*
Y-228251D02*
X836501D01*
X661999Y-240251D02*
Y-238251D01*
X650999D02*
X661999D01*
X650999Y-250251D02*
X661999D01*
Y-248251D01*
X635999Y-250251D02*
Y-248251D01*
Y-250251D02*
X646999D01*
X635999Y-238251D02*
X646999D01*
X635999Y-240251D02*
Y-238251D01*
D18*
X172970Y-359410D02*
Y-126410D01*
X330450D02*
X336800D01*
Y-360090D02*
Y-126410D01*
X172970Y-359250D02*
X336800Y-360090D01*
X172970Y-126410D02*
X335970D01*
X192407Y-30554D02*
X189867Y-28015D01*
X184789D01*
X182250Y-30554D01*
Y-33093D01*
X184789Y-35633D01*
X189867D01*
X192407Y-38172D01*
Y-40711D01*
X189867Y-43250D01*
X184789D01*
X182250Y-40711D01*
X197485Y-28015D02*
Y-43250D01*
X202563Y-38172D01*
X207642Y-43250D01*
Y-28015D01*
X222877Y-30554D02*
X220338Y-28015D01*
X215259D01*
X212720Y-30554D01*
Y-40711D01*
X215259Y-43250D01*
X220338D01*
X222877Y-40711D01*
Y-35633D01*
X217799D01*
X243190Y-33093D02*
Y-43250D01*
Y-38172D01*
X245730Y-35633D01*
X248269Y-33093D01*
X250808D01*
X266043Y-43250D02*
X260965D01*
X258425Y-40711D01*
Y-35633D01*
X260965Y-33093D01*
X266043D01*
X268582Y-35633D01*
Y-38172D01*
X258425D01*
X273660Y-33093D02*
X278739Y-43250D01*
X283817Y-33093D01*
X288895Y-43250D02*
Y-40711D01*
X291435D01*
Y-43250D01*
X288895D01*
X316826D02*
X321905D01*
X319366D01*
Y-28015D01*
X316826Y-30554D01*
X329522Y-43250D02*
Y-40711D01*
X332062D01*
Y-43250D01*
X329522D01*
X342218Y-30554D02*
X344757Y-28015D01*
X349836D01*
X352375Y-30554D01*
Y-40711D01*
X349836Y-43250D01*
X344757D01*
X342218Y-40711D01*
Y-30554D01*
D19*
X896650Y-359250D02*
Y-345250D01*
X945500D02*
Y-305250D01*
X895500Y-345250D02*
Y-305250D01*
D20*
X294338Y-413230D02*
X326342D01*
X330914D02*
X340058D01*
X344630D02*
X358346D01*
X376634D02*
X408638D01*
X294338Y-413992D02*
X326342D01*
X330914D02*
X340058D01*
X344630D02*
X358346D01*
X376634D02*
X408638D01*
X294338Y-414754D02*
X326342D01*
X330914D02*
X340058D01*
X344630D02*
X358346D01*
X376634D02*
X408638D01*
X294338Y-415516D02*
X326342D01*
X330914D02*
X340058D01*
X344630D02*
X358346D01*
X376634D02*
X408638D01*
X294338Y-416278D02*
X326342D01*
X330914D02*
X340058D01*
X344630D02*
X358346D01*
X376634D02*
X408638D01*
X294338Y-417040D02*
X326342D01*
X330914D02*
X340058D01*
X344630D02*
X358346D01*
X376634D02*
X408638D01*
X294338Y-417802D02*
X298910D01*
X321770D02*
X326342D01*
X330914D02*
X340058D01*
X344630D02*
X349202D01*
X358346D02*
X362918D01*
X376634D02*
X381206D01*
X404066D02*
X408638D01*
X294338Y-418564D02*
X298910D01*
X321770D02*
X326342D01*
X330914D02*
X340058D01*
X344630D02*
X349202D01*
X358346D02*
X362918D01*
X376634D02*
X381206D01*
X404066D02*
X408638D01*
X294338Y-419326D02*
X298910D01*
X321770D02*
X326342D01*
X330914D02*
X340058D01*
X344630D02*
X349202D01*
X358346D02*
X362918D01*
X376634D02*
X381206D01*
X404066D02*
X408638D01*
X294338Y-420088D02*
X298910D01*
X321770D02*
X326342D01*
X330914D02*
X340058D01*
X344630D02*
X349202D01*
X358346D02*
X362918D01*
X376634D02*
X381206D01*
X404066D02*
X408638D01*
X294338Y-420850D02*
X298910D01*
X321770D02*
X326342D01*
X330914D02*
X340058D01*
X344630D02*
X349202D01*
X358346D02*
X362918D01*
X376634D02*
X381206D01*
X404066D02*
X408638D01*
X294338Y-421612D02*
X298910D01*
X321770D02*
X326342D01*
X330914D02*
X340058D01*
X344630D02*
X349202D01*
X358346D02*
X362918D01*
X376634D02*
X381206D01*
X404066D02*
X408638D01*
X294338Y-422374D02*
X298910D01*
X303482D02*
X317198D01*
X321770D02*
X326342D01*
X330914D02*
X335486D01*
X344630D02*
X358346D01*
X376634D02*
X381206D01*
X385778D02*
X399494D01*
X404066D02*
X408638D01*
X294338Y-423136D02*
X298910D01*
X303482D02*
X317198D01*
X321770D02*
X326342D01*
X330914D02*
X335486D01*
X344630D02*
X358346D01*
X376634D02*
X381206D01*
X385778D02*
X399494D01*
X404066D02*
X408638D01*
X294338Y-423898D02*
X298910D01*
X303482D02*
X317198D01*
X321770D02*
X326342D01*
X330914D02*
X335486D01*
X344630D02*
X358346D01*
X376634D02*
X381206D01*
X385778D02*
X399494D01*
X404066D02*
X408638D01*
X294338Y-424660D02*
X298910D01*
X303482D02*
X317198D01*
X321770D02*
X326342D01*
X330914D02*
X335486D01*
X344630D02*
X358346D01*
X376634D02*
X381206D01*
X385778D02*
X399494D01*
X404066D02*
X408638D01*
X294338Y-425422D02*
X298910D01*
X303482D02*
X317198D01*
X321770D02*
X326342D01*
X330914D02*
X335486D01*
X344630D02*
X358346D01*
X376634D02*
X381206D01*
X385778D02*
X399494D01*
X404066D02*
X408638D01*
X294338Y-426184D02*
X298910D01*
X303482D02*
X317198D01*
X321770D02*
X326342D01*
X330914D02*
X335486D01*
X344630D02*
X358346D01*
X376634D02*
X381206D01*
X385778D02*
X399494D01*
X404066D02*
X408638D01*
X294338Y-426946D02*
X298910D01*
X303482D02*
X317198D01*
X321770D02*
X326342D01*
X340058D02*
X349202D01*
X353774D02*
X358346D01*
X362918D02*
X372062D01*
X376634D02*
X381206D01*
X385778D02*
X399494D01*
X404066D02*
X408638D01*
X294338Y-427708D02*
X298910D01*
X303482D02*
X317198D01*
X321770D02*
X326342D01*
X340058D02*
X349202D01*
X353774D02*
X358346D01*
X362918D02*
X372062D01*
X376634D02*
X381206D01*
X385778D02*
X399494D01*
X404066D02*
X408638D01*
X294338Y-428470D02*
X298910D01*
X303482D02*
X317198D01*
X321770D02*
X326342D01*
X340058D02*
X349202D01*
X353774D02*
X358346D01*
X362918D02*
X372062D01*
X376634D02*
X381206D01*
X385778D02*
X399494D01*
X404066D02*
X408638D01*
X294338Y-429232D02*
X298910D01*
X303482D02*
X317198D01*
X321770D02*
X326342D01*
X340058D02*
X349202D01*
X353774D02*
X358346D01*
X362918D02*
X372062D01*
X376634D02*
X381206D01*
X385778D02*
X399494D01*
X404066D02*
X408638D01*
X294338Y-429994D02*
X298910D01*
X303482D02*
X317198D01*
X321770D02*
X326342D01*
X340058D02*
X349202D01*
X353774D02*
X358346D01*
X362918D02*
X372062D01*
X376634D02*
X381206D01*
X385778D02*
X399494D01*
X404066D02*
X408638D01*
X294338Y-430756D02*
X298910D01*
X303482D02*
X317198D01*
X321770D02*
X326342D01*
X340058D02*
X349202D01*
X353774D02*
X358346D01*
X362918D02*
X372062D01*
X376634D02*
X381206D01*
X385778D02*
X399494D01*
X404066D02*
X408638D01*
X294338Y-431518D02*
X298910D01*
X303482D02*
X317198D01*
X321770D02*
X326342D01*
X330914D02*
X335486D01*
X340058D02*
X344630D01*
X376634D02*
X381206D01*
X385778D02*
X399494D01*
X404066D02*
X408638D01*
X294338Y-432280D02*
X298910D01*
X303482D02*
X317198D01*
X321770D02*
X326342D01*
X330914D02*
X335486D01*
X340058D02*
X344630D01*
X376634D02*
X381206D01*
X385778D02*
X399494D01*
X404066D02*
X408638D01*
X294338Y-433042D02*
X298910D01*
X303482D02*
X317198D01*
X321770D02*
X326342D01*
X330914D02*
X335486D01*
X340058D02*
X344630D01*
X376634D02*
X381206D01*
X385778D02*
X399494D01*
X404066D02*
X408638D01*
X294338Y-433804D02*
X298910D01*
X303482D02*
X317198D01*
X321770D02*
X326342D01*
X330914D02*
X335486D01*
X340058D02*
X344630D01*
X376634D02*
X381206D01*
X385778D02*
X399494D01*
X404066D02*
X408638D01*
X294338Y-434566D02*
X298910D01*
X303482D02*
X317198D01*
X321770D02*
X326342D01*
X330914D02*
X335486D01*
X340058D02*
X344630D01*
X376634D02*
X381206D01*
X385778D02*
X399494D01*
X404066D02*
X408638D01*
X294338Y-435328D02*
X298910D01*
X303482D02*
X317198D01*
X321770D02*
X326342D01*
X330914D02*
X335486D01*
X340058D02*
X344630D01*
X376634D02*
X381206D01*
X385778D02*
X399494D01*
X404066D02*
X408638D01*
X294338Y-436090D02*
X298910D01*
X321770D02*
X326342D01*
X335486D02*
X340058D01*
X344630D02*
X349202D01*
X358346D02*
X362918D01*
X367490D02*
X372062D01*
X376634D02*
X381206D01*
X404066D02*
X408638D01*
X294338Y-436852D02*
X298910D01*
X321770D02*
X326342D01*
X335486D02*
X340058D01*
X344630D02*
X349202D01*
X358346D02*
X362918D01*
X367490D02*
X372062D01*
X376634D02*
X381206D01*
X404066D02*
X408638D01*
X294338Y-437614D02*
X298910D01*
X321770D02*
X326342D01*
X335486D02*
X340058D01*
X344630D02*
X349202D01*
X358346D02*
X362918D01*
X367490D02*
X372062D01*
X376634D02*
X381206D01*
X404066D02*
X408638D01*
X294338Y-438376D02*
X298910D01*
X321770D02*
X326342D01*
X335486D02*
X340058D01*
X344630D02*
X349202D01*
X358346D02*
X362918D01*
X367490D02*
X372062D01*
X376634D02*
X381206D01*
X404066D02*
X408638D01*
X294338Y-439138D02*
X298910D01*
X321770D02*
X326342D01*
X335486D02*
X340058D01*
X344630D02*
X349202D01*
X358346D02*
X362918D01*
X367490D02*
X372062D01*
X376634D02*
X381206D01*
X404066D02*
X408638D01*
X294338Y-439900D02*
X298910D01*
X321770D02*
X326342D01*
X335486D02*
X340058D01*
X344630D02*
X349202D01*
X358346D02*
X362918D01*
X367490D02*
X372062D01*
X376634D02*
X381206D01*
X404066D02*
X408638D01*
X294338Y-440662D02*
X326342D01*
X330914D02*
X335486D01*
X340058D02*
X344630D01*
X349202D02*
X353774D01*
X358346D02*
X362918D01*
X367490D02*
X372062D01*
X376634D02*
X408638D01*
X294338Y-441424D02*
X326342D01*
X330914D02*
X335486D01*
X340058D02*
X344630D01*
X349202D02*
X353774D01*
X358346D02*
X362918D01*
X367490D02*
X372062D01*
X376634D02*
X408638D01*
X294338Y-442186D02*
X326342D01*
X330914D02*
X335486D01*
X340058D02*
X344630D01*
X349202D02*
X353774D01*
X358346D02*
X362918D01*
X367490D02*
X372062D01*
X376634D02*
X408638D01*
X294338Y-442948D02*
X326342D01*
X330914D02*
X335486D01*
X340058D02*
X344630D01*
X349202D02*
X353774D01*
X358346D02*
X362918D01*
X367490D02*
X372062D01*
X376634D02*
X408638D01*
X294338Y-443710D02*
X326342D01*
X330914D02*
X335486D01*
X340058D02*
X344630D01*
X349202D02*
X353774D01*
X358346D02*
X362918D01*
X367490D02*
X372062D01*
X376634D02*
X408638D01*
X294338Y-444472D02*
X326342D01*
X330914D02*
X335486D01*
X340058D02*
X344630D01*
X349202D02*
X353774D01*
X358346D02*
X362918D01*
X367490D02*
X372062D01*
X376634D02*
X408638D01*
X344630Y-445234D02*
X358346D01*
X367490D02*
X372062D01*
X344630Y-445996D02*
X358346D01*
X367490D02*
X372062D01*
X344630Y-446758D02*
X358346D01*
X367490D02*
X372062D01*
X344630Y-447520D02*
X358346D01*
X367490D02*
X372062D01*
X344630Y-448282D02*
X358346D01*
X367490D02*
X372062D01*
X344630Y-449044D02*
X358346D01*
X367490D02*
X372062D01*
X294338Y-449806D02*
X298910D01*
X308054D02*
X344630D01*
X349202D02*
X358346D01*
X362918D02*
X376634D01*
X385778D02*
X390350D01*
X394922D02*
X408638D01*
X294338Y-450568D02*
X298910D01*
X308054D02*
X344630D01*
X349202D02*
X358346D01*
X362918D02*
X376634D01*
X385778D02*
X390350D01*
X394922D02*
X408638D01*
X294338Y-451330D02*
X298910D01*
X308054D02*
X344630D01*
X349202D02*
X358346D01*
X362918D02*
X376634D01*
X385778D02*
X390350D01*
X394922D02*
X408638D01*
X294338Y-452092D02*
X298910D01*
X308054D02*
X344630D01*
X349202D02*
X358346D01*
X362918D02*
X376634D01*
X385778D02*
X390350D01*
X394922D02*
X408638D01*
X294338Y-452854D02*
X298910D01*
X308054D02*
X344630D01*
X349202D02*
X358346D01*
X362918D02*
X376634D01*
X385778D02*
X390350D01*
X394922D02*
X408638D01*
X294338Y-453616D02*
X298910D01*
X308054D02*
X344630D01*
X349202D02*
X358346D01*
X362918D02*
X376634D01*
X385778D02*
X390350D01*
X394922D02*
X408638D01*
X294338Y-454378D02*
X298910D01*
X303482D02*
X308054D01*
X312626D02*
X321770D01*
X326342D02*
X330914D01*
X344630D02*
X349202D01*
X353774D02*
X367490D01*
X381206D02*
X404066D01*
X294338Y-455140D02*
X298910D01*
X303482D02*
X308054D01*
X312626D02*
X321770D01*
X326342D02*
X330914D01*
X344630D02*
X349202D01*
X353774D02*
X367490D01*
X381206D02*
X404066D01*
X294338Y-455902D02*
X298910D01*
X303482D02*
X308054D01*
X312626D02*
X321770D01*
X326342D02*
X330914D01*
X344630D02*
X349202D01*
X353774D02*
X367490D01*
X381206D02*
X404066D01*
X294338Y-456664D02*
X298910D01*
X303482D02*
X308054D01*
X312626D02*
X321770D01*
X326342D02*
X330914D01*
X344630D02*
X349202D01*
X353774D02*
X367490D01*
X381206D02*
X404066D01*
X294338Y-457426D02*
X298910D01*
X303482D02*
X308054D01*
X312626D02*
X321770D01*
X326342D02*
X330914D01*
X344630D02*
X349202D01*
X353774D02*
X367490D01*
X381206D02*
X404066D01*
X294338Y-458188D02*
X298910D01*
X303482D02*
X308054D01*
X312626D02*
X321770D01*
X326342D02*
X330914D01*
X344630D02*
X349202D01*
X353774D02*
X367490D01*
X381206D02*
X404066D01*
X294338Y-458950D02*
X298910D01*
X308054D02*
X317198D01*
X321770D02*
X326342D01*
X330914D02*
X335486D01*
X349202D02*
X358346D01*
X362918D02*
X367490D01*
X372062D02*
X376634D01*
X385778D02*
X394922D01*
X404066D02*
X408638D01*
X294338Y-459712D02*
X298910D01*
X308054D02*
X317198D01*
X321770D02*
X326342D01*
X330914D02*
X335486D01*
X349202D02*
X358346D01*
X362918D02*
X367490D01*
X372062D02*
X376634D01*
X385778D02*
X394922D01*
X404066D02*
X408638D01*
X294338Y-460474D02*
X298910D01*
X308054D02*
X317198D01*
X321770D02*
X326342D01*
X330914D02*
X335486D01*
X349202D02*
X358346D01*
X362918D02*
X367490D01*
X372062D02*
X376634D01*
X385778D02*
X394922D01*
X404066D02*
X408638D01*
X294338Y-461236D02*
X298910D01*
X308054D02*
X317198D01*
X321770D02*
X326342D01*
X330914D02*
X335486D01*
X349202D02*
X358346D01*
X362918D02*
X367490D01*
X372062D02*
X376634D01*
X385778D02*
X394922D01*
X404066D02*
X408638D01*
X294338Y-461998D02*
X298910D01*
X308054D02*
X317198D01*
X321770D02*
X326342D01*
X330914D02*
X335486D01*
X349202D02*
X358346D01*
X362918D02*
X367490D01*
X372062D02*
X376634D01*
X385778D02*
X394922D01*
X404066D02*
X408638D01*
X294338Y-462760D02*
X298910D01*
X308054D02*
X317198D01*
X321770D02*
X326342D01*
X330914D02*
X335486D01*
X349202D02*
X358346D01*
X362918D02*
X367490D01*
X372062D02*
X376634D01*
X385778D02*
X394922D01*
X404066D02*
X408638D01*
X308054Y-463522D02*
X317198D01*
X326342D02*
X330914D01*
X335486D02*
X340058D01*
X344630D02*
X349202D01*
X353774D02*
X358346D01*
X362918D02*
X367490D01*
X390350D02*
X408638D01*
X308054Y-464284D02*
X317198D01*
X326342D02*
X330914D01*
X335486D02*
X340058D01*
X344630D02*
X349202D01*
X353774D02*
X358346D01*
X362918D02*
X367490D01*
X390350D02*
X408638D01*
X308054Y-465046D02*
X317198D01*
X326342D02*
X330914D01*
X335486D02*
X340058D01*
X344630D02*
X349202D01*
X353774D02*
X358346D01*
X362918D02*
X367490D01*
X390350D02*
X408638D01*
X308054Y-465808D02*
X317198D01*
X326342D02*
X330914D01*
X335486D02*
X340058D01*
X344630D02*
X349202D01*
X353774D02*
X358346D01*
X362918D02*
X367490D01*
X390350D02*
X408638D01*
X308054Y-466570D02*
X317198D01*
X326342D02*
X330914D01*
X335486D02*
X340058D01*
X344630D02*
X349202D01*
X353774D02*
X358346D01*
X362918D02*
X367490D01*
X390350D02*
X408638D01*
X308054Y-467332D02*
X317198D01*
X326342D02*
X330914D01*
X335486D02*
X340058D01*
X344630D02*
X349202D01*
X353774D02*
X358346D01*
X362918D02*
X367490D01*
X390350D02*
X408638D01*
X298910Y-468094D02*
X317198D01*
X321770D02*
X326342D01*
X335486D02*
X358346D01*
X367490D02*
X372062D01*
X376634D02*
X381206D01*
X404066D02*
X408638D01*
X298910Y-468856D02*
X317198D01*
X321770D02*
X326342D01*
X335486D02*
X358346D01*
X367490D02*
X372062D01*
X376634D02*
X381206D01*
X404066D02*
X408638D01*
X298910Y-469618D02*
X317198D01*
X321770D02*
X326342D01*
X335486D02*
X358346D01*
X367490D02*
X372062D01*
X376634D02*
X381206D01*
X404066D02*
X408638D01*
X298910Y-470380D02*
X317198D01*
X321770D02*
X326342D01*
X335486D02*
X358346D01*
X367490D02*
X372062D01*
X376634D02*
X381206D01*
X404066D02*
X408638D01*
X298910Y-471142D02*
X317198D01*
X321770D02*
X326342D01*
X335486D02*
X358346D01*
X367490D02*
X372062D01*
X376634D02*
X381206D01*
X404066D02*
X408638D01*
X298910Y-471904D02*
X317198D01*
X321770D02*
X326342D01*
X335486D02*
X358346D01*
X367490D02*
X372062D01*
X376634D02*
X381206D01*
X404066D02*
X408638D01*
X298910Y-472666D02*
X308054D01*
X317198D02*
X321770D01*
X335486D02*
X340058D01*
X353774D02*
X372062D01*
X385778D02*
X390350D01*
X399494D02*
X404066D01*
X298910Y-473428D02*
X308054D01*
X317198D02*
X321770D01*
X335486D02*
X340058D01*
X353774D02*
X372062D01*
X385778D02*
X390350D01*
X399494D02*
X404066D01*
X298910Y-474190D02*
X308054D01*
X317198D02*
X321770D01*
X335486D02*
X340058D01*
X353774D02*
X372062D01*
X385778D02*
X390350D01*
X399494D02*
X404066D01*
X298910Y-474952D02*
X308054D01*
X317198D02*
X321770D01*
X335486D02*
X340058D01*
X353774D02*
X372062D01*
X385778D02*
X390350D01*
X399494D02*
X404066D01*
X298910Y-475714D02*
X308054D01*
X317198D02*
X321770D01*
X335486D02*
X340058D01*
X353774D02*
X372062D01*
X385778D02*
X390350D01*
X399494D02*
X404066D01*
X298910Y-476476D02*
X308054D01*
X317198D02*
X321770D01*
X335486D02*
X340058D01*
X353774D02*
X372062D01*
X385778D02*
X390350D01*
X399494D02*
X404066D01*
X303482Y-477238D02*
X312626D01*
X317198D02*
X330914D01*
X335486D02*
X358346D01*
X362918D02*
X367490D01*
X376634D02*
X381206D01*
X385778D02*
X408638D01*
X303482Y-478000D02*
X312626D01*
X317198D02*
X330914D01*
X335486D02*
X358346D01*
X362918D02*
X367490D01*
X376634D02*
X381206D01*
X385778D02*
X408638D01*
X303482Y-478762D02*
X312626D01*
X317198D02*
X330914D01*
X335486D02*
X358346D01*
X362918D02*
X367490D01*
X376634D02*
X381206D01*
X385778D02*
X408638D01*
X303482Y-479524D02*
X312626D01*
X317198D02*
X330914D01*
X335486D02*
X358346D01*
X362918D02*
X367490D01*
X376634D02*
X381206D01*
X385778D02*
X408638D01*
X303482Y-480286D02*
X312626D01*
X317198D02*
X330914D01*
X335486D02*
X358346D01*
X362918D02*
X367490D01*
X376634D02*
X381206D01*
X385778D02*
X408638D01*
X303482Y-481048D02*
X312626D01*
X317198D02*
X330914D01*
X335486D02*
X358346D01*
X362918D02*
X367490D01*
X376634D02*
X381206D01*
X385778D02*
X408638D01*
X298910Y-481810D02*
X308054D01*
X317198D02*
X321770D01*
X326342D02*
X335486D01*
X344630D02*
X349202D01*
X381206D02*
X385778D01*
X390350D02*
X399494D01*
X404066D02*
X408638D01*
X298910Y-482572D02*
X308054D01*
X317198D02*
X321770D01*
X326342D02*
X335486D01*
X344630D02*
X349202D01*
X381206D02*
X385778D01*
X390350D02*
X399494D01*
X404066D02*
X408638D01*
X298910Y-483334D02*
X308054D01*
X317198D02*
X321770D01*
X326342D02*
X335486D01*
X344630D02*
X349202D01*
X381206D02*
X385778D01*
X390350D02*
X399494D01*
X404066D02*
X408638D01*
X298910Y-484096D02*
X308054D01*
X317198D02*
X321770D01*
X326342D02*
X335486D01*
X344630D02*
X349202D01*
X381206D02*
X385778D01*
X390350D02*
X399494D01*
X404066D02*
X408638D01*
X298910Y-484858D02*
X308054D01*
X317198D02*
X321770D01*
X326342D02*
X335486D01*
X344630D02*
X349202D01*
X381206D02*
X385778D01*
X390350D02*
X399494D01*
X404066D02*
X408638D01*
X298910Y-485620D02*
X308054D01*
X317198D02*
X321770D01*
X326342D02*
X335486D01*
X344630D02*
X349202D01*
X381206D02*
X385778D01*
X390350D02*
X399494D01*
X404066D02*
X408638D01*
X298910Y-486382D02*
X326342D01*
X330914D02*
X340058D01*
X358346D02*
X390350D01*
X394922D02*
X404066D01*
X298910Y-487144D02*
X326342D01*
X330914D02*
X340058D01*
X358346D02*
X390350D01*
X394922D02*
X404066D01*
X298910Y-487906D02*
X326342D01*
X330914D02*
X340058D01*
X358346D02*
X390350D01*
X394922D02*
X404066D01*
X298910Y-488668D02*
X326342D01*
X330914D02*
X340058D01*
X358346D02*
X390350D01*
X394922D02*
X404066D01*
X298910Y-489430D02*
X326342D01*
X330914D02*
X340058D01*
X358346D02*
X390350D01*
X394922D02*
X404066D01*
X298910Y-490192D02*
X326342D01*
X330914D02*
X340058D01*
X358346D02*
X390350D01*
X394922D02*
X404066D01*
X330914Y-490954D02*
X340058D01*
X344630D02*
X362918D01*
X367490D02*
X372062D01*
X385778D02*
X390350D01*
X394922D02*
X404066D01*
X330914Y-491716D02*
X340058D01*
X344630D02*
X362918D01*
X367490D02*
X372062D01*
X385778D02*
X390350D01*
X394922D02*
X404066D01*
X330914Y-492478D02*
X340058D01*
X344630D02*
X362918D01*
X367490D02*
X372062D01*
X385778D02*
X390350D01*
X394922D02*
X404066D01*
X330914Y-493240D02*
X340058D01*
X344630D02*
X362918D01*
X367490D02*
X372062D01*
X385778D02*
X390350D01*
X394922D02*
X404066D01*
X330914Y-494002D02*
X340058D01*
X344630D02*
X362918D01*
X367490D02*
X372062D01*
X385778D02*
X390350D01*
X394922D02*
X404066D01*
X330914Y-494764D02*
X340058D01*
X344630D02*
X362918D01*
X367490D02*
X372062D01*
X385778D02*
X390350D01*
X394922D02*
X404066D01*
X294338Y-495526D02*
X326342D01*
X330914D02*
X335486D01*
X340058D02*
X349202D01*
X367490D02*
X372062D01*
X376634D02*
X381206D01*
X385778D02*
X390350D01*
X404066D02*
X408638D01*
X294338Y-496288D02*
X326342D01*
X330914D02*
X335486D01*
X340058D02*
X349202D01*
X367490D02*
X372062D01*
X376634D02*
X381206D01*
X385778D02*
X390350D01*
X404066D02*
X408638D01*
X294338Y-497050D02*
X326342D01*
X330914D02*
X335486D01*
X340058D02*
X349202D01*
X367490D02*
X372062D01*
X376634D02*
X381206D01*
X385778D02*
X390350D01*
X404066D02*
X408638D01*
X294338Y-497812D02*
X326342D01*
X330914D02*
X335486D01*
X340058D02*
X349202D01*
X367490D02*
X372062D01*
X376634D02*
X381206D01*
X385778D02*
X390350D01*
X404066D02*
X408638D01*
X294338Y-498574D02*
X326342D01*
X330914D02*
X335486D01*
X340058D02*
X349202D01*
X367490D02*
X372062D01*
X376634D02*
X381206D01*
X385778D02*
X390350D01*
X404066D02*
X408638D01*
X294338Y-499336D02*
X326342D01*
X330914D02*
X335486D01*
X340058D02*
X349202D01*
X367490D02*
X372062D01*
X376634D02*
X381206D01*
X385778D02*
X390350D01*
X404066D02*
X408638D01*
X294338Y-500098D02*
X298910D01*
X321770D02*
X326342D01*
X330914D02*
X340058D01*
X349202D02*
X353774D01*
X358346D02*
X372062D01*
X385778D02*
X390350D01*
X399494D02*
X404066D01*
X294338Y-500860D02*
X298910D01*
X321770D02*
X326342D01*
X330914D02*
X340058D01*
X349202D02*
X353774D01*
X358346D02*
X372062D01*
X385778D02*
X390350D01*
X399494D02*
X404066D01*
X294338Y-501622D02*
X298910D01*
X321770D02*
X326342D01*
X330914D02*
X340058D01*
X349202D02*
X353774D01*
X358346D02*
X372062D01*
X385778D02*
X390350D01*
X399494D02*
X404066D01*
X294338Y-502384D02*
X298910D01*
X321770D02*
X326342D01*
X330914D02*
X340058D01*
X349202D02*
X353774D01*
X358346D02*
X372062D01*
X385778D02*
X390350D01*
X399494D02*
X404066D01*
X294338Y-503146D02*
X298910D01*
X321770D02*
X326342D01*
X330914D02*
X340058D01*
X349202D02*
X353774D01*
X358346D02*
X372062D01*
X385778D02*
X390350D01*
X399494D02*
X404066D01*
X294338Y-503908D02*
X298910D01*
X321770D02*
X326342D01*
X330914D02*
X340058D01*
X349202D02*
X353774D01*
X358346D02*
X372062D01*
X385778D02*
X390350D01*
X399494D02*
X404066D01*
X294338Y-504670D02*
X298910D01*
X303482D02*
X317198D01*
X321770D02*
X326342D01*
X330914D02*
X335486D01*
X340058D02*
X344630D01*
X349202D02*
X390350D01*
X404066D02*
X408638D01*
X294338Y-505432D02*
X298910D01*
X303482D02*
X317198D01*
X321770D02*
X326342D01*
X330914D02*
X335486D01*
X340058D02*
X344630D01*
X349202D02*
X390350D01*
X404066D02*
X408638D01*
X294338Y-506194D02*
X298910D01*
X303482D02*
X317198D01*
X321770D02*
X326342D01*
X330914D02*
X335486D01*
X340058D02*
X344630D01*
X349202D02*
X390350D01*
X404066D02*
X408638D01*
X294338Y-506956D02*
X298910D01*
X303482D02*
X317198D01*
X321770D02*
X326342D01*
X330914D02*
X335486D01*
X340058D02*
X344630D01*
X349202D02*
X390350D01*
X404066D02*
X408638D01*
X294338Y-507718D02*
X298910D01*
X303482D02*
X317198D01*
X321770D02*
X326342D01*
X330914D02*
X335486D01*
X340058D02*
X344630D01*
X349202D02*
X390350D01*
X404066D02*
X408638D01*
X294338Y-508480D02*
X298910D01*
X303482D02*
X317198D01*
X321770D02*
X326342D01*
X330914D02*
X335486D01*
X340058D02*
X344630D01*
X349202D02*
X390350D01*
X404066D02*
X408638D01*
X294338Y-509242D02*
X298910D01*
X303482D02*
X317198D01*
X321770D02*
X326342D01*
X330914D02*
X335486D01*
X340058D02*
X344630D01*
X358346D02*
X362918D01*
X372062D02*
X381206D01*
X399494D02*
X408638D01*
X294338Y-510004D02*
X298910D01*
X303482D02*
X317198D01*
X321770D02*
X326342D01*
X330914D02*
X335486D01*
X340058D02*
X344630D01*
X358346D02*
X362918D01*
X372062D02*
X381206D01*
X399494D02*
X408638D01*
X294338Y-510766D02*
X298910D01*
X303482D02*
X317198D01*
X321770D02*
X326342D01*
X330914D02*
X335486D01*
X340058D02*
X344630D01*
X358346D02*
X362918D01*
X372062D02*
X381206D01*
X399494D02*
X408638D01*
X294338Y-511528D02*
X298910D01*
X303482D02*
X317198D01*
X321770D02*
X326342D01*
X330914D02*
X335486D01*
X340058D02*
X344630D01*
X358346D02*
X362918D01*
X372062D02*
X381206D01*
X399494D02*
X408638D01*
X294338Y-512290D02*
X298910D01*
X303482D02*
X317198D01*
X321770D02*
X326342D01*
X330914D02*
X335486D01*
X340058D02*
X344630D01*
X358346D02*
X362918D01*
X372062D02*
X381206D01*
X399494D02*
X408638D01*
X294338Y-513052D02*
X298910D01*
X303482D02*
X317198D01*
X321770D02*
X326342D01*
X330914D02*
X335486D01*
X340058D02*
X344630D01*
X358346D02*
X362918D01*
X372062D02*
X381206D01*
X399494D02*
X408638D01*
X294338Y-513814D02*
X298910D01*
X303482D02*
X317198D01*
X321770D02*
X326342D01*
X349202D02*
X353774D01*
X358346D02*
X367490D01*
X385778D02*
X408638D01*
X294338Y-514576D02*
X298910D01*
X303482D02*
X317198D01*
X321770D02*
X326342D01*
X349202D02*
X353774D01*
X358346D02*
X367490D01*
X385778D02*
X408638D01*
X294338Y-515338D02*
X298910D01*
X303482D02*
X317198D01*
X321770D02*
X326342D01*
X349202D02*
X353774D01*
X358346D02*
X367490D01*
X385778D02*
X408638D01*
X294338Y-516100D02*
X298910D01*
X303482D02*
X317198D01*
X321770D02*
X326342D01*
X349202D02*
X353774D01*
X358346D02*
X367490D01*
X385778D02*
X408638D01*
X294338Y-516862D02*
X298910D01*
X303482D02*
X317198D01*
X321770D02*
X326342D01*
X349202D02*
X353774D01*
X358346D02*
X367490D01*
X385778D02*
X408638D01*
X294338Y-517624D02*
X298910D01*
X303482D02*
X317198D01*
X321770D02*
X326342D01*
X349202D02*
X353774D01*
X358346D02*
X367490D01*
X385778D02*
X408638D01*
X294338Y-518386D02*
X298910D01*
X321770D02*
X326342D01*
X335486D02*
X340058D01*
X358346D02*
X367490D01*
X376634D02*
X390350D01*
X394922D02*
X408638D01*
X294338Y-519148D02*
X298910D01*
X321770D02*
X326342D01*
X335486D02*
X340058D01*
X358346D02*
X367490D01*
X376634D02*
X390350D01*
X394922D02*
X408638D01*
X294338Y-519910D02*
X298910D01*
X321770D02*
X326342D01*
X335486D02*
X340058D01*
X358346D02*
X367490D01*
X376634D02*
X390350D01*
X394922D02*
X408638D01*
X294338Y-520672D02*
X298910D01*
X321770D02*
X326342D01*
X335486D02*
X340058D01*
X358346D02*
X367490D01*
X376634D02*
X390350D01*
X394922D02*
X408638D01*
X294338Y-521434D02*
X298910D01*
X321770D02*
X326342D01*
X335486D02*
X340058D01*
X358346D02*
X367490D01*
X376634D02*
X390350D01*
X394922D02*
X408638D01*
X294338Y-522196D02*
X298910D01*
X321770D02*
X326342D01*
X335486D02*
X340058D01*
X358346D02*
X367490D01*
X376634D02*
X390350D01*
X394922D02*
X408638D01*
X294338Y-522958D02*
X326342D01*
X330914D02*
X344630D01*
X353774D02*
X362918D01*
X367490D02*
X381206D01*
X390350D02*
X394922D01*
X404066D02*
X408638D01*
X294338Y-523720D02*
X326342D01*
X330914D02*
X344630D01*
X353774D02*
X362918D01*
X367490D02*
X381206D01*
X390350D02*
X394922D01*
X404066D02*
X408638D01*
X294338Y-524482D02*
X326342D01*
X330914D02*
X344630D01*
X353774D02*
X362918D01*
X367490D02*
X381206D01*
X390350D02*
X394922D01*
X404066D02*
X408638D01*
X294338Y-525244D02*
X326342D01*
X330914D02*
X344630D01*
X353774D02*
X362918D01*
X367490D02*
X381206D01*
X390350D02*
X394922D01*
X404066D02*
X408638D01*
X294338Y-526006D02*
X326342D01*
X330914D02*
X344630D01*
X353774D02*
X362918D01*
X367490D02*
X381206D01*
X390350D02*
X394922D01*
X404066D02*
X408638D01*
X294338Y-526768D02*
X326342D01*
X330914D02*
X344630D01*
X353774D02*
X362918D01*
X367490D02*
X381206D01*
X390350D02*
X394922D01*
X404066D02*
X408638D01*
D21*
X151322Y-412914D02*
X172658D01*
X175706D02*
X181802D01*
X187898D02*
X190946D01*
X193994D02*
X197042D01*
X215330D02*
X218378D01*
X242762D02*
X264098D01*
X151322Y-413422D02*
X172658D01*
X175706D02*
X181802D01*
X187898D02*
X190946D01*
X193994D02*
X197042D01*
X215330D02*
X218378D01*
X242762D02*
X264098D01*
X151322Y-413930D02*
X172658D01*
X175706D02*
X181802D01*
X187898D02*
X190946D01*
X193994D02*
X197042D01*
X215330D02*
X218378D01*
X242762D02*
X264098D01*
X151322Y-414438D02*
X172658D01*
X175706D02*
X181802D01*
X187898D02*
X190946D01*
X193994D02*
X197042D01*
X215330D02*
X218378D01*
X242762D02*
X264098D01*
X151322Y-414946D02*
X172658D01*
X175706D02*
X181802D01*
X187898D02*
X190946D01*
X193994D02*
X197042D01*
X215330D02*
X218378D01*
X242762D02*
X264098D01*
X151322Y-415454D02*
X172658D01*
X175706D02*
X181802D01*
X187898D02*
X190946D01*
X193994D02*
X197042D01*
X215330D02*
X218378D01*
X242762D02*
X264098D01*
X151322Y-415962D02*
X154370D01*
X169610D02*
X172658D01*
X175706D02*
X193994D01*
X203138D02*
X209234D01*
X230570D02*
X233618D01*
X236666D02*
X239714D01*
X242762D02*
X245810D01*
X261050D02*
X264098D01*
X151322Y-416470D02*
X154370D01*
X169610D02*
X172658D01*
X175706D02*
X193994D01*
X203138D02*
X209234D01*
X230570D02*
X233618D01*
X236666D02*
X239714D01*
X242762D02*
X245810D01*
X261050D02*
X264098D01*
X151322Y-416978D02*
X154370D01*
X169610D02*
X172658D01*
X175706D02*
X193994D01*
X203138D02*
X209234D01*
X230570D02*
X233618D01*
X236666D02*
X239714D01*
X242762D02*
X245810D01*
X261050D02*
X264098D01*
X151322Y-417486D02*
X154370D01*
X169610D02*
X172658D01*
X175706D02*
X193994D01*
X203138D02*
X209234D01*
X230570D02*
X233618D01*
X236666D02*
X239714D01*
X242762D02*
X245810D01*
X261050D02*
X264098D01*
X151322Y-417994D02*
X154370D01*
X169610D02*
X172658D01*
X175706D02*
X193994D01*
X203138D02*
X209234D01*
X230570D02*
X233618D01*
X236666D02*
X239714D01*
X242762D02*
X245810D01*
X261050D02*
X264098D01*
X151322Y-418502D02*
X154370D01*
X169610D02*
X172658D01*
X175706D02*
X193994D01*
X203138D02*
X209234D01*
X230570D02*
X233618D01*
X236666D02*
X239714D01*
X242762D02*
X245810D01*
X261050D02*
X264098D01*
X151322Y-419010D02*
X154370D01*
X157418D02*
X166562D01*
X169610D02*
X172658D01*
X178754D02*
X200090D01*
X206186D02*
X212282D01*
X221426D02*
X233618D01*
X242762D02*
X245810D01*
X248858D02*
X258002D01*
X261050D02*
X264098D01*
X151322Y-419518D02*
X154370D01*
X157418D02*
X166562D01*
X169610D02*
X172658D01*
X178754D02*
X200090D01*
X206186D02*
X212282D01*
X221426D02*
X233618D01*
X242762D02*
X245810D01*
X248858D02*
X258002D01*
X261050D02*
X264098D01*
X151322Y-420026D02*
X154370D01*
X157418D02*
X166562D01*
X169610D02*
X172658D01*
X178754D02*
X200090D01*
X206186D02*
X212282D01*
X221426D02*
X233618D01*
X242762D02*
X245810D01*
X248858D02*
X258002D01*
X261050D02*
X264098D01*
X151322Y-420534D02*
X154370D01*
X157418D02*
X166562D01*
X169610D02*
X172658D01*
X178754D02*
X200090D01*
X206186D02*
X212282D01*
X221426D02*
X233618D01*
X242762D02*
X245810D01*
X248858D02*
X258002D01*
X261050D02*
X264098D01*
X151322Y-421042D02*
X154370D01*
X157418D02*
X166562D01*
X169610D02*
X172658D01*
X178754D02*
X200090D01*
X206186D02*
X212282D01*
X221426D02*
X233618D01*
X242762D02*
X245810D01*
X248858D02*
X258002D01*
X261050D02*
X264098D01*
X151322Y-421550D02*
X154370D01*
X157418D02*
X166562D01*
X169610D02*
X172658D01*
X178754D02*
X200090D01*
X206186D02*
X212282D01*
X221426D02*
X233618D01*
X242762D02*
X245810D01*
X248858D02*
X258002D01*
X261050D02*
X264098D01*
X151322Y-422058D02*
X154370D01*
X157418D02*
X166562D01*
X169610D02*
X172658D01*
X175706D02*
X187898D01*
X190946D02*
X193994D01*
X197042D02*
X209234D01*
X212282D02*
X215330D01*
X221426D02*
X224474D01*
X227522D02*
X236666D01*
X242762D02*
X245810D01*
X248858D02*
X258002D01*
X261050D02*
X264098D01*
X151322Y-422566D02*
X154370D01*
X157418D02*
X166562D01*
X169610D02*
X172658D01*
X175706D02*
X187898D01*
X190946D02*
X193994D01*
X197042D02*
X209234D01*
X212282D02*
X215330D01*
X221426D02*
X224474D01*
X227522D02*
X236666D01*
X242762D02*
X245810D01*
X248858D02*
X258002D01*
X261050D02*
X264098D01*
X151322Y-423074D02*
X154370D01*
X157418D02*
X166562D01*
X169610D02*
X172658D01*
X175706D02*
X187898D01*
X190946D02*
X193994D01*
X197042D02*
X209234D01*
X212282D02*
X215330D01*
X221426D02*
X224474D01*
X227522D02*
X236666D01*
X242762D02*
X245810D01*
X248858D02*
X258002D01*
X261050D02*
X264098D01*
X151322Y-423582D02*
X154370D01*
X157418D02*
X166562D01*
X169610D02*
X172658D01*
X175706D02*
X187898D01*
X190946D02*
X193994D01*
X197042D02*
X209234D01*
X212282D02*
X215330D01*
X221426D02*
X224474D01*
X227522D02*
X236666D01*
X242762D02*
X245810D01*
X248858D02*
X258002D01*
X261050D02*
X264098D01*
X151322Y-424090D02*
X154370D01*
X157418D02*
X166562D01*
X169610D02*
X172658D01*
X175706D02*
X187898D01*
X190946D02*
X193994D01*
X197042D02*
X209234D01*
X212282D02*
X215330D01*
X221426D02*
X224474D01*
X227522D02*
X236666D01*
X242762D02*
X245810D01*
X248858D02*
X258002D01*
X261050D02*
X264098D01*
X151322Y-424598D02*
X154370D01*
X157418D02*
X166562D01*
X169610D02*
X172658D01*
X175706D02*
X187898D01*
X190946D02*
X193994D01*
X197042D02*
X209234D01*
X212282D02*
X215330D01*
X221426D02*
X224474D01*
X227522D02*
X236666D01*
X242762D02*
X245810D01*
X248858D02*
X258002D01*
X261050D02*
X264098D01*
X151322Y-425106D02*
X154370D01*
X157418D02*
X166562D01*
X169610D02*
X172658D01*
X181802D02*
X184850D01*
X187898D02*
X190946D01*
X209234D02*
X215330D01*
X227522D02*
X230570D01*
X233618D02*
X239714D01*
X242762D02*
X245810D01*
X248858D02*
X258002D01*
X261050D02*
X264098D01*
X151322Y-425614D02*
X154370D01*
X157418D02*
X166562D01*
X169610D02*
X172658D01*
X181802D02*
X184850D01*
X187898D02*
X190946D01*
X209234D02*
X215330D01*
X227522D02*
X230570D01*
X233618D02*
X239714D01*
X242762D02*
X245810D01*
X248858D02*
X258002D01*
X261050D02*
X264098D01*
X151322Y-426122D02*
X154370D01*
X157418D02*
X166562D01*
X169610D02*
X172658D01*
X181802D02*
X184850D01*
X187898D02*
X190946D01*
X209234D02*
X215330D01*
X227522D02*
X230570D01*
X233618D02*
X239714D01*
X242762D02*
X245810D01*
X248858D02*
X258002D01*
X261050D02*
X264098D01*
X151322Y-426630D02*
X154370D01*
X157418D02*
X166562D01*
X169610D02*
X172658D01*
X181802D02*
X184850D01*
X187898D02*
X190946D01*
X209234D02*
X215330D01*
X227522D02*
X230570D01*
X233618D02*
X239714D01*
X242762D02*
X245810D01*
X248858D02*
X258002D01*
X261050D02*
X264098D01*
X151322Y-427138D02*
X154370D01*
X157418D02*
X166562D01*
X169610D02*
X172658D01*
X181802D02*
X184850D01*
X187898D02*
X190946D01*
X209234D02*
X215330D01*
X227522D02*
X230570D01*
X233618D02*
X239714D01*
X242762D02*
X245810D01*
X248858D02*
X258002D01*
X261050D02*
X264098D01*
X151322Y-427646D02*
X154370D01*
X157418D02*
X166562D01*
X169610D02*
X172658D01*
X181802D02*
X184850D01*
X187898D02*
X190946D01*
X209234D02*
X215330D01*
X227522D02*
X230570D01*
X233618D02*
X239714D01*
X242762D02*
X245810D01*
X248858D02*
X258002D01*
X261050D02*
X264098D01*
X151322Y-428154D02*
X154370D01*
X169610D02*
X172658D01*
X181802D02*
X190946D01*
X193994D02*
X197042D01*
X203138D02*
X212282D01*
X218378D02*
X221426D01*
X236666D02*
X239714D01*
X242762D02*
X245810D01*
X261050D02*
X264098D01*
X151322Y-428662D02*
X154370D01*
X169610D02*
X172658D01*
X181802D02*
X190946D01*
X193994D02*
X197042D01*
X203138D02*
X212282D01*
X218378D02*
X221426D01*
X236666D02*
X239714D01*
X242762D02*
X245810D01*
X261050D02*
X264098D01*
X151322Y-429170D02*
X154370D01*
X169610D02*
X172658D01*
X181802D02*
X190946D01*
X193994D02*
X197042D01*
X203138D02*
X212282D01*
X218378D02*
X221426D01*
X236666D02*
X239714D01*
X242762D02*
X245810D01*
X261050D02*
X264098D01*
X151322Y-429678D02*
X154370D01*
X169610D02*
X172658D01*
X181802D02*
X190946D01*
X193994D02*
X197042D01*
X203138D02*
X212282D01*
X218378D02*
X221426D01*
X236666D02*
X239714D01*
X242762D02*
X245810D01*
X261050D02*
X264098D01*
X151322Y-430186D02*
X154370D01*
X169610D02*
X172658D01*
X181802D02*
X190946D01*
X193994D02*
X197042D01*
X203138D02*
X212282D01*
X218378D02*
X221426D01*
X236666D02*
X239714D01*
X242762D02*
X245810D01*
X261050D02*
X264098D01*
X151322Y-430694D02*
X154370D01*
X169610D02*
X172658D01*
X181802D02*
X190946D01*
X193994D02*
X197042D01*
X203138D02*
X212282D01*
X218378D02*
X221426D01*
X236666D02*
X239714D01*
X242762D02*
X245810D01*
X261050D02*
X264098D01*
X151322Y-431202D02*
X172658D01*
X175706D02*
X178754D01*
X181802D02*
X184850D01*
X187898D02*
X190946D01*
X193994D02*
X197042D01*
X200090D02*
X203138D01*
X206186D02*
X209234D01*
X212282D02*
X215330D01*
X218378D02*
X221426D01*
X224474D02*
X227522D01*
X230570D02*
X233618D01*
X236666D02*
X239714D01*
X242762D02*
X264098D01*
X151322Y-431710D02*
X172658D01*
X175706D02*
X178754D01*
X181802D02*
X184850D01*
X187898D02*
X190946D01*
X193994D02*
X197042D01*
X200090D02*
X203138D01*
X206186D02*
X209234D01*
X212282D02*
X215330D01*
X218378D02*
X221426D01*
X224474D02*
X227522D01*
X230570D02*
X233618D01*
X236666D02*
X239714D01*
X242762D02*
X264098D01*
X151322Y-432218D02*
X172658D01*
X175706D02*
X178754D01*
X181802D02*
X184850D01*
X187898D02*
X190946D01*
X193994D02*
X197042D01*
X200090D02*
X203138D01*
X206186D02*
X209234D01*
X212282D02*
X215330D01*
X218378D02*
X221426D01*
X224474D02*
X227522D01*
X230570D02*
X233618D01*
X236666D02*
X239714D01*
X242762D02*
X264098D01*
X151322Y-432726D02*
X172658D01*
X175706D02*
X178754D01*
X181802D02*
X184850D01*
X187898D02*
X190946D01*
X193994D02*
X197042D01*
X200090D02*
X203138D01*
X206186D02*
X209234D01*
X212282D02*
X215330D01*
X218378D02*
X221426D01*
X224474D02*
X227522D01*
X230570D02*
X233618D01*
X236666D02*
X239714D01*
X242762D02*
X264098D01*
X151322Y-433234D02*
X172658D01*
X175706D02*
X178754D01*
X181802D02*
X184850D01*
X187898D02*
X190946D01*
X193994D02*
X197042D01*
X200090D02*
X203138D01*
X206186D02*
X209234D01*
X212282D02*
X215330D01*
X218378D02*
X221426D01*
X224474D02*
X227522D01*
X230570D02*
X233618D01*
X236666D02*
X239714D01*
X242762D02*
X264098D01*
X151322Y-433742D02*
X172658D01*
X175706D02*
X178754D01*
X181802D02*
X184850D01*
X187898D02*
X190946D01*
X193994D02*
X197042D01*
X200090D02*
X203138D01*
X206186D02*
X209234D01*
X212282D02*
X215330D01*
X218378D02*
X221426D01*
X224474D02*
X227522D01*
X230570D02*
X233618D01*
X236666D02*
X239714D01*
X242762D02*
X264098D01*
X175706Y-434250D02*
X190946D01*
X193994D02*
X203138D01*
X212282D02*
X215330D01*
X218378D02*
X221426D01*
X224474D02*
X227522D01*
X230570D02*
X236666D01*
X175706Y-434758D02*
X190946D01*
X193994D02*
X203138D01*
X212282D02*
X215330D01*
X218378D02*
X221426D01*
X224474D02*
X227522D01*
X230570D02*
X236666D01*
X175706Y-435266D02*
X190946D01*
X193994D02*
X203138D01*
X212282D02*
X215330D01*
X218378D02*
X221426D01*
X224474D02*
X227522D01*
X230570D02*
X236666D01*
X175706Y-435774D02*
X190946D01*
X193994D02*
X203138D01*
X212282D02*
X215330D01*
X218378D02*
X221426D01*
X224474D02*
X227522D01*
X230570D02*
X236666D01*
X175706Y-436282D02*
X190946D01*
X193994D02*
X203138D01*
X212282D02*
X215330D01*
X218378D02*
X221426D01*
X224474D02*
X227522D01*
X230570D02*
X236666D01*
X175706Y-436790D02*
X190946D01*
X193994D02*
X203138D01*
X212282D02*
X215330D01*
X218378D02*
X221426D01*
X224474D02*
X227522D01*
X230570D02*
X236666D01*
X151322Y-437298D02*
X154370D01*
X157418D02*
X163514D01*
X166562D02*
X175706D01*
X181802D02*
X184850D01*
X187898D02*
X200090D01*
X206186D02*
X212282D01*
X218378D02*
X227522D01*
X242762D02*
X245810D01*
X251906D02*
X254954D01*
X258002D02*
X264098D01*
X151322Y-437806D02*
X154370D01*
X157418D02*
X163514D01*
X166562D02*
X175706D01*
X181802D02*
X184850D01*
X187898D02*
X200090D01*
X206186D02*
X212282D01*
X218378D02*
X227522D01*
X242762D02*
X245810D01*
X251906D02*
X254954D01*
X258002D02*
X264098D01*
X151322Y-438314D02*
X154370D01*
X157418D02*
X163514D01*
X166562D02*
X175706D01*
X181802D02*
X184850D01*
X187898D02*
X200090D01*
X206186D02*
X212282D01*
X218378D02*
X227522D01*
X242762D02*
X245810D01*
X251906D02*
X254954D01*
X258002D02*
X264098D01*
X151322Y-438822D02*
X154370D01*
X157418D02*
X163514D01*
X166562D02*
X175706D01*
X181802D02*
X184850D01*
X187898D02*
X200090D01*
X206186D02*
X212282D01*
X218378D02*
X227522D01*
X242762D02*
X245810D01*
X251906D02*
X254954D01*
X258002D02*
X264098D01*
X151322Y-439330D02*
X154370D01*
X157418D02*
X163514D01*
X166562D02*
X175706D01*
X181802D02*
X184850D01*
X187898D02*
X200090D01*
X206186D02*
X212282D01*
X218378D02*
X227522D01*
X242762D02*
X245810D01*
X251906D02*
X254954D01*
X258002D02*
X264098D01*
X151322Y-439838D02*
X154370D01*
X157418D02*
X163514D01*
X166562D02*
X175706D01*
X181802D02*
X184850D01*
X187898D02*
X200090D01*
X206186D02*
X212282D01*
X218378D02*
X227522D01*
X242762D02*
X245810D01*
X251906D02*
X254954D01*
X258002D02*
X264098D01*
X166562Y-440346D02*
X169610D01*
X178754D02*
X181802D01*
X184850D02*
X190946D01*
X197042D02*
X200090D01*
X203138D02*
X209234D01*
X212282D02*
X215330D01*
X218378D02*
X221426D01*
X224474D02*
X227522D01*
X230570D02*
X233618D01*
X166562Y-440854D02*
X169610D01*
X178754D02*
X181802D01*
X184850D02*
X190946D01*
X197042D02*
X200090D01*
X203138D02*
X209234D01*
X212282D02*
X215330D01*
X218378D02*
X221426D01*
X224474D02*
X227522D01*
X230570D02*
X233618D01*
X166562Y-441362D02*
X169610D01*
X178754D02*
X181802D01*
X184850D02*
X190946D01*
X197042D02*
X200090D01*
X203138D02*
X209234D01*
X212282D02*
X215330D01*
X218378D02*
X221426D01*
X224474D02*
X227522D01*
X230570D02*
X233618D01*
X166562Y-441870D02*
X169610D01*
X178754D02*
X181802D01*
X184850D02*
X190946D01*
X197042D02*
X200090D01*
X203138D02*
X209234D01*
X212282D02*
X215330D01*
X218378D02*
X221426D01*
X224474D02*
X227522D01*
X230570D02*
X233618D01*
X166562Y-442378D02*
X169610D01*
X178754D02*
X181802D01*
X184850D02*
X190946D01*
X197042D02*
X200090D01*
X203138D02*
X209234D01*
X212282D02*
X215330D01*
X218378D02*
X221426D01*
X224474D02*
X227522D01*
X230570D02*
X233618D01*
X166562Y-442886D02*
X169610D01*
X178754D02*
X181802D01*
X184850D02*
X190946D01*
X197042D02*
X200090D01*
X203138D02*
X209234D01*
X212282D02*
X215330D01*
X218378D02*
X221426D01*
X224474D02*
X227522D01*
X230570D02*
X233618D01*
X160466Y-443394D02*
X178754D01*
X184850D02*
X187898D01*
X190946D02*
X193994D01*
X200090D02*
X203138D01*
X206186D02*
X227522D01*
X248858D02*
X254954D01*
X160466Y-443902D02*
X178754D01*
X184850D02*
X187898D01*
X190946D02*
X193994D01*
X200090D02*
X203138D01*
X206186D02*
X227522D01*
X248858D02*
X254954D01*
X160466Y-444410D02*
X178754D01*
X184850D02*
X187898D01*
X190946D02*
X193994D01*
X200090D02*
X203138D01*
X206186D02*
X227522D01*
X248858D02*
X254954D01*
X160466Y-444918D02*
X178754D01*
X184850D02*
X187898D01*
X190946D02*
X193994D01*
X200090D02*
X203138D01*
X206186D02*
X227522D01*
X248858D02*
X254954D01*
X160466Y-445426D02*
X178754D01*
X184850D02*
X187898D01*
X190946D02*
X193994D01*
X200090D02*
X203138D01*
X206186D02*
X227522D01*
X248858D02*
X254954D01*
X160466Y-445934D02*
X178754D01*
X184850D02*
X187898D01*
X190946D02*
X193994D01*
X200090D02*
X203138D01*
X206186D02*
X227522D01*
X248858D02*
X254954D01*
X160466Y-446442D02*
X169610D01*
X175706D02*
X184850D01*
X187898D02*
X190946D01*
X193994D02*
X197042D01*
X200090D02*
X203138D01*
X206186D02*
X209234D01*
X212282D02*
X215330D01*
X218378D02*
X221426D01*
X227522D02*
X230570D01*
X233618D02*
X236666D01*
X239714D02*
X242762D01*
X248858D02*
X251906D01*
X254954D02*
X261050D01*
X160466Y-446950D02*
X169610D01*
X175706D02*
X184850D01*
X187898D02*
X190946D01*
X193994D02*
X197042D01*
X200090D02*
X203138D01*
X206186D02*
X209234D01*
X212282D02*
X215330D01*
X218378D02*
X221426D01*
X227522D02*
X230570D01*
X233618D02*
X236666D01*
X239714D02*
X242762D01*
X248858D02*
X251906D01*
X254954D02*
X261050D01*
X160466Y-447458D02*
X169610D01*
X175706D02*
X184850D01*
X187898D02*
X190946D01*
X193994D02*
X197042D01*
X200090D02*
X203138D01*
X206186D02*
X209234D01*
X212282D02*
X215330D01*
X218378D02*
X221426D01*
X227522D02*
X230570D01*
X233618D02*
X236666D01*
X239714D02*
X242762D01*
X248858D02*
X251906D01*
X254954D02*
X261050D01*
X160466Y-447966D02*
X169610D01*
X175706D02*
X184850D01*
X187898D02*
X190946D01*
X193994D02*
X197042D01*
X200090D02*
X203138D01*
X206186D02*
X209234D01*
X212282D02*
X215330D01*
X218378D02*
X221426D01*
X227522D02*
X230570D01*
X233618D02*
X236666D01*
X239714D02*
X242762D01*
X248858D02*
X251906D01*
X254954D02*
X261050D01*
X160466Y-448474D02*
X169610D01*
X175706D02*
X184850D01*
X187898D02*
X190946D01*
X193994D02*
X197042D01*
X200090D02*
X203138D01*
X206186D02*
X209234D01*
X212282D02*
X215330D01*
X218378D02*
X221426D01*
X227522D02*
X230570D01*
X233618D02*
X236666D01*
X239714D02*
X242762D01*
X248858D02*
X251906D01*
X254954D02*
X261050D01*
X160466Y-448982D02*
X169610D01*
X175706D02*
X184850D01*
X187898D02*
X190946D01*
X193994D02*
X197042D01*
X200090D02*
X203138D01*
X206186D02*
X209234D01*
X212282D02*
X215330D01*
X218378D02*
X221426D01*
X227522D02*
X230570D01*
X233618D02*
X236666D01*
X239714D02*
X242762D01*
X248858D02*
X251906D01*
X254954D02*
X261050D01*
X151322Y-449490D02*
X154370D01*
X157418D02*
X163514D01*
X166562D02*
X172658D01*
X175706D02*
X178754D01*
X190946D02*
X200090D01*
X203138D02*
X215330D01*
X224474D02*
X239714D01*
X242762D02*
X245810D01*
X248858D02*
X258002D01*
X151322Y-449998D02*
X154370D01*
X157418D02*
X163514D01*
X166562D02*
X172658D01*
X175706D02*
X178754D01*
X190946D02*
X200090D01*
X203138D02*
X215330D01*
X224474D02*
X239714D01*
X242762D02*
X245810D01*
X248858D02*
X258002D01*
X151322Y-450506D02*
X154370D01*
X157418D02*
X163514D01*
X166562D02*
X172658D01*
X175706D02*
X178754D01*
X190946D02*
X200090D01*
X203138D02*
X215330D01*
X224474D02*
X239714D01*
X242762D02*
X245810D01*
X248858D02*
X258002D01*
X151322Y-451014D02*
X154370D01*
X157418D02*
X163514D01*
X166562D02*
X172658D01*
X175706D02*
X178754D01*
X190946D02*
X200090D01*
X203138D02*
X215330D01*
X224474D02*
X239714D01*
X242762D02*
X245810D01*
X248858D02*
X258002D01*
X151322Y-451522D02*
X154370D01*
X157418D02*
X163514D01*
X166562D02*
X172658D01*
X175706D02*
X178754D01*
X190946D02*
X200090D01*
X203138D02*
X215330D01*
X224474D02*
X239714D01*
X242762D02*
X245810D01*
X248858D02*
X258002D01*
X151322Y-452030D02*
X154370D01*
X157418D02*
X163514D01*
X166562D02*
X172658D01*
X175706D02*
X178754D01*
X190946D02*
X200090D01*
X203138D02*
X215330D01*
X224474D02*
X239714D01*
X242762D02*
X245810D01*
X248858D02*
X258002D01*
X154370Y-452538D02*
X163514D01*
X166562D02*
X169610D01*
X175706D02*
X178754D01*
X184850D02*
X190946D01*
X193994D02*
X221426D01*
X230570D02*
X264098D01*
X154370Y-453046D02*
X163514D01*
X166562D02*
X169610D01*
X175706D02*
X178754D01*
X184850D02*
X190946D01*
X193994D02*
X221426D01*
X230570D02*
X264098D01*
X154370Y-453554D02*
X163514D01*
X166562D02*
X169610D01*
X175706D02*
X178754D01*
X184850D02*
X190946D01*
X193994D02*
X221426D01*
X230570D02*
X264098D01*
X154370Y-454062D02*
X163514D01*
X166562D02*
X169610D01*
X175706D02*
X178754D01*
X184850D02*
X190946D01*
X193994D02*
X221426D01*
X230570D02*
X264098D01*
X154370Y-454570D02*
X163514D01*
X166562D02*
X169610D01*
X175706D02*
X178754D01*
X184850D02*
X190946D01*
X193994D02*
X221426D01*
X230570D02*
X264098D01*
X154370Y-455078D02*
X163514D01*
X166562D02*
X169610D01*
X175706D02*
X178754D01*
X184850D02*
X190946D01*
X193994D02*
X221426D01*
X230570D02*
X264098D01*
X154370Y-455586D02*
X163514D01*
X169610D02*
X172658D01*
X184850D02*
X187898D01*
X190946D02*
X197042D01*
X200090D02*
X203138D01*
X209234D02*
X218378D01*
X227522D02*
X233618D01*
X245810D02*
X251906D01*
X258002D02*
X261050D01*
X154370Y-456094D02*
X163514D01*
X169610D02*
X172658D01*
X184850D02*
X187898D01*
X190946D02*
X197042D01*
X200090D02*
X203138D01*
X209234D02*
X218378D01*
X227522D02*
X233618D01*
X245810D02*
X251906D01*
X258002D02*
X261050D01*
X154370Y-456602D02*
X163514D01*
X169610D02*
X172658D01*
X184850D02*
X187898D01*
X190946D02*
X197042D01*
X200090D02*
X203138D01*
X209234D02*
X218378D01*
X227522D02*
X233618D01*
X245810D02*
X251906D01*
X258002D02*
X261050D01*
X154370Y-457110D02*
X163514D01*
X169610D02*
X172658D01*
X184850D02*
X187898D01*
X190946D02*
X197042D01*
X200090D02*
X203138D01*
X209234D02*
X218378D01*
X227522D02*
X233618D01*
X245810D02*
X251906D01*
X258002D02*
X261050D01*
X154370Y-457618D02*
X163514D01*
X169610D02*
X172658D01*
X184850D02*
X187898D01*
X190946D02*
X197042D01*
X200090D02*
X203138D01*
X209234D02*
X218378D01*
X227522D02*
X233618D01*
X245810D02*
X251906D01*
X258002D02*
X261050D01*
X154370Y-458126D02*
X163514D01*
X169610D02*
X172658D01*
X184850D02*
X187898D01*
X190946D02*
X197042D01*
X200090D02*
X203138D01*
X209234D02*
X218378D01*
X227522D02*
X233618D01*
X245810D02*
X251906D01*
X258002D02*
X261050D01*
X151322Y-458634D02*
X154370D01*
X160466D02*
X163514D01*
X172658D02*
X175706D01*
X178754D02*
X184850D01*
X190946D02*
X197042D01*
X209234D02*
X215330D01*
X221426D02*
X224474D01*
X233618D02*
X239714D01*
X242762D02*
X248858D01*
X258002D02*
X261050D01*
X151322Y-459142D02*
X154370D01*
X160466D02*
X163514D01*
X172658D02*
X175706D01*
X178754D02*
X184850D01*
X190946D02*
X197042D01*
X209234D02*
X215330D01*
X221426D02*
X224474D01*
X233618D02*
X239714D01*
X242762D02*
X248858D01*
X258002D02*
X261050D01*
X151322Y-459650D02*
X154370D01*
X160466D02*
X163514D01*
X172658D02*
X175706D01*
X178754D02*
X184850D01*
X190946D02*
X197042D01*
X209234D02*
X215330D01*
X221426D02*
X224474D01*
X233618D02*
X239714D01*
X242762D02*
X248858D01*
X258002D02*
X261050D01*
X151322Y-460158D02*
X154370D01*
X160466D02*
X163514D01*
X172658D02*
X175706D01*
X178754D02*
X184850D01*
X190946D02*
X197042D01*
X209234D02*
X215330D01*
X221426D02*
X224474D01*
X233618D02*
X239714D01*
X242762D02*
X248858D01*
X258002D02*
X261050D01*
X151322Y-460666D02*
X154370D01*
X160466D02*
X163514D01*
X172658D02*
X175706D01*
X178754D02*
X184850D01*
X190946D02*
X197042D01*
X209234D02*
X215330D01*
X221426D02*
X224474D01*
X233618D02*
X239714D01*
X242762D02*
X248858D01*
X258002D02*
X261050D01*
X151322Y-461174D02*
X154370D01*
X160466D02*
X163514D01*
X172658D02*
X175706D01*
X178754D02*
X184850D01*
X190946D02*
X197042D01*
X209234D02*
X215330D01*
X221426D02*
X224474D01*
X233618D02*
X239714D01*
X242762D02*
X248858D01*
X258002D02*
X261050D01*
X151322Y-461682D02*
X157418D01*
X163514D02*
X181802D01*
X197042D02*
X200090D01*
X203138D02*
X206186D01*
X209234D02*
X212282D01*
X218378D02*
X224474D01*
X227522D02*
X233618D01*
X236666D02*
X242762D01*
X254954D02*
X261050D01*
X151322Y-462190D02*
X157418D01*
X163514D02*
X181802D01*
X197042D02*
X200090D01*
X203138D02*
X206186D01*
X209234D02*
X212282D01*
X218378D02*
X224474D01*
X227522D02*
X233618D01*
X236666D02*
X242762D01*
X254954D02*
X261050D01*
X151322Y-462698D02*
X157418D01*
X163514D02*
X181802D01*
X197042D02*
X200090D01*
X203138D02*
X206186D01*
X209234D02*
X212282D01*
X218378D02*
X224474D01*
X227522D02*
X233618D01*
X236666D02*
X242762D01*
X254954D02*
X261050D01*
X151322Y-463206D02*
X157418D01*
X163514D02*
X181802D01*
X197042D02*
X200090D01*
X203138D02*
X206186D01*
X209234D02*
X212282D01*
X218378D02*
X224474D01*
X227522D02*
X233618D01*
X236666D02*
X242762D01*
X254954D02*
X261050D01*
X151322Y-463714D02*
X157418D01*
X163514D02*
X181802D01*
X197042D02*
X200090D01*
X203138D02*
X206186D01*
X209234D02*
X212282D01*
X218378D02*
X224474D01*
X227522D02*
X233618D01*
X236666D02*
X242762D01*
X254954D02*
X261050D01*
X151322Y-464222D02*
X157418D01*
X163514D02*
X181802D01*
X197042D02*
X200090D01*
X203138D02*
X206186D01*
X209234D02*
X212282D01*
X218378D02*
X224474D01*
X227522D02*
X233618D01*
X236666D02*
X242762D01*
X254954D02*
X261050D01*
X166562Y-464730D02*
X169610D01*
X172658D02*
X175706D01*
X178754D02*
X181802D01*
X190946D02*
X197042D01*
X206186D02*
X212282D01*
X218378D02*
X221426D01*
X224474D02*
X227522D01*
X230570D02*
X248858D01*
X254954D02*
X258002D01*
X261050D02*
X264098D01*
X166562Y-465238D02*
X169610D01*
X172658D02*
X175706D01*
X178754D02*
X181802D01*
X190946D02*
X197042D01*
X206186D02*
X212282D01*
X218378D02*
X221426D01*
X224474D02*
X227522D01*
X230570D02*
X248858D01*
X254954D02*
X258002D01*
X261050D02*
X264098D01*
X166562Y-465746D02*
X169610D01*
X172658D02*
X175706D01*
X178754D02*
X181802D01*
X190946D02*
X197042D01*
X206186D02*
X212282D01*
X218378D02*
X221426D01*
X224474D02*
X227522D01*
X230570D02*
X248858D01*
X254954D02*
X258002D01*
X261050D02*
X264098D01*
X166562Y-466254D02*
X169610D01*
X172658D02*
X175706D01*
X178754D02*
X181802D01*
X190946D02*
X197042D01*
X206186D02*
X212282D01*
X218378D02*
X221426D01*
X224474D02*
X227522D01*
X230570D02*
X248858D01*
X254954D02*
X258002D01*
X261050D02*
X264098D01*
X166562Y-466762D02*
X169610D01*
X172658D02*
X175706D01*
X178754D02*
X181802D01*
X190946D02*
X197042D01*
X206186D02*
X212282D01*
X218378D02*
X221426D01*
X224474D02*
X227522D01*
X230570D02*
X248858D01*
X254954D02*
X258002D01*
X261050D02*
X264098D01*
X166562Y-467270D02*
X169610D01*
X172658D02*
X175706D01*
X178754D02*
X181802D01*
X190946D02*
X197042D01*
X206186D02*
X212282D01*
X218378D02*
X221426D01*
X224474D02*
X227522D01*
X230570D02*
X248858D01*
X254954D02*
X258002D01*
X261050D02*
X264098D01*
X151322Y-467778D02*
X157418D01*
X160466D02*
X166562D01*
X169610D02*
X175706D01*
X184850D02*
X187898D01*
X203138D02*
X209234D01*
X212282D02*
X218378D01*
X221426D02*
X236666D01*
X242762D02*
X245810D01*
X251906D02*
X254954D01*
X258002D02*
X264098D01*
X151322Y-468286D02*
X157418D01*
X160466D02*
X166562D01*
X169610D02*
X175706D01*
X184850D02*
X187898D01*
X203138D02*
X209234D01*
X212282D02*
X218378D01*
X221426D02*
X236666D01*
X242762D02*
X245810D01*
X251906D02*
X254954D01*
X258002D02*
X264098D01*
X151322Y-468794D02*
X157418D01*
X160466D02*
X166562D01*
X169610D02*
X175706D01*
X184850D02*
X187898D01*
X203138D02*
X209234D01*
X212282D02*
X218378D01*
X221426D02*
X236666D01*
X242762D02*
X245810D01*
X251906D02*
X254954D01*
X258002D02*
X264098D01*
X151322Y-469302D02*
X157418D01*
X160466D02*
X166562D01*
X169610D02*
X175706D01*
X184850D02*
X187898D01*
X203138D02*
X209234D01*
X212282D02*
X218378D01*
X221426D02*
X236666D01*
X242762D02*
X245810D01*
X251906D02*
X254954D01*
X258002D02*
X264098D01*
X151322Y-469810D02*
X157418D01*
X160466D02*
X166562D01*
X169610D02*
X175706D01*
X184850D02*
X187898D01*
X203138D02*
X209234D01*
X212282D02*
X218378D01*
X221426D02*
X236666D01*
X242762D02*
X245810D01*
X251906D02*
X254954D01*
X258002D02*
X264098D01*
X151322Y-470318D02*
X157418D01*
X160466D02*
X166562D01*
X169610D02*
X175706D01*
X184850D02*
X187898D01*
X203138D02*
X209234D01*
X212282D02*
X218378D01*
X221426D02*
X236666D01*
X242762D02*
X245810D01*
X251906D02*
X254954D01*
X258002D02*
X264098D01*
X163514Y-470826D02*
X166562D01*
X175706D02*
X178754D01*
X184850D02*
X206186D01*
X212282D02*
X215330D01*
X224474D02*
X227522D01*
X233618D02*
X236666D01*
X239714D02*
X242762D01*
X245810D02*
X254954D01*
X261050D02*
X264098D01*
X163514Y-471334D02*
X166562D01*
X175706D02*
X178754D01*
X184850D02*
X206186D01*
X212282D02*
X215330D01*
X224474D02*
X227522D01*
X233618D02*
X236666D01*
X239714D02*
X242762D01*
X245810D02*
X254954D01*
X261050D02*
X264098D01*
X163514Y-471842D02*
X166562D01*
X175706D02*
X178754D01*
X184850D02*
X206186D01*
X212282D02*
X215330D01*
X224474D02*
X227522D01*
X233618D02*
X236666D01*
X239714D02*
X242762D01*
X245810D02*
X254954D01*
X261050D02*
X264098D01*
X163514Y-472350D02*
X166562D01*
X175706D02*
X178754D01*
X184850D02*
X206186D01*
X212282D02*
X215330D01*
X224474D02*
X227522D01*
X233618D02*
X236666D01*
X239714D02*
X242762D01*
X245810D02*
X254954D01*
X261050D02*
X264098D01*
X163514Y-472858D02*
X166562D01*
X175706D02*
X178754D01*
X184850D02*
X206186D01*
X212282D02*
X215330D01*
X224474D02*
X227522D01*
X233618D02*
X236666D01*
X239714D02*
X242762D01*
X245810D02*
X254954D01*
X261050D02*
X264098D01*
X163514Y-473366D02*
X166562D01*
X175706D02*
X178754D01*
X184850D02*
X206186D01*
X212282D02*
X215330D01*
X224474D02*
X227522D01*
X233618D02*
X236666D01*
X239714D02*
X242762D01*
X245810D02*
X254954D01*
X261050D02*
X264098D01*
X160466Y-473874D02*
X163514D01*
X169610D02*
X181802D01*
X184850D02*
X187898D01*
X190946D02*
X193994D01*
X197042D02*
X206186D01*
X209234D02*
X212282D01*
X218378D02*
X227522D01*
X230570D02*
X242762D01*
X248858D02*
X251906D01*
X254954D02*
X258002D01*
X160466Y-474382D02*
X163514D01*
X169610D02*
X181802D01*
X184850D02*
X187898D01*
X190946D02*
X193994D01*
X197042D02*
X206186D01*
X209234D02*
X212282D01*
X218378D02*
X227522D01*
X230570D02*
X242762D01*
X248858D02*
X251906D01*
X254954D02*
X258002D01*
X160466Y-474890D02*
X163514D01*
X169610D02*
X181802D01*
X184850D02*
X187898D01*
X190946D02*
X193994D01*
X197042D02*
X206186D01*
X209234D02*
X212282D01*
X218378D02*
X227522D01*
X230570D02*
X242762D01*
X248858D02*
X251906D01*
X254954D02*
X258002D01*
X160466Y-475398D02*
X163514D01*
X169610D02*
X181802D01*
X184850D02*
X187898D01*
X190946D02*
X193994D01*
X197042D02*
X206186D01*
X209234D02*
X212282D01*
X218378D02*
X227522D01*
X230570D02*
X242762D01*
X248858D02*
X251906D01*
X254954D02*
X258002D01*
X160466Y-475906D02*
X163514D01*
X169610D02*
X181802D01*
X184850D02*
X187898D01*
X190946D02*
X193994D01*
X197042D02*
X206186D01*
X209234D02*
X212282D01*
X218378D02*
X227522D01*
X230570D02*
X242762D01*
X248858D02*
X251906D01*
X254954D02*
X258002D01*
X160466Y-476414D02*
X163514D01*
X169610D02*
X181802D01*
X184850D02*
X187898D01*
X190946D02*
X193994D01*
X197042D02*
X206186D01*
X209234D02*
X212282D01*
X218378D02*
X227522D01*
X230570D02*
X242762D01*
X248858D02*
X251906D01*
X254954D02*
X258002D01*
X172658Y-476922D02*
X178754D01*
X187898D02*
X200090D01*
X203138D02*
X206186D01*
X209234D02*
X212282D01*
X215330D02*
X218378D01*
X221426D02*
X224474D01*
X230570D02*
X233618D01*
X236666D02*
X239714D01*
X245810D02*
X248858D01*
X258002D02*
X261050D01*
X172658Y-477430D02*
X178754D01*
X187898D02*
X200090D01*
X203138D02*
X206186D01*
X209234D02*
X212282D01*
X215330D02*
X218378D01*
X221426D02*
X224474D01*
X230570D02*
X233618D01*
X236666D02*
X239714D01*
X245810D02*
X248858D01*
X258002D02*
X261050D01*
X172658Y-477938D02*
X178754D01*
X187898D02*
X200090D01*
X203138D02*
X206186D01*
X209234D02*
X212282D01*
X215330D02*
X218378D01*
X221426D02*
X224474D01*
X230570D02*
X233618D01*
X236666D02*
X239714D01*
X245810D02*
X248858D01*
X258002D02*
X261050D01*
X172658Y-478446D02*
X178754D01*
X187898D02*
X200090D01*
X203138D02*
X206186D01*
X209234D02*
X212282D01*
X215330D02*
X218378D01*
X221426D02*
X224474D01*
X230570D02*
X233618D01*
X236666D02*
X239714D01*
X245810D02*
X248858D01*
X258002D02*
X261050D01*
X172658Y-478954D02*
X178754D01*
X187898D02*
X200090D01*
X203138D02*
X206186D01*
X209234D02*
X212282D01*
X215330D02*
X218378D01*
X221426D02*
X224474D01*
X230570D02*
X233618D01*
X236666D02*
X239714D01*
X245810D02*
X248858D01*
X258002D02*
X261050D01*
X172658Y-479462D02*
X178754D01*
X187898D02*
X200090D01*
X203138D02*
X206186D01*
X209234D02*
X212282D01*
X215330D02*
X218378D01*
X221426D02*
X224474D01*
X230570D02*
X233618D01*
X236666D02*
X239714D01*
X245810D02*
X248858D01*
X258002D02*
X261050D01*
X154370Y-479970D02*
X157418D01*
X160466D02*
X166562D01*
X169610D02*
X172658D01*
X187898D02*
X197042D01*
X200090D02*
X203138D01*
X206186D02*
X209234D01*
X221426D02*
X227522D01*
X230570D02*
X233618D01*
X239714D02*
X242762D01*
X245810D02*
X254954D01*
X154370Y-480478D02*
X157418D01*
X160466D02*
X166562D01*
X169610D02*
X172658D01*
X187898D02*
X197042D01*
X200090D02*
X203138D01*
X206186D02*
X209234D01*
X221426D02*
X227522D01*
X230570D02*
X233618D01*
X239714D02*
X242762D01*
X245810D02*
X254954D01*
X154370Y-480986D02*
X157418D01*
X160466D02*
X166562D01*
X169610D02*
X172658D01*
X187898D02*
X197042D01*
X200090D02*
X203138D01*
X206186D02*
X209234D01*
X221426D02*
X227522D01*
X230570D02*
X233618D01*
X239714D02*
X242762D01*
X245810D02*
X254954D01*
X154370Y-481494D02*
X157418D01*
X160466D02*
X166562D01*
X169610D02*
X172658D01*
X187898D02*
X197042D01*
X200090D02*
X203138D01*
X206186D02*
X209234D01*
X221426D02*
X227522D01*
X230570D02*
X233618D01*
X239714D02*
X242762D01*
X245810D02*
X254954D01*
X154370Y-482002D02*
X157418D01*
X160466D02*
X166562D01*
X169610D02*
X172658D01*
X187898D02*
X197042D01*
X200090D02*
X203138D01*
X206186D02*
X209234D01*
X221426D02*
X227522D01*
X230570D02*
X233618D01*
X239714D02*
X242762D01*
X245810D02*
X254954D01*
X154370Y-482510D02*
X157418D01*
X160466D02*
X166562D01*
X169610D02*
X172658D01*
X187898D02*
X197042D01*
X200090D02*
X203138D01*
X206186D02*
X209234D01*
X221426D02*
X227522D01*
X230570D02*
X233618D01*
X239714D02*
X242762D01*
X245810D02*
X254954D01*
X151322Y-483018D02*
X154370D01*
X157418D02*
X163514D01*
X166562D02*
X169610D01*
X172658D02*
X175706D01*
X178754D02*
X193994D01*
X203138D02*
X206186D01*
X209234D02*
X212282D01*
X224474D02*
X230570D01*
X233618D02*
X236666D01*
X239714D02*
X242762D01*
X245810D02*
X248858D01*
X254954D02*
X261050D01*
X151322Y-483526D02*
X154370D01*
X157418D02*
X163514D01*
X166562D02*
X169610D01*
X172658D02*
X175706D01*
X178754D02*
X193994D01*
X203138D02*
X206186D01*
X209234D02*
X212282D01*
X224474D02*
X230570D01*
X233618D02*
X236666D01*
X239714D02*
X242762D01*
X245810D02*
X248858D01*
X254954D02*
X261050D01*
X151322Y-484034D02*
X154370D01*
X157418D02*
X163514D01*
X166562D02*
X169610D01*
X172658D02*
X175706D01*
X178754D02*
X193994D01*
X203138D02*
X206186D01*
X209234D02*
X212282D01*
X224474D02*
X230570D01*
X233618D02*
X236666D01*
X239714D02*
X242762D01*
X245810D02*
X248858D01*
X254954D02*
X261050D01*
X151322Y-484542D02*
X154370D01*
X157418D02*
X163514D01*
X166562D02*
X169610D01*
X172658D02*
X175706D01*
X178754D02*
X193994D01*
X203138D02*
X206186D01*
X209234D02*
X212282D01*
X224474D02*
X230570D01*
X233618D02*
X236666D01*
X239714D02*
X242762D01*
X245810D02*
X248858D01*
X254954D02*
X261050D01*
X151322Y-485050D02*
X154370D01*
X157418D02*
X163514D01*
X166562D02*
X169610D01*
X172658D02*
X175706D01*
X178754D02*
X193994D01*
X203138D02*
X206186D01*
X209234D02*
X212282D01*
X224474D02*
X230570D01*
X233618D02*
X236666D01*
X239714D02*
X242762D01*
X245810D02*
X248858D01*
X254954D02*
X261050D01*
X151322Y-485558D02*
X154370D01*
X157418D02*
X163514D01*
X166562D02*
X169610D01*
X172658D02*
X175706D01*
X178754D02*
X193994D01*
X203138D02*
X206186D01*
X209234D02*
X212282D01*
X224474D02*
X230570D01*
X233618D02*
X236666D01*
X239714D02*
X242762D01*
X245810D02*
X248858D01*
X254954D02*
X261050D01*
X151322Y-486066D02*
X154370D01*
X157418D02*
X160466D01*
X169610D02*
X172658D01*
X184850D02*
X193994D01*
X200090D02*
X203138D01*
X209234D02*
X212282D01*
X215330D02*
X218378D01*
X224474D02*
X230570D01*
X242762D02*
X258002D01*
X261050D02*
X264098D01*
X151322Y-486574D02*
X154370D01*
X157418D02*
X160466D01*
X169610D02*
X172658D01*
X184850D02*
X193994D01*
X200090D02*
X203138D01*
X209234D02*
X212282D01*
X215330D02*
X218378D01*
X224474D02*
X230570D01*
X242762D02*
X258002D01*
X261050D02*
X264098D01*
X151322Y-487082D02*
X154370D01*
X157418D02*
X160466D01*
X169610D02*
X172658D01*
X184850D02*
X193994D01*
X200090D02*
X203138D01*
X209234D02*
X212282D01*
X215330D02*
X218378D01*
X224474D02*
X230570D01*
X242762D02*
X258002D01*
X261050D02*
X264098D01*
X151322Y-487590D02*
X154370D01*
X157418D02*
X160466D01*
X169610D02*
X172658D01*
X184850D02*
X193994D01*
X200090D02*
X203138D01*
X209234D02*
X212282D01*
X215330D02*
X218378D01*
X224474D02*
X230570D01*
X242762D02*
X258002D01*
X261050D02*
X264098D01*
X151322Y-488098D02*
X154370D01*
X157418D02*
X160466D01*
X169610D02*
X172658D01*
X184850D02*
X193994D01*
X200090D02*
X203138D01*
X209234D02*
X212282D01*
X215330D02*
X218378D01*
X224474D02*
X230570D01*
X242762D02*
X258002D01*
X261050D02*
X264098D01*
X151322Y-488606D02*
X154370D01*
X157418D02*
X160466D01*
X169610D02*
X172658D01*
X184850D02*
X193994D01*
X200090D02*
X203138D01*
X209234D02*
X212282D01*
X215330D02*
X218378D01*
X224474D02*
X230570D01*
X242762D02*
X258002D01*
X261050D02*
X264098D01*
X151322Y-489114D02*
X157418D01*
X163514D02*
X166562D01*
X172658D02*
X178754D01*
X203138D02*
X206186D01*
X215330D02*
X224474D01*
X230570D02*
X236666D01*
X242762D02*
X245810D01*
X248858D02*
X254954D01*
X261050D02*
X264098D01*
X151322Y-489622D02*
X157418D01*
X163514D02*
X166562D01*
X172658D02*
X178754D01*
X203138D02*
X206186D01*
X215330D02*
X224474D01*
X230570D02*
X236666D01*
X242762D02*
X245810D01*
X248858D02*
X254954D01*
X261050D02*
X264098D01*
X151322Y-490130D02*
X157418D01*
X163514D02*
X166562D01*
X172658D02*
X178754D01*
X203138D02*
X206186D01*
X215330D02*
X224474D01*
X230570D02*
X236666D01*
X242762D02*
X245810D01*
X248858D02*
X254954D01*
X261050D02*
X264098D01*
X151322Y-490638D02*
X157418D01*
X163514D02*
X166562D01*
X172658D02*
X178754D01*
X203138D02*
X206186D01*
X215330D02*
X224474D01*
X230570D02*
X236666D01*
X242762D02*
X245810D01*
X248858D02*
X254954D01*
X261050D02*
X264098D01*
X151322Y-491146D02*
X157418D01*
X163514D02*
X166562D01*
X172658D02*
X178754D01*
X203138D02*
X206186D01*
X215330D02*
X224474D01*
X230570D02*
X236666D01*
X242762D02*
X245810D01*
X248858D02*
X254954D01*
X261050D02*
X264098D01*
X151322Y-491654D02*
X157418D01*
X163514D02*
X166562D01*
X172658D02*
X178754D01*
X203138D02*
X206186D01*
X215330D02*
X224474D01*
X230570D02*
X236666D01*
X242762D02*
X245810D01*
X248858D02*
X254954D01*
X261050D02*
X264098D01*
X151322Y-492162D02*
X154370D01*
X157418D02*
X160466D01*
X169610D02*
X178754D01*
X181802D02*
X190946D01*
X193994D02*
X197042D01*
X224474D02*
X227522D01*
X239714D02*
X242762D01*
X245810D02*
X248858D01*
X251906D02*
X254954D01*
X258002D02*
X261050D01*
X151322Y-492670D02*
X154370D01*
X157418D02*
X160466D01*
X169610D02*
X178754D01*
X181802D02*
X190946D01*
X193994D02*
X197042D01*
X224474D02*
X227522D01*
X239714D02*
X242762D01*
X245810D02*
X248858D01*
X251906D02*
X254954D01*
X258002D02*
X261050D01*
X151322Y-493178D02*
X154370D01*
X157418D02*
X160466D01*
X169610D02*
X178754D01*
X181802D02*
X190946D01*
X193994D02*
X197042D01*
X224474D02*
X227522D01*
X239714D02*
X242762D01*
X245810D02*
X248858D01*
X251906D02*
X254954D01*
X258002D02*
X261050D01*
X151322Y-493686D02*
X154370D01*
X157418D02*
X160466D01*
X169610D02*
X178754D01*
X181802D02*
X190946D01*
X193994D02*
X197042D01*
X224474D02*
X227522D01*
X239714D02*
X242762D01*
X245810D02*
X248858D01*
X251906D02*
X254954D01*
X258002D02*
X261050D01*
X151322Y-494194D02*
X154370D01*
X157418D02*
X160466D01*
X169610D02*
X178754D01*
X181802D02*
X190946D01*
X193994D02*
X197042D01*
X224474D02*
X227522D01*
X239714D02*
X242762D01*
X245810D02*
X248858D01*
X251906D02*
X254954D01*
X258002D02*
X261050D01*
X151322Y-494702D02*
X154370D01*
X157418D02*
X160466D01*
X169610D02*
X178754D01*
X181802D02*
X190946D01*
X193994D02*
X197042D01*
X224474D02*
X227522D01*
X239714D02*
X242762D01*
X245810D02*
X248858D01*
X251906D02*
X254954D01*
X258002D02*
X261050D01*
X154370Y-495210D02*
X157418D01*
X160466D02*
X166562D01*
X175706D02*
X181802D01*
X190946D02*
X193994D01*
X197042D02*
X200090D01*
X206186D02*
X221426D01*
X233618D02*
X242762D01*
X251906D02*
X254954D01*
X261050D02*
X264098D01*
X154370Y-495718D02*
X157418D01*
X160466D02*
X166562D01*
X175706D02*
X181802D01*
X190946D02*
X193994D01*
X197042D02*
X200090D01*
X206186D02*
X221426D01*
X233618D02*
X242762D01*
X251906D02*
X254954D01*
X261050D02*
X264098D01*
X154370Y-496226D02*
X157418D01*
X160466D02*
X166562D01*
X175706D02*
X181802D01*
X190946D02*
X193994D01*
X197042D02*
X200090D01*
X206186D02*
X221426D01*
X233618D02*
X242762D01*
X251906D02*
X254954D01*
X261050D02*
X264098D01*
X154370Y-496734D02*
X157418D01*
X160466D02*
X166562D01*
X175706D02*
X181802D01*
X190946D02*
X193994D01*
X197042D02*
X200090D01*
X206186D02*
X221426D01*
X233618D02*
X242762D01*
X251906D02*
X254954D01*
X261050D02*
X264098D01*
X154370Y-497242D02*
X157418D01*
X160466D02*
X166562D01*
X175706D02*
X181802D01*
X190946D02*
X193994D01*
X197042D02*
X200090D01*
X206186D02*
X221426D01*
X233618D02*
X242762D01*
X251906D02*
X254954D01*
X261050D02*
X264098D01*
X154370Y-497750D02*
X157418D01*
X160466D02*
X166562D01*
X175706D02*
X181802D01*
X190946D02*
X193994D01*
X197042D02*
X200090D01*
X206186D02*
X221426D01*
X233618D02*
X242762D01*
X251906D02*
X254954D01*
X261050D02*
X264098D01*
X151322Y-498258D02*
X157418D01*
X166562D02*
X172658D01*
X175706D02*
X181802D01*
X184850D02*
X193994D01*
X209234D02*
X212282D01*
X227522D02*
X233618D01*
X236666D02*
X261050D01*
X151322Y-498766D02*
X157418D01*
X166562D02*
X172658D01*
X175706D02*
X181802D01*
X184850D02*
X193994D01*
X209234D02*
X212282D01*
X227522D02*
X233618D01*
X236666D02*
X261050D01*
X151322Y-499274D02*
X157418D01*
X166562D02*
X172658D01*
X175706D02*
X181802D01*
X184850D02*
X193994D01*
X209234D02*
X212282D01*
X227522D02*
X233618D01*
X236666D02*
X261050D01*
X151322Y-499782D02*
X157418D01*
X166562D02*
X172658D01*
X175706D02*
X181802D01*
X184850D02*
X193994D01*
X209234D02*
X212282D01*
X227522D02*
X233618D01*
X236666D02*
X261050D01*
X151322Y-500290D02*
X157418D01*
X166562D02*
X172658D01*
X175706D02*
X181802D01*
X184850D02*
X193994D01*
X209234D02*
X212282D01*
X227522D02*
X233618D01*
X236666D02*
X261050D01*
X151322Y-500798D02*
X157418D01*
X166562D02*
X172658D01*
X175706D02*
X181802D01*
X184850D02*
X193994D01*
X209234D02*
X212282D01*
X227522D02*
X233618D01*
X236666D02*
X261050D01*
X175706Y-501306D02*
X178754D01*
X181802D02*
X187898D01*
X190946D02*
X197042D01*
X200090D02*
X203138D01*
X206186D02*
X209234D01*
X215330D02*
X230570D01*
X236666D02*
X239714D01*
X248858D02*
X251906D01*
X254954D02*
X258002D01*
X261050D02*
X264098D01*
X175706Y-501814D02*
X178754D01*
X181802D02*
X187898D01*
X190946D02*
X197042D01*
X200090D02*
X203138D01*
X206186D02*
X209234D01*
X215330D02*
X230570D01*
X236666D02*
X239714D01*
X248858D02*
X251906D01*
X254954D02*
X258002D01*
X261050D02*
X264098D01*
X175706Y-502322D02*
X178754D01*
X181802D02*
X187898D01*
X190946D02*
X197042D01*
X200090D02*
X203138D01*
X206186D02*
X209234D01*
X215330D02*
X230570D01*
X236666D02*
X239714D01*
X248858D02*
X251906D01*
X254954D02*
X258002D01*
X261050D02*
X264098D01*
X175706Y-502830D02*
X178754D01*
X181802D02*
X187898D01*
X190946D02*
X197042D01*
X200090D02*
X203138D01*
X206186D02*
X209234D01*
X215330D02*
X230570D01*
X236666D02*
X239714D01*
X248858D02*
X251906D01*
X254954D02*
X258002D01*
X261050D02*
X264098D01*
X175706Y-503338D02*
X178754D01*
X181802D02*
X187898D01*
X190946D02*
X197042D01*
X200090D02*
X203138D01*
X206186D02*
X209234D01*
X215330D02*
X230570D01*
X236666D02*
X239714D01*
X248858D02*
X251906D01*
X254954D02*
X258002D01*
X261050D02*
X264098D01*
X175706Y-503846D02*
X178754D01*
X181802D02*
X187898D01*
X190946D02*
X197042D01*
X200090D02*
X203138D01*
X206186D02*
X209234D01*
X215330D02*
X230570D01*
X236666D02*
X239714D01*
X248858D02*
X251906D01*
X254954D02*
X258002D01*
X261050D02*
X264098D01*
X151322Y-504354D02*
X172658D01*
X175706D02*
X181802D01*
X187898D02*
X190946D01*
X193994D02*
X200090D01*
X206186D02*
X209234D01*
X212282D02*
X215330D01*
X218378D02*
X221426D01*
X224474D02*
X227522D01*
X236666D02*
X239714D01*
X242762D02*
X245810D01*
X248858D02*
X254954D01*
X258002D02*
X264098D01*
X151322Y-504862D02*
X172658D01*
X175706D02*
X181802D01*
X187898D02*
X190946D01*
X193994D02*
X200090D01*
X206186D02*
X209234D01*
X212282D02*
X215330D01*
X218378D02*
X221426D01*
X224474D02*
X227522D01*
X236666D02*
X239714D01*
X242762D02*
X245810D01*
X248858D02*
X254954D01*
X258002D02*
X264098D01*
X151322Y-505370D02*
X172658D01*
X175706D02*
X181802D01*
X187898D02*
X190946D01*
X193994D02*
X200090D01*
X206186D02*
X209234D01*
X212282D02*
X215330D01*
X218378D02*
X221426D01*
X224474D02*
X227522D01*
X236666D02*
X239714D01*
X242762D02*
X245810D01*
X248858D02*
X254954D01*
X258002D02*
X264098D01*
X151322Y-505878D02*
X172658D01*
X175706D02*
X181802D01*
X187898D02*
X190946D01*
X193994D02*
X200090D01*
X206186D02*
X209234D01*
X212282D02*
X215330D01*
X218378D02*
X221426D01*
X224474D02*
X227522D01*
X236666D02*
X239714D01*
X242762D02*
X245810D01*
X248858D02*
X254954D01*
X258002D02*
X264098D01*
X151322Y-506386D02*
X172658D01*
X175706D02*
X181802D01*
X187898D02*
X190946D01*
X193994D02*
X200090D01*
X206186D02*
X209234D01*
X212282D02*
X215330D01*
X218378D02*
X221426D01*
X224474D02*
X227522D01*
X236666D02*
X239714D01*
X242762D02*
X245810D01*
X248858D02*
X254954D01*
X258002D02*
X264098D01*
X151322Y-506894D02*
X172658D01*
X175706D02*
X181802D01*
X187898D02*
X190946D01*
X193994D02*
X200090D01*
X206186D02*
X209234D01*
X212282D02*
X215330D01*
X218378D02*
X221426D01*
X224474D02*
X227522D01*
X236666D02*
X239714D01*
X242762D02*
X245810D01*
X248858D02*
X254954D01*
X258002D02*
X264098D01*
X151322Y-507402D02*
X154370D01*
X169610D02*
X172658D01*
X175706D02*
X193994D01*
X203138D02*
X209234D01*
X212282D02*
X218378D01*
X230570D02*
X239714D01*
X248858D02*
X254954D01*
X261050D02*
X264098D01*
X151322Y-507910D02*
X154370D01*
X169610D02*
X172658D01*
X175706D02*
X193994D01*
X203138D02*
X209234D01*
X212282D02*
X218378D01*
X230570D02*
X239714D01*
X248858D02*
X254954D01*
X261050D02*
X264098D01*
X151322Y-508418D02*
X154370D01*
X169610D02*
X172658D01*
X175706D02*
X193994D01*
X203138D02*
X209234D01*
X212282D02*
X218378D01*
X230570D02*
X239714D01*
X248858D02*
X254954D01*
X261050D02*
X264098D01*
X151322Y-508926D02*
X154370D01*
X169610D02*
X172658D01*
X175706D02*
X193994D01*
X203138D02*
X209234D01*
X212282D02*
X218378D01*
X230570D02*
X239714D01*
X248858D02*
X254954D01*
X261050D02*
X264098D01*
X151322Y-509434D02*
X154370D01*
X169610D02*
X172658D01*
X175706D02*
X193994D01*
X203138D02*
X209234D01*
X212282D02*
X218378D01*
X230570D02*
X239714D01*
X248858D02*
X254954D01*
X261050D02*
X264098D01*
X151322Y-509942D02*
X154370D01*
X169610D02*
X172658D01*
X175706D02*
X193994D01*
X203138D02*
X209234D01*
X212282D02*
X218378D01*
X230570D02*
X239714D01*
X248858D02*
X254954D01*
X261050D02*
X264098D01*
X151322Y-510450D02*
X154370D01*
X157418D02*
X166562D01*
X169610D02*
X172658D01*
X178754D02*
X190946D01*
X200090D02*
X203138D01*
X209234D02*
X215330D01*
X230570D02*
X233618D01*
X236666D02*
X254954D01*
X151322Y-510958D02*
X154370D01*
X157418D02*
X166562D01*
X169610D02*
X172658D01*
X178754D02*
X190946D01*
X200090D02*
X203138D01*
X209234D02*
X215330D01*
X230570D02*
X233618D01*
X236666D02*
X254954D01*
X151322Y-511466D02*
X154370D01*
X157418D02*
X166562D01*
X169610D02*
X172658D01*
X178754D02*
X190946D01*
X200090D02*
X203138D01*
X209234D02*
X215330D01*
X230570D02*
X233618D01*
X236666D02*
X254954D01*
X151322Y-511974D02*
X154370D01*
X157418D02*
X166562D01*
X169610D02*
X172658D01*
X178754D02*
X190946D01*
X200090D02*
X203138D01*
X209234D02*
X215330D01*
X230570D02*
X233618D01*
X236666D02*
X254954D01*
X151322Y-512482D02*
X154370D01*
X157418D02*
X166562D01*
X169610D02*
X172658D01*
X178754D02*
X190946D01*
X200090D02*
X203138D01*
X209234D02*
X215330D01*
X230570D02*
X233618D01*
X236666D02*
X254954D01*
X151322Y-512990D02*
X154370D01*
X157418D02*
X166562D01*
X169610D02*
X172658D01*
X178754D02*
X190946D01*
X200090D02*
X203138D01*
X209234D02*
X215330D01*
X230570D02*
X233618D01*
X236666D02*
X254954D01*
X151322Y-513498D02*
X154370D01*
X157418D02*
X166562D01*
X169610D02*
X172658D01*
X175706D02*
X178754D01*
X184850D02*
X203138D01*
X221426D02*
X224474D01*
X239714D02*
X245810D01*
X248858D02*
X254954D01*
X261050D02*
X264098D01*
X151322Y-514006D02*
X154370D01*
X157418D02*
X166562D01*
X169610D02*
X172658D01*
X175706D02*
X178754D01*
X184850D02*
X203138D01*
X221426D02*
X224474D01*
X239714D02*
X245810D01*
X248858D02*
X254954D01*
X261050D02*
X264098D01*
X151322Y-514514D02*
X154370D01*
X157418D02*
X166562D01*
X169610D02*
X172658D01*
X175706D02*
X178754D01*
X184850D02*
X203138D01*
X221426D02*
X224474D01*
X239714D02*
X245810D01*
X248858D02*
X254954D01*
X261050D02*
X264098D01*
X151322Y-515022D02*
X154370D01*
X157418D02*
X166562D01*
X169610D02*
X172658D01*
X175706D02*
X178754D01*
X184850D02*
X203138D01*
X221426D02*
X224474D01*
X239714D02*
X245810D01*
X248858D02*
X254954D01*
X261050D02*
X264098D01*
X151322Y-515530D02*
X154370D01*
X157418D02*
X166562D01*
X169610D02*
X172658D01*
X175706D02*
X178754D01*
X184850D02*
X203138D01*
X221426D02*
X224474D01*
X239714D02*
X245810D01*
X248858D02*
X254954D01*
X261050D02*
X264098D01*
X151322Y-516038D02*
X154370D01*
X157418D02*
X166562D01*
X169610D02*
X172658D01*
X175706D02*
X178754D01*
X184850D02*
X203138D01*
X221426D02*
X224474D01*
X239714D02*
X245810D01*
X248858D02*
X254954D01*
X261050D02*
X264098D01*
X151322Y-516546D02*
X154370D01*
X157418D02*
X166562D01*
X169610D02*
X172658D01*
X175706D02*
X181802D01*
X193994D02*
X200090D01*
X215330D02*
X218378D01*
X221426D02*
X227522D01*
X230570D02*
X236666D01*
X239714D02*
X258002D01*
X151322Y-517054D02*
X154370D01*
X157418D02*
X166562D01*
X169610D02*
X172658D01*
X175706D02*
X181802D01*
X193994D02*
X200090D01*
X215330D02*
X218378D01*
X221426D02*
X227522D01*
X230570D02*
X236666D01*
X239714D02*
X258002D01*
X151322Y-517562D02*
X154370D01*
X157418D02*
X166562D01*
X169610D02*
X172658D01*
X175706D02*
X181802D01*
X193994D02*
X200090D01*
X215330D02*
X218378D01*
X221426D02*
X227522D01*
X230570D02*
X236666D01*
X239714D02*
X258002D01*
X151322Y-518070D02*
X154370D01*
X157418D02*
X166562D01*
X169610D02*
X172658D01*
X175706D02*
X181802D01*
X193994D02*
X200090D01*
X215330D02*
X218378D01*
X221426D02*
X227522D01*
X230570D02*
X236666D01*
X239714D02*
X258002D01*
X151322Y-518578D02*
X154370D01*
X157418D02*
X166562D01*
X169610D02*
X172658D01*
X175706D02*
X181802D01*
X193994D02*
X200090D01*
X215330D02*
X218378D01*
X221426D02*
X227522D01*
X230570D02*
X236666D01*
X239714D02*
X258002D01*
X151322Y-519086D02*
X154370D01*
X157418D02*
X166562D01*
X169610D02*
X172658D01*
X175706D02*
X181802D01*
X193994D02*
X200090D01*
X215330D02*
X218378D01*
X221426D02*
X227522D01*
X230570D02*
X236666D01*
X239714D02*
X258002D01*
X151322Y-519594D02*
X154370D01*
X169610D02*
X172658D01*
X178754D02*
X181802D01*
X184850D02*
X187898D01*
X190946D02*
X193994D01*
X197042D02*
X200090D01*
X209234D02*
X212282D01*
X218378D02*
X221426D01*
X224474D02*
X230570D01*
X233618D02*
X236666D01*
X248858D02*
X251906D01*
X254954D02*
X258002D01*
X151322Y-520102D02*
X154370D01*
X169610D02*
X172658D01*
X178754D02*
X181802D01*
X184850D02*
X187898D01*
X190946D02*
X193994D01*
X197042D02*
X200090D01*
X209234D02*
X212282D01*
X218378D02*
X221426D01*
X224474D02*
X230570D01*
X233618D02*
X236666D01*
X248858D02*
X251906D01*
X254954D02*
X258002D01*
X151322Y-520610D02*
X154370D01*
X169610D02*
X172658D01*
X178754D02*
X181802D01*
X184850D02*
X187898D01*
X190946D02*
X193994D01*
X197042D02*
X200090D01*
X209234D02*
X212282D01*
X218378D02*
X221426D01*
X224474D02*
X230570D01*
X233618D02*
X236666D01*
X248858D02*
X251906D01*
X254954D02*
X258002D01*
X151322Y-521118D02*
X154370D01*
X169610D02*
X172658D01*
X178754D02*
X181802D01*
X184850D02*
X187898D01*
X190946D02*
X193994D01*
X197042D02*
X200090D01*
X209234D02*
X212282D01*
X218378D02*
X221426D01*
X224474D02*
X230570D01*
X233618D02*
X236666D01*
X248858D02*
X251906D01*
X254954D02*
X258002D01*
X151322Y-521626D02*
X154370D01*
X169610D02*
X172658D01*
X178754D02*
X181802D01*
X184850D02*
X187898D01*
X190946D02*
X193994D01*
X197042D02*
X200090D01*
X209234D02*
X212282D01*
X218378D02*
X221426D01*
X224474D02*
X230570D01*
X233618D02*
X236666D01*
X248858D02*
X251906D01*
X254954D02*
X258002D01*
X151322Y-522134D02*
X154370D01*
X169610D02*
X172658D01*
X178754D02*
X181802D01*
X184850D02*
X187898D01*
X190946D02*
X193994D01*
X197042D02*
X200090D01*
X209234D02*
X212282D01*
X218378D02*
X221426D01*
X224474D02*
X230570D01*
X233618D02*
X236666D01*
X248858D02*
X251906D01*
X254954D02*
X258002D01*
X151322Y-522642D02*
X172658D01*
X175706D02*
X181802D01*
X187898D02*
X190946D01*
X193994D02*
X197042D01*
X200090D02*
X209234D01*
X212282D02*
X215330D01*
X221426D02*
X224474D01*
X227522D02*
X236666D01*
X239714D02*
X248858D01*
X254954D02*
X264098D01*
X151322Y-523150D02*
X172658D01*
X175706D02*
X181802D01*
X187898D02*
X190946D01*
X193994D02*
X197042D01*
X200090D02*
X209234D01*
X212282D02*
X215330D01*
X221426D02*
X224474D01*
X227522D02*
X236666D01*
X239714D02*
X248858D01*
X254954D02*
X264098D01*
X151322Y-523658D02*
X172658D01*
X175706D02*
X181802D01*
X187898D02*
X190946D01*
X193994D02*
X197042D01*
X200090D02*
X209234D01*
X212282D02*
X215330D01*
X221426D02*
X224474D01*
X227522D02*
X236666D01*
X239714D02*
X248858D01*
X254954D02*
X264098D01*
X151322Y-524166D02*
X172658D01*
X175706D02*
X181802D01*
X187898D02*
X190946D01*
X193994D02*
X197042D01*
X200090D02*
X209234D01*
X212282D02*
X215330D01*
X221426D02*
X224474D01*
X227522D02*
X236666D01*
X239714D02*
X248858D01*
X254954D02*
X264098D01*
X151322Y-524674D02*
X172658D01*
X175706D02*
X181802D01*
X187898D02*
X190946D01*
X193994D02*
X197042D01*
X200090D02*
X209234D01*
X212282D02*
X215330D01*
X221426D02*
X224474D01*
X227522D02*
X236666D01*
X239714D02*
X248858D01*
X254954D02*
X264098D01*
X151322Y-525182D02*
X172658D01*
X175706D02*
X181802D01*
X187898D02*
X190946D01*
X193994D02*
X197042D01*
X200090D02*
X209234D01*
X212282D02*
X215330D01*
X221426D02*
X224474D01*
X227522D02*
X236666D01*
X239714D02*
X248858D01*
X254954D02*
X264098D01*
D22*
X621500Y-191752D02*
Y-198750D01*
Y-196417D01*
X626165Y-191752D01*
X622666Y-195251D01*
X626165Y-198750D01*
X628498Y-191752D02*
X633163D01*
X630830D01*
Y-198750D01*
X640161D02*
X635495D01*
X640161Y-194085D01*
Y-192919D01*
X638994Y-191752D01*
X636662D01*
X635495Y-192919D01*
X791750Y-344502D02*
Y-351500D01*
Y-349167D01*
X796415Y-344502D01*
X792916Y-348001D01*
X796415Y-351500D01*
X798748Y-344502D02*
X803413D01*
X801080D01*
Y-351500D01*
X809244D02*
Y-344502D01*
X805745Y-348001D01*
X810411D01*
X716000Y-418502D02*
Y-425500D01*
Y-423167D01*
X720665Y-418502D01*
X717166Y-422001D01*
X720665Y-425500D01*
X722998Y-418502D02*
X727663D01*
X725330D01*
Y-425500D01*
X734661Y-418502D02*
X729995D01*
Y-422001D01*
X732328Y-420835D01*
X733494D01*
X734661Y-422001D01*
Y-424334D01*
X733494Y-425500D01*
X731162D01*
X729995Y-424334D01*
X461500Y-455252D02*
Y-462250D01*
Y-459917D01*
X466165Y-455252D01*
X462666Y-458751D01*
X466165Y-462250D01*
X468498Y-455252D02*
X473163D01*
X470830D01*
Y-462250D01*
X475495Y-456419D02*
X476662Y-455252D01*
X478994D01*
X480161Y-456419D01*
Y-457585D01*
X478994Y-458751D01*
X477828D01*
X478994D01*
X480161Y-459917D01*
Y-461084D01*
X478994Y-462250D01*
X476662D01*
X475495Y-461084D01*
X693250Y-61002D02*
Y-68000D01*
Y-65667D01*
X697915Y-61002D01*
X694416Y-64501D01*
X697915Y-68000D01*
X700248Y-61002D02*
X704913D01*
X702580D01*
Y-68000D01*
X707245D02*
X709578D01*
X708412D01*
Y-61002D01*
X707245Y-62169D01*
D23*
X699789Y-113781D02*
D03*
D24*
X698862Y-115018D02*
D03*
D25*
X698475Y-115636D02*
D03*
D26*
X698166Y-116023D02*
D03*
D27*
X697934Y-116332D02*
D03*
D28*
X697239Y-117259D02*
D03*
M02*
