M48
;Layer_Color=9474304
;FILE_FORMAT=4:4
METRIC,LZ
;TYPE=PLATED
T1F00S00C0.3000
T2F00S00C0.9000
T3F00S00C1.3000
T4F00S00C1.4000
T5F00S00C1.5000
T6F00S00C1.6000
T7F00S00C1.7000
T8F00S00C4.0000
%
T01
X006555Y-00498
X005245Y-003925
Y-0038425
X0053325Y-0035575
X005925Y-00357
X00661Y-003875
X006685
X0070325Y-00422
X00739Y-002775
X0074625
X0070525Y-0022475
X0063075Y-002445
X006405Y-001675
X006205Y-0014025
X0056925Y-0020675
X0055975
X0055025
X0054825Y-0006
X005565
X00565
X0086775Y-0011675
X008405Y-0014525
X0084025Y-00196
X0083425Y-0023675
X0085325Y-002725
X00865Y-0028925
X0090175Y-002595
X00915Y-0026475
X009275Y-0025725
X0092075Y-004065
X009505Y-00387
Y-0037475
X00981Y-0036
X009715Y-002575
T02
X007005Y-004375
X00497Y-0044825
X007815Y-00364
X0065625Y-001895
T03
X00811Y-0050125
X00861
X00911
Y-0044725
X00861
X00811
X0081Y-000775
X0086
X0091
T04
X000435Y-00272
Y-00222
T05
X0015425Y-0034325
Y-0029325
Y-0024325
Y-0019325
Y-0014325
X0035425
Y-0019325
X0035458Y-0024325
X0035425Y-0029325
Y-0034325
X0046325Y-0032575
Y-0027475
Y-0022375
Y-0017275
X010316Y-0026385
T06
X0066725Y-00065
T07
X010062Y-0028925
Y-0023845
X01057
Y-0028925
T08
X01015Y-00465
X00065
Y-00065
X01015
M30
