G04*
G04 #@! TF.GenerationSoftware,Altium Limited,Altium Designer,19.1.6 (110)*
G04*
G04 Layer_Physical_Order=2*
G04 Layer_Color=16711680*
%FSLAX44Y44*%
%MOMM*%
G71*
G01*
G75*
%ADD64C,1.0000*%
%ADD65C,0.6000*%
%ADD66C,3.0000*%
%ADD67R,3.0000X3.0000*%
%ADD68C,2.5000*%
%ADD69C,1.5000*%
%ADD70C,5.0000*%
%ADD71C,0.6000*%
G36*
X959250Y-33000D02*
X959875Y-120125D01*
X989378Y-149628D01*
X1039628Y-149628D01*
X1073250Y-183250D01*
X1073250Y-370000D01*
X1040750Y-402500D01*
X998500Y-402500D01*
X983147Y-417853D01*
X982175Y-504864D01*
X962774Y-524264D01*
X325502Y-524252D01*
X283022Y-481772D01*
X283497Y-29253D01*
X311177Y-1573D01*
X926250Y0D01*
X959250Y-33000D01*
D02*
G37*
%LPC*%
G36*
X910000Y-59875D02*
X906562Y-60214D01*
X903255Y-61217D01*
X900208Y-62846D01*
X897537Y-65037D01*
X895346Y-67708D01*
X893717Y-70755D01*
X892714Y-74061D01*
X892375Y-77500D01*
X892714Y-80938D01*
X893717Y-84245D01*
X895346Y-87292D01*
X897537Y-89963D01*
X900208Y-92155D01*
X903255Y-93783D01*
X906562Y-94786D01*
X910000Y-95125D01*
X913438Y-94786D01*
X916745Y-93783D01*
X919792Y-92155D01*
X922463Y-89963D01*
X924654Y-87292D01*
X926283Y-84245D01*
X927286Y-80938D01*
X927625Y-77500D01*
X927286Y-74061D01*
X926283Y-70755D01*
X924654Y-67708D01*
X922463Y-65037D01*
X919792Y-62846D01*
X916745Y-61217D01*
X913438Y-60214D01*
X910000Y-59875D01*
D02*
G37*
G36*
X860000D02*
X856562Y-60214D01*
X853255Y-61217D01*
X850208Y-62846D01*
X847537Y-65037D01*
X845346Y-67708D01*
X843717Y-70755D01*
X842714Y-74061D01*
X842375Y-77500D01*
X842714Y-80938D01*
X843717Y-84245D01*
X845346Y-87292D01*
X847537Y-89963D01*
X850208Y-92155D01*
X853255Y-93783D01*
X856562Y-94786D01*
X860000Y-95125D01*
X863438Y-94786D01*
X866745Y-93783D01*
X869792Y-92155D01*
X872463Y-89963D01*
X874654Y-87292D01*
X876283Y-84245D01*
X877286Y-80938D01*
X877625Y-77500D01*
X877286Y-74061D01*
X876283Y-70755D01*
X874654Y-67708D01*
X872463Y-65037D01*
X869792Y-62846D01*
X866745Y-61217D01*
X863438Y-60214D01*
X860000Y-59875D01*
D02*
G37*
G36*
X810000D02*
X806562Y-60214D01*
X803255Y-61217D01*
X800208Y-62846D01*
X797537Y-65037D01*
X795346Y-67708D01*
X793717Y-70755D01*
X792714Y-74061D01*
X792375Y-77500D01*
X792714Y-80938D01*
X793717Y-84245D01*
X795346Y-87292D01*
X797537Y-89963D01*
X800208Y-92155D01*
X803255Y-93783D01*
X806562Y-94786D01*
X810000Y-95125D01*
X813438Y-94786D01*
X816745Y-93783D01*
X819792Y-92155D01*
X822463Y-89963D01*
X824654Y-87292D01*
X826283Y-84245D01*
X827286Y-80938D01*
X827625Y-77500D01*
X827286Y-74061D01*
X826283Y-70755D01*
X824654Y-67708D01*
X822463Y-65037D01*
X819792Y-62846D01*
X816745Y-61217D01*
X813438Y-60214D01*
X810000Y-59875D01*
D02*
G37*
G36*
X354250Y-125625D02*
X350812Y-125964D01*
X347505Y-126967D01*
X344458Y-128596D01*
X341787Y-130787D01*
X339595Y-133458D01*
X337967Y-136505D01*
X336964Y-139812D01*
X336625Y-143250D01*
X336964Y-146688D01*
X337967Y-149995D01*
X339595Y-153042D01*
X341787Y-155713D01*
X344458Y-157905D01*
X347505Y-159533D01*
X350812Y-160536D01*
X354250Y-160875D01*
X357688Y-160536D01*
X360995Y-159533D01*
X364042Y-157905D01*
X366713Y-155713D01*
X368904Y-153042D01*
X370533Y-149995D01*
X371536Y-146688D01*
X371875Y-143250D01*
X371536Y-139812D01*
X370533Y-136505D01*
X368904Y-133458D01*
X366713Y-130787D01*
X364042Y-128596D01*
X360995Y-126967D01*
X357688Y-125964D01*
X354250Y-125625D01*
D02*
G37*
G36*
X867750Y-108645D02*
X690500D01*
X688532Y-108904D01*
X686697Y-109664D01*
X685122Y-110872D01*
X634497Y-161497D01*
X633289Y-163072D01*
X632529Y-164907D01*
X632270Y-166875D01*
X632529Y-168843D01*
X633289Y-170678D01*
X634497Y-172253D01*
X636073Y-173461D01*
X637907Y-174221D01*
X639875Y-174480D01*
X641843Y-174221D01*
X643678Y-173461D01*
X645253Y-172253D01*
X693650Y-123855D01*
X867750D01*
X869718Y-123596D01*
X871553Y-122836D01*
X873128Y-121628D01*
X874336Y-120052D01*
X875096Y-118218D01*
X875355Y-116250D01*
X875096Y-114282D01*
X874336Y-112448D01*
X873128Y-110872D01*
X871553Y-109664D01*
X869718Y-108904D01*
X867750Y-108645D01*
D02*
G37*
G36*
X480790Y-155210D02*
X445710D01*
Y-190290D01*
X480790D01*
Y-155210D01*
D02*
G37*
G36*
X656250Y-179373D02*
X653629Y-179718D01*
X651187Y-180730D01*
X649089Y-182339D01*
X647480Y-184437D01*
X646468Y-186879D01*
X646123Y-189500D01*
X646468Y-192121D01*
X647480Y-194563D01*
X649089Y-196661D01*
X651187Y-198270D01*
X653629Y-199282D01*
X656250Y-199627D01*
X658871Y-199282D01*
X661313Y-198270D01*
X663411Y-196661D01*
X665020Y-194563D01*
X666032Y-192121D01*
X666377Y-189500D01*
X666032Y-186879D01*
X665020Y-184437D01*
X663411Y-182339D01*
X661313Y-180730D01*
X658871Y-179718D01*
X656250Y-179373D01*
D02*
G37*
G36*
X463250Y-206125D02*
X459812Y-206464D01*
X456505Y-207467D01*
X453458Y-209095D01*
X450787Y-211287D01*
X448595Y-213958D01*
X446967Y-217005D01*
X445964Y-220312D01*
X445625Y-223750D01*
X445964Y-227188D01*
X446967Y-230495D01*
X448595Y-233542D01*
X450787Y-236213D01*
X453458Y-238405D01*
X456505Y-240033D01*
X459812Y-241036D01*
X463250Y-241375D01*
X466688Y-241036D01*
X469995Y-240033D01*
X473042Y-238405D01*
X475713Y-236213D01*
X477905Y-233542D01*
X479533Y-230495D01*
X480536Y-227188D01*
X480875Y-223750D01*
X480536Y-220312D01*
X479533Y-217005D01*
X477905Y-213958D01*
X475713Y-211287D01*
X473042Y-209095D01*
X469995Y-207467D01*
X466688Y-206464D01*
X463250Y-206125D01*
D02*
G37*
G36*
X354580Y-225625D02*
X351142Y-225964D01*
X347835Y-226967D01*
X344788Y-228596D01*
X342117Y-230787D01*
X339925Y-233458D01*
X338297Y-236505D01*
X337294Y-239812D01*
X336955Y-243250D01*
X337294Y-246688D01*
X338297Y-249995D01*
X339925Y-253042D01*
X342117Y-255713D01*
X344788Y-257904D01*
X347835Y-259533D01*
X351142Y-260536D01*
X354580Y-260875D01*
X358018Y-260536D01*
X361325Y-259533D01*
X364372Y-257904D01*
X367043Y-255713D01*
X369235Y-253042D01*
X370863Y-249995D01*
X371866Y-246688D01*
X372205Y-243250D01*
X371866Y-239812D01*
X370863Y-236505D01*
X369235Y-233458D01*
X367043Y-230787D01*
X364372Y-228596D01*
X361325Y-226967D01*
X358018Y-225964D01*
X354580Y-225625D01*
D02*
G37*
G36*
X1031600Y-248737D02*
X1028652Y-249028D01*
X1025817Y-249888D01*
X1023204Y-251284D01*
X1020914Y-253164D01*
X1019034Y-255454D01*
X1017638Y-258067D01*
X1016778Y-260902D01*
X1016487Y-263850D01*
X1016778Y-266798D01*
X1017638Y-269633D01*
X1019034Y-272246D01*
X1020914Y-274536D01*
X1023204Y-276416D01*
X1025817Y-277812D01*
X1028652Y-278672D01*
X1031600Y-278963D01*
X1034548Y-278672D01*
X1037383Y-277812D01*
X1039996Y-276416D01*
X1042286Y-274536D01*
X1044166Y-272246D01*
X1045562Y-269633D01*
X1046422Y-266798D01*
X1046713Y-263850D01*
X1046422Y-260902D01*
X1045562Y-258067D01*
X1044166Y-255454D01*
X1042286Y-253164D01*
X1039996Y-251284D01*
X1037383Y-249888D01*
X1034548Y-249028D01*
X1031600Y-248737D01*
D02*
G37*
G36*
X834250Y-231101D02*
X832088Y-231531D01*
X830256Y-232756D01*
X830256Y-232756D01*
X770660Y-292351D01*
X654250D01*
X654250Y-292351D01*
X652088Y-292781D01*
X650256Y-294006D01*
X650256Y-294006D01*
X592910Y-351352D01*
X592500D01*
X592500Y-351352D01*
X590338Y-351782D01*
X588506Y-353006D01*
X587281Y-354838D01*
X586851Y-357000D01*
X587281Y-359162D01*
X588506Y-360994D01*
X590338Y-362219D01*
X592500Y-362649D01*
X592500Y-362649D01*
X595250D01*
X595250Y-362649D01*
X597411Y-362219D01*
X599244Y-360994D01*
X656590Y-303648D01*
X773000D01*
X773000Y-303648D01*
X775162Y-303218D01*
X776994Y-301994D01*
X838244Y-240744D01*
X838244Y-240744D01*
X839469Y-238912D01*
X839899Y-236750D01*
X839469Y-234588D01*
X838244Y-232756D01*
X836412Y-231531D01*
X834250Y-231101D01*
D02*
G37*
G36*
X463250Y-257125D02*
X459812Y-257464D01*
X456505Y-258467D01*
X453458Y-260096D01*
X450787Y-262287D01*
X448595Y-264958D01*
X446967Y-268005D01*
X445964Y-271312D01*
X445625Y-274750D01*
X445964Y-278188D01*
X446967Y-281495D01*
X448595Y-284542D01*
X450787Y-287213D01*
X453458Y-289405D01*
X456505Y-291033D01*
X459812Y-292036D01*
X463250Y-292375D01*
X466688Y-292036D01*
X469995Y-291033D01*
X473042Y-289405D01*
X475713Y-287213D01*
X477905Y-284542D01*
X479533Y-281495D01*
X480536Y-278188D01*
X480875Y-274750D01*
X480536Y-271312D01*
X479533Y-268005D01*
X477905Y-264958D01*
X475713Y-262287D01*
X473042Y-260096D01*
X469995Y-258467D01*
X466688Y-257464D01*
X463250Y-257125D01*
D02*
G37*
G36*
X901750Y-251895D02*
X899782Y-252154D01*
X897947Y-252914D01*
X896372Y-254122D01*
X868850Y-281645D01*
X865000D01*
X863032Y-281904D01*
X861198Y-282664D01*
X859622Y-283872D01*
X858414Y-285448D01*
X857654Y-287282D01*
X857395Y-289250D01*
X857654Y-291218D01*
X858414Y-293053D01*
X859622Y-294628D01*
X861198Y-295836D01*
X863032Y-296596D01*
X865000Y-296855D01*
X872000D01*
X873968Y-296596D01*
X875803Y-295836D01*
X877378Y-294628D01*
X907128Y-264878D01*
X908336Y-263302D01*
X909096Y-261468D01*
X909355Y-259500D01*
X909096Y-257532D01*
X908336Y-255697D01*
X907128Y-254122D01*
X905553Y-252914D01*
X903718Y-252154D01*
X901750Y-251895D01*
D02*
G37*
G36*
X463250Y-308125D02*
X459812Y-308464D01*
X456505Y-309467D01*
X453458Y-311096D01*
X450787Y-313287D01*
X448595Y-315958D01*
X446967Y-319005D01*
X445964Y-322312D01*
X445625Y-325750D01*
X445964Y-329188D01*
X446967Y-332495D01*
X448595Y-335542D01*
X450787Y-338213D01*
X453458Y-340405D01*
X456505Y-342033D01*
X459812Y-343036D01*
X463250Y-343375D01*
X466688Y-343036D01*
X469995Y-342033D01*
X473042Y-340405D01*
X475713Y-338213D01*
X477905Y-335542D01*
X479533Y-332495D01*
X480536Y-329188D01*
X480875Y-325750D01*
X480536Y-322312D01*
X479533Y-319005D01*
X477905Y-315958D01*
X475713Y-313287D01*
X473042Y-311096D01*
X469995Y-309467D01*
X466688Y-308464D01*
X463250Y-308125D01*
D02*
G37*
G36*
X354250Y-325625D02*
X350812Y-325964D01*
X347505Y-326967D01*
X344458Y-328596D01*
X341787Y-330787D01*
X339595Y-333458D01*
X337967Y-336505D01*
X336964Y-339812D01*
X336625Y-343250D01*
X336964Y-346688D01*
X337967Y-349995D01*
X339595Y-353042D01*
X341787Y-355713D01*
X344458Y-357905D01*
X347505Y-359533D01*
X350812Y-360536D01*
X354250Y-360875D01*
X357688Y-360536D01*
X360995Y-359533D01*
X364042Y-357905D01*
X366713Y-355713D01*
X368904Y-353042D01*
X370533Y-349995D01*
X371536Y-346688D01*
X371875Y-343250D01*
X371536Y-339812D01*
X370533Y-336505D01*
X368904Y-333458D01*
X366713Y-330787D01*
X364042Y-328596D01*
X360995Y-326967D01*
X357688Y-325964D01*
X354250Y-325625D01*
D02*
G37*
G36*
X781500Y-353873D02*
X778879Y-354218D01*
X776437Y-355230D01*
X774339Y-356839D01*
X772730Y-358937D01*
X771718Y-361379D01*
X771373Y-364000D01*
X771718Y-366621D01*
X772730Y-369063D01*
X774339Y-371161D01*
X776437Y-372770D01*
X778879Y-373782D01*
X781500Y-374127D01*
X784121Y-373782D01*
X786563Y-372770D01*
X788661Y-371161D01*
X790270Y-369063D01*
X791282Y-366621D01*
X791627Y-364000D01*
X791282Y-361379D01*
X790270Y-358937D01*
X788661Y-356839D01*
X786563Y-355230D01*
X784121Y-354218D01*
X781500Y-353873D01*
D02*
G37*
G36*
X950500Y-369101D02*
X948338Y-369531D01*
X946506Y-370756D01*
X945281Y-372588D01*
X944852Y-374750D01*
X945281Y-376912D01*
X946506Y-378744D01*
X948338Y-379969D01*
X948701Y-381336D01*
X948403Y-381601D01*
X738000D01*
X738000Y-381601D01*
X735838Y-382031D01*
X734006Y-383256D01*
X734006Y-383256D01*
X699256Y-418006D01*
X698031Y-419838D01*
X697601Y-422000D01*
X698031Y-424162D01*
X699256Y-425994D01*
X699584Y-426213D01*
X699275Y-427535D01*
X697879Y-427718D01*
X695437Y-428730D01*
X693339Y-430339D01*
X691730Y-432437D01*
X690718Y-434879D01*
X690373Y-437500D01*
X690718Y-440121D01*
X691730Y-442563D01*
X693339Y-444661D01*
X695437Y-446270D01*
X697879Y-447282D01*
X700500Y-447627D01*
X703121Y-447282D01*
X705563Y-446270D01*
X707661Y-444661D01*
X709270Y-442563D01*
X710282Y-440121D01*
X710627Y-437500D01*
X710282Y-434879D01*
X709270Y-432437D01*
X707661Y-430339D01*
X705563Y-428730D01*
X705161Y-428563D01*
X705291Y-427243D01*
X705412Y-427219D01*
X707244Y-425994D01*
X740340Y-392898D01*
X950500D01*
X952662Y-392469D01*
X954494Y-391244D01*
X955719Y-389412D01*
X956149Y-387250D01*
X956124Y-387125D01*
X956149Y-387000D01*
X955719Y-384838D01*
X954494Y-383006D01*
X952662Y-381782D01*
X951359Y-381522D01*
Y-380228D01*
X952662Y-379969D01*
X954494Y-378744D01*
X955719Y-376912D01*
X956149Y-374750D01*
X955719Y-372588D01*
X954494Y-370756D01*
X952662Y-369531D01*
X950500Y-369101D01*
D02*
G37*
G36*
X497000Y-438123D02*
X494379Y-438469D01*
X491937Y-439480D01*
X489839Y-441089D01*
X488230Y-443187D01*
X487218Y-445629D01*
X486873Y-448250D01*
X487218Y-450871D01*
X488230Y-453313D01*
X489839Y-455411D01*
X491937Y-457020D01*
X494379Y-458032D01*
X497000Y-458377D01*
X499621Y-458032D01*
X502063Y-457020D01*
X504161Y-455411D01*
X505770Y-453313D01*
X506782Y-450871D01*
X507127Y-448250D01*
X506782Y-445629D01*
X505770Y-443187D01*
X504161Y-441089D01*
X502063Y-439480D01*
X499621Y-438469D01*
X497000Y-438123D01*
D02*
G37*
G36*
X911000Y-429625D02*
X907562Y-429964D01*
X904255Y-430967D01*
X901208Y-432595D01*
X898537Y-434787D01*
X896346Y-437458D01*
X894717Y-440505D01*
X893714Y-443812D01*
X893375Y-447250D01*
X893714Y-450689D01*
X894717Y-453995D01*
X896346Y-457042D01*
X898537Y-459713D01*
X901208Y-461904D01*
X904255Y-463533D01*
X907562Y-464536D01*
X911000Y-464875D01*
X914438Y-464536D01*
X917745Y-463533D01*
X920792Y-461904D01*
X923463Y-459713D01*
X925655Y-457042D01*
X927283Y-453995D01*
X928286Y-450689D01*
X928625Y-447250D01*
X928286Y-443812D01*
X927283Y-440505D01*
X925655Y-437458D01*
X923463Y-434787D01*
X920792Y-432595D01*
X917745Y-430967D01*
X914438Y-429964D01*
X911000Y-429625D01*
D02*
G37*
G36*
X861000D02*
X857562Y-429964D01*
X854255Y-430967D01*
X851208Y-432595D01*
X848537Y-434787D01*
X846346Y-437458D01*
X844717Y-440505D01*
X843714Y-443812D01*
X843375Y-447250D01*
X843714Y-450689D01*
X844717Y-453995D01*
X846346Y-457042D01*
X848537Y-459713D01*
X851208Y-461904D01*
X854255Y-463533D01*
X857562Y-464536D01*
X861000Y-464875D01*
X864438Y-464536D01*
X867745Y-463533D01*
X870792Y-461904D01*
X873463Y-459713D01*
X875655Y-457042D01*
X877283Y-453995D01*
X878286Y-450689D01*
X878625Y-447250D01*
X878286Y-443812D01*
X877283Y-440505D01*
X875655Y-437458D01*
X873463Y-434787D01*
X870792Y-432595D01*
X867745Y-430967D01*
X864438Y-429964D01*
X861000Y-429625D01*
D02*
G37*
G36*
X811000D02*
X807562Y-429964D01*
X804255Y-430967D01*
X801208Y-432595D01*
X798537Y-434787D01*
X796346Y-437458D01*
X794717Y-440505D01*
X793714Y-443812D01*
X793375Y-447250D01*
X793714Y-450689D01*
X794717Y-453995D01*
X796346Y-457042D01*
X798537Y-459713D01*
X801208Y-461904D01*
X804255Y-463533D01*
X807562Y-464536D01*
X811000Y-464875D01*
X814438Y-464536D01*
X817745Y-463533D01*
X820792Y-461904D01*
X823463Y-459713D01*
X825655Y-457042D01*
X827283Y-453995D01*
X828286Y-450689D01*
X828625Y-447250D01*
X828286Y-443812D01*
X827283Y-440505D01*
X825655Y-437458D01*
X823463Y-434787D01*
X820792Y-432595D01*
X817745Y-430967D01*
X814438Y-429964D01*
X811000Y-429625D01*
D02*
G37*
G36*
X861000Y-483625D02*
X857562Y-483964D01*
X854255Y-484967D01*
X851208Y-486595D01*
X848537Y-488787D01*
X846346Y-491458D01*
X844717Y-494505D01*
X843714Y-497812D01*
X843375Y-501250D01*
X843714Y-504688D01*
X844717Y-507995D01*
X846346Y-511042D01*
X848537Y-513713D01*
X851208Y-515905D01*
X854255Y-517533D01*
X857562Y-518536D01*
X861000Y-518875D01*
X864438Y-518536D01*
X867745Y-517533D01*
X870792Y-515905D01*
X873463Y-513713D01*
X875655Y-511042D01*
X877283Y-507995D01*
X878286Y-504688D01*
X878625Y-501250D01*
X878286Y-497812D01*
X877283Y-494505D01*
X875655Y-491458D01*
X873463Y-488787D01*
X870792Y-486595D01*
X867745Y-484967D01*
X864438Y-483964D01*
X861000Y-483625D01*
D02*
G37*
G36*
X811000D02*
X807562Y-483964D01*
X804255Y-484967D01*
X801208Y-486595D01*
X798537Y-488787D01*
X796346Y-491458D01*
X794717Y-494505D01*
X793714Y-497812D01*
X793375Y-501250D01*
X793714Y-504688D01*
X794717Y-507995D01*
X796346Y-511042D01*
X798537Y-513713D01*
X801208Y-515905D01*
X804255Y-517533D01*
X807562Y-518536D01*
X811000Y-518875D01*
X814438Y-518536D01*
X817745Y-517533D01*
X820792Y-515905D01*
X823463Y-513713D01*
X825655Y-511042D01*
X827283Y-507995D01*
X828286Y-504688D01*
X828625Y-501250D01*
X828286Y-497812D01*
X827283Y-494505D01*
X825655Y-491458D01*
X823463Y-488787D01*
X820792Y-486595D01*
X817745Y-484967D01*
X814438Y-483964D01*
X811000Y-483625D01*
D02*
G37*
%LPD*%
D64*
X872000Y-289250D02*
X901750Y-259500D01*
X865000Y-289250D02*
X872000D01*
X690500Y-116250D02*
X867750D01*
X639875Y-166875D02*
X690500Y-116250D01*
D65*
X703250Y-422000D02*
X738000Y-387250D01*
X950500D01*
X773000Y-298000D02*
X834250Y-236750D01*
X654250Y-298000D02*
X773000D01*
X595250Y-357000D02*
X654250Y-298000D01*
X592500Y-357000D02*
X595250D01*
X592500D02*
X592500Y-357000D01*
D66*
X43500Y-272000D02*
D03*
Y-222000D02*
D03*
X354250Y-143250D02*
D03*
Y-193250D02*
D03*
Y-293250D02*
D03*
X154250Y-193250D02*
D03*
Y-293250D02*
D03*
X354580Y-243250D02*
D03*
X354250Y-343250D02*
D03*
X154250Y-143250D02*
D03*
Y-243250D02*
D03*
Y-343250D02*
D03*
X910000Y-77500D02*
D03*
X860000D02*
D03*
X810000D02*
D03*
X861000Y-447250D02*
D03*
X911000D02*
D03*
Y-501250D02*
D03*
X861000D02*
D03*
X811000D02*
D03*
Y-447250D02*
D03*
X463250Y-223750D02*
D03*
Y-274750D02*
D03*
Y-325750D02*
D03*
X667250Y-65000D02*
D03*
D67*
X463250Y-172750D02*
D03*
D68*
X1006200Y-289250D02*
D03*
X1031600Y-263850D02*
D03*
X1006200Y-238450D02*
D03*
X1057000Y-289250D02*
D03*
Y-238450D02*
D03*
D69*
X700500Y-437500D02*
D03*
X656250Y-189500D02*
D03*
X781500Y-364000D02*
D03*
X497000Y-448250D02*
D03*
D70*
X1015000Y-465000D02*
D03*
Y-65000D02*
D03*
X65000Y-465000D02*
D03*
Y-65000D02*
D03*
D71*
X655500Y-498000D02*
D03*
X661000Y-387500D02*
D03*
X668500D02*
D03*
X705250Y-224750D02*
D03*
X927500Y-257250D02*
D03*
X971500Y-257500D02*
D03*
X915000Y-264750D02*
D03*
X630750Y-244500D02*
D03*
X703250Y-422000D02*
D03*
X592500Y-357000D02*
D03*
X950500Y-387000D02*
D03*
Y-374750D02*
D03*
X533250Y-355750D02*
D03*
X746250Y-277500D02*
D03*
X834250Y-236750D02*
D03*
X565000Y-60000D02*
D03*
X556500D02*
D03*
X524500Y-384250D02*
D03*
X569250Y-206750D02*
D03*
X559750D02*
D03*
X901750Y-259500D02*
D03*
X739000Y-277500D02*
D03*
X524500Y-392500D02*
D03*
X865000Y-289250D02*
D03*
X640500Y-167500D02*
D03*
X840250Y-196000D02*
D03*
X981000Y-360000D02*
D03*
X853250Y-272500D02*
D03*
X550250Y-206750D02*
D03*
X867750Y-116750D02*
D03*
X548250Y-60000D02*
D03*
X620500Y-140250D02*
D03*
X840500Y-145250D02*
D03*
X920750Y-406500D02*
D03*
M02*
