G04*
G04 #@! TF.GenerationSoftware,Altium Limited,Altium Designer,19.1.6 (110)*
G04*
G04 Layer_Physical_Order=1*
G04 Layer_Color=255*
%FSLAX44Y44*%
%MOMM*%
G71*
G01*
G75*
%ADD10C,0.8000*%
G04:AMPARAMS|DCode=29|XSize=0.8mm|YSize=1mm|CornerRadius=0.2mm|HoleSize=0mm|Usage=FLASHONLY|Rotation=180.000|XOffset=0mm|YOffset=0mm|HoleType=Round|Shape=RoundedRectangle|*
%AMROUNDEDRECTD29*
21,1,0.8000,0.6000,0,0,180.0*
21,1,0.4000,1.0000,0,0,180.0*
1,1,0.4000,-0.2000,0.3000*
1,1,0.4000,0.2000,0.3000*
1,1,0.4000,0.2000,-0.3000*
1,1,0.4000,-0.2000,-0.3000*
%
%ADD29ROUNDEDRECTD29*%
%ADD30R,3.0000X1.6000*%
%ADD31R,6.2000X5.8000*%
%ADD32R,5.8000X6.2000*%
%ADD33R,1.6000X3.0000*%
G04:AMPARAMS|DCode=34|XSize=1.97mm|YSize=0.6mm|CornerRadius=0.15mm|HoleSize=0mm|Usage=FLASHONLY|Rotation=90.000|XOffset=0mm|YOffset=0mm|HoleType=Round|Shape=RoundedRectangle|*
%AMROUNDEDRECTD34*
21,1,1.9700,0.3000,0,0,90.0*
21,1,1.6700,0.6000,0,0,90.0*
1,1,0.3000,0.1500,0.8350*
1,1,0.3000,0.1500,-0.8350*
1,1,0.3000,-0.1500,-0.8350*
1,1,0.3000,-0.1500,0.8350*
%
%ADD34ROUNDEDRECTD34*%
G04:AMPARAMS|DCode=35|XSize=1mm|YSize=2mm|CornerRadius=0.25mm|HoleSize=0mm|Usage=FLASHONLY|Rotation=0.000|XOffset=0mm|YOffset=0mm|HoleType=Round|Shape=RoundedRectangle|*
%AMROUNDEDRECTD35*
21,1,1.0000,1.5000,0,0,0.0*
21,1,0.5000,2.0000,0,0,0.0*
1,1,0.5000,0.2500,-0.7500*
1,1,0.5000,-0.2500,-0.7500*
1,1,0.5000,-0.2500,0.7500*
1,1,0.5000,0.2500,0.7500*
%
%ADD35ROUNDEDRECTD35*%
G04:AMPARAMS|DCode=36|XSize=1mm|YSize=2mm|CornerRadius=0.25mm|HoleSize=0mm|Usage=FLASHONLY|Rotation=270.000|XOffset=0mm|YOffset=0mm|HoleType=Round|Shape=RoundedRectangle|*
%AMROUNDEDRECTD36*
21,1,1.0000,1.5000,0,0,270.0*
21,1,0.5000,2.0000,0,0,270.0*
1,1,0.5000,-0.7500,-0.2500*
1,1,0.5000,-0.7500,0.2500*
1,1,0.5000,0.7500,0.2500*
1,1,0.5000,0.7500,-0.2500*
%
%ADD36ROUNDEDRECTD36*%
%ADD37R,1.0000X0.7000*%
G04:AMPARAMS|DCode=38|XSize=0.8mm|YSize=1mm|CornerRadius=0.2mm|HoleSize=0mm|Usage=FLASHONLY|Rotation=90.000|XOffset=0mm|YOffset=0mm|HoleType=Round|Shape=RoundedRectangle|*
%AMROUNDEDRECTD38*
21,1,0.8000,0.6000,0,0,90.0*
21,1,0.4000,1.0000,0,0,90.0*
1,1,0.4000,0.3000,0.2000*
1,1,0.4000,0.3000,-0.2000*
1,1,0.4000,-0.3000,-0.2000*
1,1,0.4000,-0.3000,0.2000*
%
%ADD38ROUNDEDRECTD38*%
G04:AMPARAMS|DCode=39|XSize=2.5mm|YSize=4mm|CornerRadius=0.625mm|HoleSize=0mm|Usage=FLASHONLY|Rotation=180.000|XOffset=0mm|YOffset=0mm|HoleType=Round|Shape=RoundedRectangle|*
%AMROUNDEDRECTD39*
21,1,2.5000,2.7500,0,0,180.0*
21,1,1.2500,4.0000,0,0,180.0*
1,1,1.2500,-0.6250,1.3750*
1,1,1.2500,0.6250,1.3750*
1,1,1.2500,0.6250,-1.3750*
1,1,1.2500,-0.6250,-1.3750*
%
%ADD39ROUNDEDRECTD39*%
G04:AMPARAMS|DCode=40|XSize=0.6mm|YSize=2mm|CornerRadius=0.15mm|HoleSize=0mm|Usage=FLASHONLY|Rotation=180.000|XOffset=0mm|YOffset=0mm|HoleType=Round|Shape=RoundedRectangle|*
%AMROUNDEDRECTD40*
21,1,0.6000,1.7000,0,0,180.0*
21,1,0.3000,2.0000,0,0,180.0*
1,1,0.3000,-0.1500,0.8500*
1,1,0.3000,0.1500,0.8500*
1,1,0.3000,0.1500,-0.8500*
1,1,0.3000,-0.1500,-0.8500*
%
%ADD40ROUNDEDRECTD40*%
G04:AMPARAMS|DCode=41|XSize=2.7mm|YSize=4.8mm|CornerRadius=0.3375mm|HoleSize=0mm|Usage=FLASHONLY|Rotation=270.000|XOffset=0mm|YOffset=0mm|HoleType=Round|Shape=RoundedRectangle|*
%AMROUNDEDRECTD41*
21,1,2.7000,4.1250,0,0,270.0*
21,1,2.0250,4.8000,0,0,270.0*
1,1,0.6750,-2.0625,-1.0125*
1,1,0.6750,-2.0625,1.0125*
1,1,0.6750,2.0625,1.0125*
1,1,0.6750,2.0625,-1.0125*
%
%ADD41ROUNDEDRECTD41*%
%ADD63C,2.0000*%
%ADD64C,1.0000*%
%ADD65C,0.6000*%
%ADD66C,3.0000*%
%ADD67R,3.0000X3.0000*%
%ADD68C,2.5000*%
%ADD69C,1.5000*%
%ADD70C,5.0000*%
%ADD71C,0.6000*%
G36*
X572625Y-60125D02*
Y-102750D01*
X569498Y-107500D01*
X543257Y-107500D01*
X540750Y-104250D01*
Y-60125D01*
X545625Y-55250D01*
X567750D01*
X572625Y-60125D01*
D02*
G37*
G36*
X875000Y-55750D02*
X880250Y-61000D01*
X880250Y-83000D01*
X912750Y-115500D01*
X912750Y-120750D01*
X905500Y-128000D01*
X882500Y-128000D01*
X878000Y-123500D01*
Y-109500D01*
X865250Y-98500D01*
X846000Y-98500D01*
X840000Y-92500D01*
X840000Y-61000D01*
X845250Y-55750D01*
X875000Y-55750D01*
D02*
G37*
G36*
X905500Y-178250D02*
X905500Y-229250D01*
X903500Y-231250D01*
X895500D01*
X893500Y-228250D01*
X893500Y-212250D01*
X891465Y-210215D01*
X891213Y-209837D01*
X890835Y-209585D01*
X889500Y-208250D01*
X871500D01*
X870367Y-209384D01*
X869687Y-209837D01*
X869234Y-210516D01*
X867500Y-212250D01*
Y-227250D01*
X851753Y-243248D01*
X851243Y-243250D01*
X845750Y-243250D01*
X835500D01*
X823250Y-232500D01*
X819000Y-232500D01*
X816999Y-230499D01*
X816999Y-217249D01*
X818248Y-216000D01*
X852750Y-216000D01*
X856500Y-212250D01*
X856500Y-178750D01*
X859000Y-176250D01*
X903500Y-176250D01*
X905500Y-178250D01*
D02*
G37*
G36*
X575000Y-204587D02*
Y-251680D01*
X571000Y-256000D01*
X547750D01*
X543750Y-252789D01*
Y-204587D01*
X546356Y-202250D01*
X572394D01*
X575000Y-204587D01*
D02*
G37*
G36*
X611694Y-162086D02*
X650389Y-162086D01*
X668710Y-177416D01*
X668710Y-288000D01*
X649960Y-288000D01*
X649960Y-230960D01*
X612335Y-193335D01*
X451750D01*
X445000Y-188220D01*
X445000Y-155483D01*
X451750Y-151250D01*
X599375D01*
X611694Y-162086D01*
D02*
G37*
G36*
X749750Y-274750D02*
X749750Y-299750D01*
X747250Y-302250D01*
X737250Y-302250D01*
X734750Y-299750D01*
X734750Y-275250D01*
X737000Y-273000D01*
X748000D01*
X749750Y-274750D01*
D02*
G37*
G36*
X870500Y-285750D02*
X870500Y-296250D01*
X838750Y-328000D01*
X786750Y-380000D01*
X650843D01*
X646624Y-375781D01*
X646373Y-313502D01*
X652937Y-308250D01*
X731000D01*
X733000Y-306250D01*
X751500D01*
X762750Y-315750D01*
X818169D01*
X855442Y-283872D01*
X868622Y-283872D01*
X870500Y-285750D01*
D02*
G37*
G36*
X549000Y-380000D02*
X551750Y-382292D01*
X551750Y-394250D01*
X549250Y-396750D01*
X522625D01*
X520250Y-394375D01*
X520250Y-382125D01*
X522375Y-380000D01*
X549000Y-380000D01*
D02*
G37*
G36*
X672750Y-385150D02*
X672750Y-410107D01*
X669904Y-412750D01*
X659500Y-412750D01*
X656750Y-410000D01*
X656750Y-385250D01*
X659000Y-383000D01*
X670361Y-383000D01*
X672750Y-385150D01*
D02*
G37*
G36*
X637250Y-416750D02*
X658750Y-416750D01*
X706750Y-416750D01*
X713152Y-423153D01*
X713331Y-448919D01*
X705000Y-457250D01*
X670000Y-457250D01*
X658000D01*
X636891Y-438750D01*
X602000D01*
X599750Y-436500D01*
X599750Y-416000D01*
X601500Y-414250D01*
X634750D01*
X637250Y-416750D01*
D02*
G37*
G36*
X597999Y-303499D02*
X597999Y-386751D01*
Y-408001D01*
X581749Y-424251D01*
Y-471263D01*
X574265Y-482750D01*
X490194Y-482750D01*
X482750Y-472045D01*
Y-424172D01*
X491639Y-416751D01*
X539250Y-416751D01*
X554750Y-399673D01*
Y-348000D01*
X551500Y-344583D01*
X453348D01*
X445625Y-337590D01*
Y-312734D01*
X453348Y-307250D01*
X526744D01*
X542750Y-296708D01*
X591208D01*
X597999Y-303499D01*
D02*
G37*
D10*
X901000Y-393500D02*
X919750D01*
X883000Y-350750D02*
X901750D01*
X882375Y-321375D02*
Y-273125D01*
Y-350250D02*
Y-322625D01*
D29*
X655500Y-488250D02*
D03*
Y-474250D02*
D03*
X671750Y-465500D02*
D03*
Y-451500D02*
D03*
X705250Y-235500D02*
D03*
Y-249500D02*
D03*
X779250Y-306750D02*
D03*
Y-320750D02*
D03*
X959000Y-257500D02*
D03*
Y-271500D02*
D03*
X939500Y-271750D02*
D03*
Y-257750D02*
D03*
X620500Y-167250D02*
D03*
Y-153250D02*
D03*
X823000Y-222250D02*
D03*
Y-208250D02*
D03*
X901000Y-379500D02*
D03*
Y-393500D02*
D03*
X864750Y-258000D02*
D03*
Y-272000D02*
D03*
X883000Y-258500D02*
D03*
Y-272500D02*
D03*
X920750Y-379500D02*
D03*
Y-393500D02*
D03*
X840500Y-208250D02*
D03*
Y-222250D02*
D03*
D30*
X618200Y-473470D02*
D03*
Y-427750D02*
D03*
D31*
X546400Y-450610D02*
D03*
D32*
X682195Y-344300D02*
D03*
D33*
X659335Y-272500D02*
D03*
X705055D02*
D03*
D34*
X901450Y-300500D02*
D03*
X914150D02*
D03*
X926850D02*
D03*
X939550D02*
D03*
Y-350000D02*
D03*
X926850D02*
D03*
X914150D02*
D03*
X901450D02*
D03*
D35*
X742250Y-319250D02*
D03*
Y-293250D02*
D03*
X665000Y-402250D02*
D03*
Y-428250D02*
D03*
D36*
X541000Y-388000D02*
D03*
X567000D02*
D03*
D37*
X865000Y-341250D02*
D03*
Y-360250D02*
D03*
X883000Y-350750D02*
D03*
D38*
X867750Y-322000D02*
D03*
X881750D02*
D03*
X967500Y-360250D02*
D03*
X953500D02*
D03*
X915250Y-277250D02*
D03*
X901250D02*
D03*
X545500Y-355500D02*
D03*
X559500D02*
D03*
X863500Y-378250D02*
D03*
X877500D02*
D03*
X853500Y-132750D02*
D03*
X867500D02*
D03*
X656000Y-244250D02*
D03*
X642000D02*
D03*
D39*
X556500Y-171250D02*
D03*
Y-85250D02*
D03*
X559250Y-233000D02*
D03*
Y-319000D02*
D03*
D40*
X861400Y-221250D02*
D03*
X874100D02*
D03*
X886800D02*
D03*
X899500D02*
D03*
Y-159250D02*
D03*
X886800D02*
D03*
X874100D02*
D03*
X861400D02*
D03*
D41*
X880450Y-190250D02*
D03*
D63*
X114500Y-343000D02*
X153750D01*
X43500Y-272000D02*
X114500Y-343000D01*
X43500Y-216000D02*
X114625Y-144875D01*
X43500Y-222000D02*
Y-216000D01*
X114625Y-144875D02*
X151875D01*
X153750Y-143000D01*
X152750Y-144000D02*
X153500Y-143250D01*
D64*
X421500Y-275250D02*
X465500D01*
X353500Y-343250D02*
X421500Y-275250D01*
X434500Y-224250D02*
X465500D01*
X353500Y-143250D02*
X434500Y-224250D01*
X901000Y-277000D02*
X901750Y-276250D01*
X901450Y-300500D02*
Y-277199D01*
X742250Y-321000D02*
X776000D01*
X710450Y-318300D02*
X742250D01*
Y-319250D02*
Y-318300D01*
Y-321000D02*
Y-319250D01*
X684450Y-344300D02*
X710450Y-318300D01*
X682195Y-344300D02*
X684450D01*
X469250Y-329000D02*
X560000D01*
X833250Y-321000D02*
X865000Y-289250D01*
X776000Y-321000D02*
X833250D01*
X742250Y-318300D02*
Y-317750D01*
X901750Y-276250D02*
Y-259500D01*
X601500Y-167250D02*
X620500D01*
X597500Y-171250D02*
X601500Y-167250D01*
X640250D02*
X640500Y-167500D01*
X620500Y-167250D02*
X640250D01*
X466500Y-326250D02*
X469250Y-329000D01*
X867750Y-132000D02*
Y-116750D01*
X867500Y-132250D02*
X867750Y-132000D01*
X556500Y-171250D02*
X597500D01*
X555500Y-172250D02*
X556500Y-171250D01*
X466500Y-172250D02*
X555500D01*
X462250Y-173750D02*
X463250Y-172750D01*
X540250Y-387500D02*
X545250D01*
X465500Y-326250D02*
X466500D01*
D65*
X705055Y-272500D02*
X711555Y-266000D01*
X705251Y-265196D02*
X705277Y-265222D01*
X705251Y-265196D02*
Y-248251D01*
X705250Y-248250D02*
X705251Y-248251D01*
X705250Y-248250D02*
Y-247500D01*
Y-237500D02*
Y-224750D01*
X655500Y-498000D02*
Y-486250D01*
X662250Y-476250D02*
X662750D01*
X671235Y-467765D01*
Y-464763D01*
X671750Y-464248D01*
Y-463500D01*
X617250Y-473220D02*
X620530Y-476500D01*
X620980Y-476250D02*
X662250D01*
X618200Y-473470D02*
X620980Y-476250D01*
X758000Y-266000D02*
X779250Y-287250D01*
X711555Y-266000D02*
X758000D01*
X779250Y-308750D02*
Y-287250D01*
X959000Y-257500D02*
X971500D01*
X618200Y-427750D02*
X623200Y-422750D01*
X705055Y-265445D02*
X705277Y-265222D01*
X705055Y-272500D02*
Y-265445D01*
X901251Y-277000D02*
X901450Y-277199D01*
X901000Y-277000D02*
X901251D01*
X920749Y-378499D02*
X920751D01*
X911000Y-447250D02*
X915592Y-442658D01*
X910750Y-450000D02*
X916000Y-444750D01*
X866000Y-494750D02*
X910750Y-450000D01*
Y-449000D01*
X911000Y-451500D02*
Y-449250D01*
X866000Y-495500D02*
Y-494750D01*
X919750Y-393500D02*
X920750Y-394500D01*
X901750Y-350750D02*
X902250Y-350250D01*
X882375Y-273125D02*
X883000Y-272500D01*
X881750Y-322000D02*
X882375Y-321375D01*
X881750Y-322000D02*
X882375Y-322625D01*
Y-350250D02*
X882875Y-350750D01*
X883000D01*
X902000Y-350000D02*
X902250Y-350250D01*
X901450Y-350000D02*
X902000D01*
X537750Y-389500D02*
X538750Y-388500D01*
X560000Y-355500D02*
Y-329000D01*
X562250Y-436750D02*
Y-388250D01*
X551500Y-447500D02*
X562250Y-436750D01*
X560750Y-388500D02*
X564750D01*
X959000Y-282250D02*
Y-272250D01*
X953150Y-288100D02*
X959000Y-282250D01*
X945100Y-288100D02*
X953150D01*
X939550Y-293650D02*
X945100Y-288100D01*
X939550Y-300500D02*
Y-293650D01*
X926850Y-300500D02*
Y-285400D01*
X939500Y-272750D01*
Y-271750D01*
X927500Y-257250D02*
X928000Y-257750D01*
X939500D01*
X1030100Y-263850D02*
Y-224088D01*
X939498Y-256248D02*
X939500Y-256250D01*
Y-257750D02*
Y-256250D01*
X904750Y-113750D02*
X909750Y-118750D01*
X924762D01*
X1030100Y-224088D01*
X915000Y-276000D02*
Y-264750D01*
Y-276000D02*
X916750Y-277750D01*
X917000Y-277500D01*
X664500Y-430000D02*
X672500Y-422000D01*
X939550Y-356850D02*
X947350D01*
X630750Y-244500D02*
X641750D01*
X915592Y-442658D02*
Y-433158D01*
X933750Y-381250D02*
X937500Y-385000D01*
Y-411250D02*
Y-385000D01*
X915592Y-433158D02*
X937500Y-411250D01*
X852960Y-439210D02*
X861000Y-447250D01*
X852960Y-439210D02*
Y-335790D01*
X672500Y-422000D02*
X703250D01*
X592500Y-357000D02*
X592500Y-357000D01*
X561250Y-357000D02*
X592500D01*
X559000Y-381000D02*
Y-361000D01*
X561500Y-358500D01*
X641750Y-244500D02*
X642000Y-244250D01*
X860000Y-87000D02*
X886800Y-113800D01*
Y-159250D02*
Y-113800D01*
X860000Y-87000D02*
Y-77500D01*
X867500Y-132250D02*
X874000Y-138750D01*
X860000Y-77500D02*
X865000D01*
X874150Y-233100D02*
Y-221250D01*
X864748Y-258250D02*
Y-242502D01*
X810500Y-232750D02*
Y-77750D01*
X860000Y-77500D02*
X862406Y-79906D01*
X874000Y-156400D02*
Y-138750D01*
X921750Y-381250D02*
X933750D01*
X920750Y-380250D02*
X921750Y-381250D01*
X920750Y-380250D02*
Y-379500D01*
X950500Y-363250D02*
X953500Y-360250D01*
X951625Y-361125D02*
X952500Y-360250D01*
X947350Y-356850D02*
X951625Y-361125D01*
X950500Y-374750D02*
Y-363250D01*
X952500Y-360250D02*
X953500D01*
X950500Y-387000D02*
Y-374750D01*
X544001Y-355750D02*
X544250Y-355501D01*
X533250Y-355750D02*
X544001D01*
X544250Y-355501D02*
X544499Y-355750D01*
X544001D02*
X544499D01*
X840500Y-145250D02*
X853500Y-132250D01*
X610750Y-184000D02*
X656500Y-229750D01*
X565753Y-184000D02*
X610750D01*
X861400Y-221250D02*
X861450D01*
X841500D02*
X861400D01*
X834250Y-236750D02*
Y-228502D01*
X840501Y-222251D01*
X939550Y-356850D02*
Y-350000D01*
X664000Y-452250D02*
Y-451250D01*
X561250Y-388250D02*
X562250D01*
X866750Y-322000D02*
X867750D01*
X852960Y-335790D02*
X866750Y-322000D01*
X864750Y-360250D02*
X865000D01*
X864250Y-360750D02*
X864750Y-360250D01*
X864250Y-377500D02*
Y-360750D01*
X863500Y-378250D02*
X864250Y-377500D01*
X926850Y-363500D02*
Y-356500D01*
X920751Y-369599D02*
X926850Y-363500D01*
X920751Y-378499D02*
Y-369599D01*
X920749Y-378499D02*
X920750Y-378500D01*
Y-379500D02*
Y-378500D01*
X914150Y-361850D02*
Y-350000D01*
X899000Y-377000D02*
X914150Y-361850D01*
X900500Y-378750D02*
X901000Y-379250D01*
X899000Y-377250D02*
X900500Y-378750D01*
X899000Y-377250D02*
Y-377000D01*
X877500Y-378250D02*
X878500D01*
X877500D02*
X878000Y-378750D01*
X900500D01*
X663000Y-450250D02*
X664000Y-451250D01*
X559000Y-381000D02*
X559250Y-381250D01*
Y-386250D02*
Y-381250D01*
Y-386250D02*
X561250Y-388250D01*
X916500Y-277000D02*
X917000Y-277500D01*
X882999Y-257499D02*
Y-245501D01*
X886850Y-241650D01*
X865000Y-360250D02*
Y-341250D01*
X559250Y-322000D02*
Y-319000D01*
X556500Y-174747D02*
X565753Y-184000D01*
X556500Y-174747D02*
Y-171250D01*
X840250Y-206998D02*
Y-196000D01*
Y-206998D02*
X840500Y-207248D01*
X840499Y-207249D02*
X840500Y-207248D01*
X967500Y-360250D02*
X967750Y-360000D01*
X981000D01*
X886850Y-241650D02*
Y-221250D01*
X864748Y-242502D02*
X874150Y-233100D01*
X836000Y-258250D02*
X864748D01*
X853250Y-272500D02*
X864250D01*
X864750Y-272000D01*
X540000Y-387250D02*
X540250Y-387500D01*
X559000Y-232750D02*
X559250Y-233000D01*
X836500Y-159250D02*
X861450D01*
X823000Y-172750D02*
X836500Y-159250D01*
X867500Y-132750D02*
Y-132250D01*
X556500Y-85250D02*
X557750Y-84000D01*
X620500Y-152248D02*
Y-140250D01*
X620499Y-152249D02*
X620500Y-152248D01*
X620499Y-152249D02*
X620500Y-152250D01*
Y-153250D02*
Y-152250D01*
X920750Y-406500D02*
Y-394500D01*
X810500Y-232750D02*
X836000Y-258250D01*
X840500Y-222250D02*
X840501Y-222251D01*
X823000Y-208250D02*
Y-172750D01*
Y-222250D02*
X824000Y-223250D01*
X839501D01*
X840500Y-222250D01*
X864247Y-274000D02*
X864750Y-273497D01*
Y-272000D01*
X840499Y-207249D02*
X840500Y-207250D01*
Y-208250D02*
Y-207250D01*
X865400Y-210250D02*
Y-200300D01*
X875450Y-190250D01*
X861400Y-214250D02*
X865400Y-210250D01*
X861400Y-221250D02*
Y-214250D01*
X880450Y-190250D02*
X889028D01*
X899500Y-200721D01*
Y-221250D02*
Y-200721D01*
X840500Y-222250D02*
X841500Y-221250D01*
D66*
X43500Y-272000D02*
D03*
Y-222000D02*
D03*
X354250Y-143250D02*
D03*
Y-193250D02*
D03*
Y-293250D02*
D03*
X154250Y-193250D02*
D03*
Y-293250D02*
D03*
X354580Y-243250D02*
D03*
X354250Y-343250D02*
D03*
X154250Y-143250D02*
D03*
Y-243250D02*
D03*
Y-343250D02*
D03*
X910000Y-77500D02*
D03*
X860000D02*
D03*
X810000D02*
D03*
X861000Y-447250D02*
D03*
X911000D02*
D03*
Y-501250D02*
D03*
X861000D02*
D03*
X811000D02*
D03*
Y-447250D02*
D03*
X463250Y-223750D02*
D03*
Y-274750D02*
D03*
Y-325750D02*
D03*
X667250Y-65000D02*
D03*
D67*
X463250Y-172750D02*
D03*
D68*
X1006200Y-289250D02*
D03*
X1031600Y-263850D02*
D03*
X1006200Y-238450D02*
D03*
X1057000Y-289250D02*
D03*
Y-238450D02*
D03*
D69*
X700500Y-437500D02*
D03*
X656250Y-189500D02*
D03*
X781500Y-364000D02*
D03*
X497000Y-448250D02*
D03*
D70*
X1015000Y-465000D02*
D03*
Y-65000D02*
D03*
X65000Y-465000D02*
D03*
Y-65000D02*
D03*
D71*
X655500Y-498000D02*
D03*
X661000Y-387500D02*
D03*
X668500D02*
D03*
X705250Y-224750D02*
D03*
X927500Y-257250D02*
D03*
X971500Y-257500D02*
D03*
X915000Y-264750D02*
D03*
X630750Y-244500D02*
D03*
X703250Y-422000D02*
D03*
X592500Y-357000D02*
D03*
X950500Y-387000D02*
D03*
Y-374750D02*
D03*
X533250Y-355750D02*
D03*
X746250Y-277500D02*
D03*
X834250Y-236750D02*
D03*
X565000Y-60000D02*
D03*
X556500D02*
D03*
X524500Y-384250D02*
D03*
X569250Y-206750D02*
D03*
X559750D02*
D03*
X901750Y-259500D02*
D03*
X739000Y-277500D02*
D03*
X524500Y-392500D02*
D03*
X865000Y-289250D02*
D03*
X640500Y-167500D02*
D03*
X840250Y-196000D02*
D03*
X981000Y-360000D02*
D03*
X853250Y-272500D02*
D03*
X550250Y-206750D02*
D03*
X867750Y-116750D02*
D03*
X548250Y-60000D02*
D03*
X620500Y-140250D02*
D03*
X840500Y-145250D02*
D03*
X920750Y-406500D02*
D03*
M02*
