G04*
G04 #@! TF.GenerationSoftware,Altium Limited,Altium Designer,19.1.6 (110)*
G04*
G04 Layer_Color=2752767*
%FSLAX44Y44*%
%MOMM*%
G71*
G01*
G75*
%ADD72C,0.0508*%
%ADD73C,0.0677*%
D72*
X41468Y-274032D02*
Y-269968D01*
X45532D01*
Y-274032D01*
X41468D01*
Y-224032D02*
Y-219968D01*
X45532D01*
Y-224032D01*
X41468D01*
X910000Y-79532D02*
X907968Y-75468D01*
X912032D01*
X910000Y-79532D01*
X860000D02*
X857968Y-75468D01*
X862032D01*
X860000Y-79532D01*
X810000D02*
X807968Y-75468D01*
X812032D01*
X810000Y-79532D01*
X861000Y-449282D02*
X858968Y-445218D01*
X863032D01*
X861000Y-449282D01*
X911000D02*
X908968Y-445218D01*
X913032D01*
X911000Y-449282D01*
Y-503282D02*
X908968Y-499218D01*
X913032D01*
X911000Y-503282D01*
X861000D02*
X858968Y-499218D01*
X863032D01*
X861000Y-503282D01*
X811000D02*
X808968Y-499218D01*
X813032D01*
X811000Y-503282D01*
Y-449282D02*
X808968Y-445218D01*
X813032D01*
X811000Y-449282D01*
X1006200Y-291282D02*
X1007216Y-290266D01*
X1008232D01*
X1007216Y-289250D01*
X1008232Y-288234D01*
X1007216D01*
X1006200Y-287218D01*
X1005184Y-288234D01*
X1004168D01*
X1005184Y-289250D01*
X1004168Y-290266D01*
X1005184D01*
X1006200Y-291282D01*
Y-240482D02*
X1007216Y-239466D01*
X1008232D01*
X1007216Y-238450D01*
X1008232Y-237434D01*
X1007216D01*
X1006200Y-236418D01*
X1005184Y-237434D01*
X1004168D01*
X1005184Y-238450D01*
X1004168Y-239466D01*
X1005184D01*
X1006200Y-240482D01*
X1057000Y-291282D02*
X1058016Y-290266D01*
X1059032D01*
X1058016Y-289250D01*
X1059032Y-288234D01*
X1058016D01*
X1057000Y-287218D01*
X1055984Y-288234D01*
X1054968D01*
X1055984Y-289250D01*
X1054968Y-290266D01*
X1055984D01*
X1057000Y-291282D01*
Y-240482D02*
X1058016Y-239466D01*
X1059032D01*
X1058016Y-238450D01*
X1059032Y-237434D01*
X1058016D01*
X1057000Y-236418D01*
X1055984Y-237434D01*
X1054968D01*
X1055984Y-238450D01*
X1054968Y-239466D01*
X1055984D01*
X1057000Y-240482D01*
X698468Y-439532D02*
X699484Y-437500D01*
X698468Y-435468D01*
X700500Y-436484D01*
X702532Y-435468D01*
X701516Y-437500D01*
X702532Y-439532D01*
X700500Y-438516D01*
X698468Y-439532D01*
X654218Y-191532D02*
X655234Y-189500D01*
X654218Y-187468D01*
X656250Y-188484D01*
X658282Y-187468D01*
X657266Y-189500D01*
X658282Y-191532D01*
X656250Y-190516D01*
X654218Y-191532D01*
X779468Y-366032D02*
X780484Y-364000D01*
X779468Y-361968D01*
X781500Y-362984D01*
X783532Y-361968D01*
X782516Y-364000D01*
X783532Y-366032D01*
X781500Y-365016D01*
X779468Y-366032D01*
X494968Y-450282D02*
X495984Y-448250D01*
X494968Y-446218D01*
X497000Y-447234D01*
X499032Y-446218D01*
X498016Y-448250D01*
X499032Y-450282D01*
X497000Y-449266D01*
X494968Y-450282D01*
X666234Y-66016D02*
Y-67032D01*
X668266D01*
Y-66016D01*
X669282D01*
Y-63984D01*
X668266D01*
Y-62968D01*
X666234D01*
Y-63984D01*
X665218D01*
Y-66016D01*
X666234D01*
X1012968Y-467032D02*
X1013984D01*
X1015000Y-466016D01*
X1016016Y-467032D01*
X1017032D01*
Y-466016D01*
X1016016Y-465000D01*
X1017032Y-463984D01*
Y-462968D01*
X1016016D01*
X1015000Y-463984D01*
X1013984Y-462968D01*
X1012968D01*
Y-463984D01*
X1013984Y-465000D01*
X1012968Y-466016D01*
Y-467032D01*
Y-67032D02*
X1013984D01*
X1015000Y-66016D01*
X1016016Y-67032D01*
X1017032D01*
Y-66016D01*
X1016016Y-65000D01*
X1017032Y-63984D01*
Y-62968D01*
X1016016D01*
X1015000Y-63984D01*
X1013984Y-62968D01*
X1012968D01*
Y-63984D01*
X1013984Y-65000D01*
X1012968Y-66016D01*
Y-67032D01*
X62968Y-467032D02*
X63984D01*
X65000Y-466016D01*
X66016Y-467032D01*
X67032D01*
Y-466016D01*
X66016Y-465000D01*
X67032Y-463984D01*
Y-462968D01*
X66016D01*
X65000Y-463984D01*
X63984Y-462968D01*
X62968D01*
Y-463984D01*
X63984Y-465000D01*
X62968Y-466016D01*
Y-467032D01*
Y-67032D02*
X63984D01*
X65000Y-66016D01*
X66016Y-67032D01*
X67032D01*
Y-66016D01*
X66016Y-65000D01*
X67032Y-63984D01*
Y-62968D01*
X66016D01*
X65000Y-63984D01*
X63984Y-62968D01*
X62968D01*
Y-63984D01*
X63984Y-65000D01*
X62968Y-66016D01*
Y-67032D01*
X653468Y-498000D02*
X655500Y-495968D01*
X657532Y-498000D01*
X655500Y-500032D01*
X653468Y-498000D01*
X658968Y-387500D02*
X661000Y-385468D01*
X663032Y-387500D01*
X661000Y-389532D01*
X658968Y-387500D01*
X666468D02*
X668500Y-385468D01*
X670532Y-387500D01*
X668500Y-389532D01*
X666468Y-387500D01*
X703218Y-224750D02*
X705250Y-222718D01*
X707282Y-224750D01*
X705250Y-226782D01*
X703218Y-224750D01*
X925468Y-257250D02*
X927500Y-255218D01*
X929532Y-257250D01*
X927500Y-259282D01*
X925468Y-257250D01*
X969468Y-257500D02*
X971500Y-255468D01*
X973532Y-257500D01*
X971500Y-259532D01*
X969468Y-257500D01*
X912968Y-264750D02*
X915000Y-262718D01*
X917032Y-264750D01*
X915000Y-266782D01*
X912968Y-264750D01*
X628718Y-244500D02*
X630750Y-242468D01*
X632782Y-244500D01*
X630750Y-246532D01*
X628718Y-244500D01*
X701218Y-422000D02*
X703250Y-419968D01*
X705282Y-422000D01*
X703250Y-424032D01*
X701218Y-422000D01*
X590468Y-357000D02*
X592500Y-354968D01*
X594532Y-357000D01*
X592500Y-359032D01*
X590468Y-357000D01*
X948468Y-387000D02*
X950500Y-384968D01*
X952532Y-387000D01*
X950500Y-389032D01*
X948468Y-387000D01*
Y-374750D02*
X950500Y-372718D01*
X952532Y-374750D01*
X950500Y-376782D01*
X948468Y-374750D01*
X531218Y-355750D02*
X533250Y-353718D01*
X535282Y-355750D01*
X533250Y-357782D01*
X531218Y-355750D01*
X744218Y-277500D02*
X746250Y-275468D01*
X748282Y-277500D01*
X746250Y-279532D01*
X744218Y-277500D01*
X832218Y-236750D02*
X834250Y-234718D01*
X836282Y-236750D01*
X834250Y-238782D01*
X832218Y-236750D01*
X562968Y-60000D02*
X565000Y-57968D01*
X567032Y-60000D01*
X565000Y-62032D01*
X562968Y-60000D01*
X554468D02*
X556500Y-57968D01*
X558532Y-60000D01*
X556500Y-62032D01*
X554468Y-60000D01*
X522468Y-384250D02*
X524500Y-382218D01*
X526532Y-384250D01*
X524500Y-386282D01*
X522468Y-384250D01*
X567218Y-206750D02*
X569250Y-204718D01*
X571282Y-206750D01*
X569250Y-208782D01*
X567218Y-206750D01*
X557718D02*
X559750Y-204718D01*
X561782Y-206750D01*
X559750Y-208782D01*
X557718Y-206750D01*
X899718Y-259500D02*
X901750Y-257468D01*
X903782Y-259500D01*
X901750Y-261532D01*
X899718Y-259500D01*
X736968Y-277500D02*
X739000Y-275468D01*
X741032Y-277500D01*
X739000Y-279532D01*
X736968Y-277500D01*
X522468Y-392500D02*
X524500Y-390468D01*
X526532Y-392500D01*
X524500Y-394532D01*
X522468Y-392500D01*
X862968Y-289250D02*
X865000Y-287218D01*
X867032Y-289250D01*
X865000Y-291282D01*
X862968Y-289250D01*
X638468Y-167500D02*
X640500Y-165468D01*
X642532Y-167500D01*
X640500Y-169532D01*
X638468Y-167500D01*
X838218Y-196000D02*
X840250Y-193968D01*
X842282Y-196000D01*
X840250Y-198032D01*
X838218Y-196000D01*
X978968Y-360000D02*
X981000Y-357968D01*
X983032Y-360000D01*
X981000Y-362032D01*
X978968Y-360000D01*
X851218Y-272500D02*
X853250Y-270468D01*
X855282Y-272500D01*
X853250Y-274532D01*
X851218Y-272500D01*
X548218Y-206750D02*
X550250Y-204718D01*
X552282Y-206750D01*
X550250Y-208782D01*
X548218Y-206750D01*
X865718Y-116750D02*
X867750Y-114718D01*
X869782Y-116750D01*
X867750Y-118782D01*
X865718Y-116750D01*
X546218Y-60000D02*
X548250Y-57968D01*
X550282Y-60000D01*
X548250Y-62032D01*
X546218Y-60000D01*
X618468Y-140250D02*
X620500Y-138218D01*
X622532Y-140250D01*
X620500Y-142282D01*
X618468Y-140250D01*
X838468Y-145250D02*
X840500Y-143218D01*
X842532Y-145250D01*
X840500Y-147282D01*
X838468Y-145250D01*
X918718Y-406500D02*
X920750Y-404468D01*
X922782Y-406500D01*
X920750Y-408532D01*
X918718Y-406500D01*
D73*
X356282Y-143250D02*
G03*
X356282Y-143250I-2032J0D01*
G01*
Y-193250D02*
G03*
X356282Y-193250I-2032J0D01*
G01*
Y-293250D02*
G03*
X356282Y-293250I-2032J0D01*
G01*
X156282Y-193250D02*
G03*
X156282Y-193250I-2032J0D01*
G01*
Y-293250D02*
G03*
X156282Y-293250I-2032J0D01*
G01*
X356612Y-243250D02*
G03*
X356612Y-243250I-2032J0D01*
G01*
X356282Y-343250D02*
G03*
X356282Y-343250I-2032J0D01*
G01*
X156282Y-143250D02*
G03*
X156282Y-143250I-2032J0D01*
G01*
Y-243250D02*
G03*
X156282Y-243250I-2032J0D01*
G01*
Y-343250D02*
G03*
X156282Y-343250I-2032J0D01*
G01*
X465282Y-172750D02*
G03*
X465282Y-172750I-2032J0D01*
G01*
Y-223750D02*
G03*
X465282Y-223750I-2032J0D01*
G01*
Y-274750D02*
G03*
X465282Y-274750I-2032J0D01*
G01*
Y-325750D02*
G03*
X465282Y-325750I-2032J0D01*
G01*
X1033632Y-263850D02*
G03*
X1033632Y-263850I-2032J0D01*
G01*
M02*
